<?xml version="1.0" encoding="UTF-8" standalone="no"?>
<svg
   xmlns:dc="http://purl.org/dc/elements/1.1/"
   xmlns:cc="http://creativecommons.org/ns#"
   xmlns:rdf="http://www.w3.org/1999/02/22-rdf-syntax-ns#"
   xmlns:svg="http://www.w3.org/2000/svg"
   xmlns="http://www.w3.org/2000/svg"
   xmlns:sodipodi="http://sodipodi.sourceforge.net/DTD/sodipodi-0.dtd"
   xmlns:inkscape="http://www.inkscape.org/namespaces/inkscape"
   version="1.1"
   width="76"
   height="76"
   viewBox="0 0 76.00 76.00"
   enable-background="new 0 0 76.00 76.00"
   xml:space="preserve"
   id="svg2"
   inkscape:version="0.91 r13725"
   sodipodi:docname="antropometry.svg"><metadata
     id="metadata10"><rdf:RDF><cc:Work
         rdf:about=""><dc:format>image/svg+xml</dc:format><dc:type
           rdf:resource="http://purl.org/dc/dcmitype/StillImage" /><dc:title></dc:title></cc:Work></rdf:RDF></metadata><defs
     id="defs8" /><sodipodi:namedview
     pagecolor="#ffffff"
     bordercolor="#666666"
     borderopacity="1"
     objecttolerance="10"
     gridtolerance="10"
     guidetolerance="10"
     inkscape:pageopacity="0"
     inkscape:pageshadow="2"
     inkscape:window-width="1855"
     inkscape:window-height="1056"
     id="namedview6"
     showgrid="false"
     inkscape:zoom="4.3915053"
     inkscape:cx="58.792382"
     inkscape:cy="-6.5955212"
     inkscape:window-x="1985"
     inkscape:window-y="24"
     inkscape:window-maximized="1"
     inkscape:current-layer="svg2" /><path
     style="fill:#000000"
     d="m 24.256958,41.136389 c -2.067171,-0.03597 -5.5878,1.143878 -6.485159,1.262407 -0.258661,0.07115 -1.642928,0.328284 -3.052525,0.66724 l -1.918493,1.422825 31.665573,31.569501 c 1.871562,-0.01609 0.347587,-0.03159 1.20958,-0.0465 26.325491,-0.132139 28.852273,0.660675 30.364345,-2.445771 0.3124,-1.365609 0.07229,-4.970586 0.07229,-4.970586 0,-5.022525 -3.316317,-15.472619 -4.724534,-18.736183 l -0.66927,-1.553017 -14.896507,-5.442537 c -1.626619,-0.374737 -2.915248,-0.663739 -3.134144,-0.674214 0,0 -3.42374,-0.649637 -3.857048,-0.683514 -0.39093,-0.08395 -1.028701,-0.18814 -1.758291,-0.190639 -1.12823,-0.004 -1.407154,0.115568 -1.522765,0.713738 -0.699444,3.618911 -1.024451,4.824617 -1.963503,7.267564 -1.441132,3.749104 -3.603616,7.363202 -5.790236,9.673812 l -1.790939,1.89245 -1.151985,-1.095018 C 31.710444,56.779907 28.473475,51.31517 26.838429,46.760262 26.04877,43.568253 26.20395,43.379043 25.791383,42.152356 25.834843,41.42013 25.196582,41.152733 24.256958,41.136389 Z"
     id="path4424"
     inkscape:connector-curvature="0"
     sodipodi:nodetypes="scccccccccccccsssccccs" /><ellipse
     style="opacity:1;fill:#000000;fill-opacity:0.94117647;stroke:none;stroke-width:0.171;stroke-miterlimit:4;stroke-dasharray:none;stroke-opacity:1"
     id="path4136"
     cx="35.331455"
     cy="21.299667"
     rx="17.72633"
     ry="17.672548" /><path
     id="path4"
     d="m 0.93055222,37.329525 0,38 37.99999978,0 -7.583,-7.583 -2.8329,2.833 -1.1196,-1.1196 2.8329,-2.8329 -3.4383,-3.4384 -4.1317,4.1317 -1.1196,-1.1196 4.1317,-4.1316 -3.6369,-3.6369 -2.6473,2.6473 -1.1196,-1.1196 2.6473,-2.6473 -3.4383,-3.4383 -3.946,3.946 -1.1196,-1.1196 3.946,-3.946 -3.5379,-3.5379 -3.3030998,3.3032 -1.1196,-1.1196 3.3030998,-3.3032 -3.0828998,-3.0829 -2.6631,2.6631 -1.1196,-1.1196 2.6631,-2.6631 -6.56509998,-6.5652 z m 4.74989998,17.4167 15.8332998,15.8333 -15.8332998,0 0,-15.8333 z"
     style="fill:#000000;fill-opacity:1;stroke-width:0.2;stroke-linejoin:round"
     inkscape:connector-curvature="0" /></svg>