<?xml version="1.0" encoding="UTF-8" standalone="no"?>
<!-- Created with Inkscape (http://www.inkscape.org/) -->

<svg
   xmlns:dc="http://purl.org/dc/elements/1.1/"
   xmlns:cc="http://creativecommons.org/ns#"
   xmlns:rdf="http://www.w3.org/1999/02/22-rdf-syntax-ns#"
   xmlns:svg="http://www.w3.org/2000/svg"
   xmlns="http://www.w3.org/2000/svg"
   version="1.1"
   width="201.24571"
   height="211.14655"
   id="svg3135">
 
  <g
     transform="translate(-16.519995,-12.5032)"
     id="layer1">
    <path
       d="M 105.16037,222.92349 C 83.961931,220.78167 62.333641,209.72097 46.138911,192.73995 -3.0317486,141.18189 10.960121,55.131334 73.731101,23.046684 109.76532,4.6282143 151.91691,10.645794 183.46884,38.712894 c 15.91926,14.16098 28.52644,36.98367 32.76448,59.31325 1.7782,9.368736 2.06373,27.731726 0.56738,36.487176 -2.82352,16.52082 -7.22132,28.1702 -15.82602,41.92146 -16.47812,26.33399 -43.6148,43.63198 -73.02203,46.54708 -9.13295,0.90533 -13.36128,0.8945 -22.79228,-0.0584 z M 156.52,149.97447 c 14.04017,-8.8945 25.89345,-20.26549 31.72086,-30.43027 2.1844,-3.81026 4.48179,-11.7819 4.48897,-15.57616 0.008,-4.192266 -1.90076,-10.434526 -4.30669,-14.084596 -4.28944,-6.50765 -12.98611,-11.26539 -20.59199,-11.26539 -5.33669,0 -13.47083,3.69347 -16.84439,7.64848 l -1.39828,1.63929 -2.64,-2.4305 c -5.93033,-5.4597 -15.25694,-8.01675 -22.12322,-6.06544 -5.66291,1.60934 -8.61517,3.49319 -12.55133,8.00909 -4.73337,5.43053 -6.50261,10.86542 -5.98871,18.396626 l 0.36127,5.29442 -10.323789,0.25088 c -11.96276,0.29071 -11.50861,0.009 -13.59164,8.43019 -0.73551,2.97349 -1.59989,5.40635 -1.92086,5.40635 -0.65024,0 -0.77881,-0.55441 -2.43044,-10.48035 -0.63942,-3.84282 -1.46742,-8.73364 -1.84001,-10.86853 -0.37259,-2.13488 -1.09255,-6.327026 -1.5999,-9.315876 -1.26259,-7.43794 -3.41589,-9.75246 -6.65779,-7.1563 -0.64953,0.52014 -3.13516,6.09856 -5.52364,12.39649 l -4.34269,11.450746 -10.41479,0 c -11.39992,0 -13.70577,0.71834 -13.70577,4.26979 0,3.65002 2.20304,4.26977 15.1777,4.26977 9.09198,0 12.24101,-0.2602 13.39362,-1.10672 0.8288,-0.6087 2.44837,-3.62286 3.59905,-6.69816 2.24924,-6.01129 2.8444,-6.00457 3.68879,0.0416 0.26835,1.92141 0.78314,5.06552 1.14402,6.98692 0.36087,1.9214 1.20081,6.81224 1.86653,10.86852 1.0792,6.57562 1.94121,11.39582 3.02434,16.91143 0.45202,2.30178 3.30356,3.72359 5.26284,2.62411 0.7925,-0.44472 1.87503,-2.31473 2.40561,-4.15556 1.05355,-3.6552 2.33923,-8.4453 5.63874,-21.00832 l 1.17236,-4.46385 10.648069,0 c 10.74568,0 13.92494,-0.63381 14.77062,-2.94463 0.23784,-0.64992 -0.28282,-3.43542 -1.15704,-6.19 -1.94635,-6.13276 -1.63661,-10.35679 1.1213,-15.291306 2.30587,-4.12572 6.00171,-6.92125 10.97547,-8.30183 6.54339,-1.81627 13.04425,1.33959 17.99885,8.7376 3.45114,5.153106 5.35705,5.028556 8.94207,-0.58439 4.71401,-7.38063 12.0398,-10.2472 19.52529,-7.64021 5.03477,1.7535 9.05234,5.96484 10.7236,11.24089 1.11537,3.521036 1.16416,4.650366 0.3704,8.572466 -1.17327,5.79683 -4.05333,11.03842 -9.38048,17.0717 -6.78361,7.68293 -22.82957,20.16677 -25.93291,20.176 -1.88927,0.005 -15.20309,-9.59719 -20.53545,-14.81155 -5.44161,-5.32118 -7.18065,-6.04665 -9.26236,-3.86387 -0.83523,0.8758 -1.51861,2.16628 -1.51861,2.86775 0,1.21604 4.51136,6.25632 9.24516,10.32906 6.35558,5.46805 19.94123,14.59174 21.91345,14.71637 0.64539,0.0408 3.97708,-1.70196 7.4038,-3.87277 z"
       id="path3104-3"
       style="fill:#008080" />
  </g>
</svg>
