<?xml version="1.0" encoding="UTF-8" standalone="no"?>
<!-- Created with Inkscape (http://www.inkscape.org/) -->

<svg
   xmlns:dc="http://purl.org/dc/elements/1.1/"
   xmlns:cc="http://creativecommons.org/ns#"
   xmlns:rdf="http://www.w3.org/1999/02/22-rdf-syntax-ns#"
   xmlns:svg="http://www.w3.org/2000/svg"
   xmlns="http://www.w3.org/2000/svg"
   version="1.1"
   width="159.71335"
   height="130.24208"
   id="svg4218">
  <path
     d="m 137.9946,50.283764 -0.65625,7.0625 c -2.14409,23.06954 -17.08896,42.09069 -38.812502,49.374996 -6.414007,2.15074 -12.731205,3.25798 -18.843747,3.3125 l 0,20.15625 c 0.902318,0.0109 19.166197,-6.95427 40.718749,-15.5 l 39.3125,-15.593746 0,-24.40625 0,-24.40625 -10.875,0 -10.84375,0 z"
     id="path4228"
     style="fill:#008080" />
  <path
     d="m 21.71875,50.335824 0.65625,7.0625 c 2.14409,23.06954 17.08896,42.09069 38.8125,49.374996 6.41401,2.15074 12.731208,3.25798 18.84375,3.3125 l 0,20.15625 c -0.902318,0.0109 -19.1662,-6.95427 -40.71875,-15.5 L 0,99.148324 l 0,-24.40625 0,-24.40625 10.875,0 10.84375,0 z"
     id="path4228-0"
     style="fill:#71c837" />
  <path
     d="M 70.29488,104.42855 C 59.73539,102.13496 47.64575,95.442844 41.11531,88.276448 33.12365,79.506528 27.79488,65.390108 27.79488,52.989388 c 0,-20.33286 10.28379,-37.8081 27.50111,-46.7325996 22.02309,-11.4155567 47.40258,-6.94896671 63.99889,11.2632996 24.85758,27.27793 13.33969,72.38327 -21.584882,84.528832 -7.736758,2.69058 -20.773728,3.82219 -27.415118,2.37963 z M 96.046968,93.457738 c 6.914722,-2.66676 14.332162,-8.33895 19.141772,-14.63789 11.2557,-14.74116 11.38198,-37.02159 0.29508,-52.0645 C 108.43486,17.191178 99.029468,11.422688 86.76564,9.1419884 64.08962,4.9249484 40.56386,22.322298 36.7531,46.126368 c -3.39361,21.19833 10.68092,42.67091 32.04178,48.884036 6.65015,1.9343 20.21448,1.16148 27.252088,-1.552666 z"
     id="path4228-7-9"
     style="fill:#71c837;fill-opacity:1" />
  <g
     transform="translate(228.45006,-142.00368)"
     id="g4871">
    <path
       d="m -174.00501,218.13698 c -1.30786,-1.30786 -1.57143,-4.48269 -1.57143,-18.92857 0,-20.50745 -0.003,-20.5 9.07143,-20.5 5.87012,0 5.92857,-0.0285 5.92857,-2.88922 0,-1.58907 0.86021,-3.95153 1.91157,-5.24991 1.68885,-2.08564 2.90935,-2.40166 10.47532,-2.71238 8.39899,-0.34493 8.62195,-0.2935 11.58843,2.67298 1.80123,1.80123 3.02468,4.06702 3.02468,5.6016 0,2.47532 0.23047,2.57693 5.84501,2.57693 9.0254,0 9.15499,0.29265 9.15499,20.67375 0,15.2151 -0.19357,17.19145 -1.82874,18.67126 -1.59942,1.44745 -4.97624,1.65499 -26.92857,1.65499 -21.4847,0 -25.32616,-0.22634 -26.67126,-1.57143 z m 36.2951,-14.97291 c 5.65704,-6.1897 6.26706,-8.74482 3.06089,-12.8208 -2.20913,-2.80846 -7.50485,-3.65743 -9.62006,-1.54222 -0.79019,0.79019 -1.65778,0.79019 -3.13426,0 -5.52613,-2.9575 -11.50643,0.14802 -11.50643,5.9752 0,2.39654 1.34399,4.39807 6.33393,9.43276 7.32181,7.38748 7.14801,7.3997 14.86593,-1.04494 z m -1.86653,-26.99773 c 0,-2.5292 -0.0392,-2.54058 -7.75,-2.25 -7.17223,0.27029 -7.77382,0.45981 -8.06955,2.54207 -0.30874,2.17385 -0.0464,2.25 7.75,2.25 7.97646,0 8.06955,-0.0293 8.06955,-2.54207 z"
       id="path4228-7-9-0"
       style="fill:#008080" />
    <rect
       width="4.0025172"
       height="10.702383"
       rx="137.09207"
       ry="0"
       x="-147.22302"
       y="192.67712"
       id="rect4848"
       style="fill:#008080;fill-opacity:1;stroke:#68b0ab;stroke-width:0;stroke-linecap:round;stroke-linejoin:round;stroke-miterlimit:4;stroke-opacity:1;stroke-dasharray:none;stroke-dashoffset:0" />
    <rect
       width="4.0025172"
       height="10.702383"
       rx="137.09207"
       ry="0"
       x="-200.07309"
       y="139.78357"
       transform="matrix(0,-1,-1,0,0,0)"
       id="rect4848-6"
       style="fill:#008080;fill-opacity:1;stroke:#68b0ab;stroke-width:0;stroke-linecap:round;stroke-linejoin:round;stroke-miterlimit:4;stroke-opacity:1;stroke-dasharray:none;stroke-dashoffset:0" />
  </g>
</svg>
