<?xml version="1.0" encoding="UTF-8" standalone="no"?>
<!-- Created with Inkscape (http://www.inkscape.org/) -->

<svg
   xmlns:dc="http://purl.org/dc/elements/1.1/"
   xmlns:cc="http://creativecommons.org/ns#"
   xmlns:rdf="http://www.w3.org/1999/02/22-rdf-syntax-ns#"
   xmlns:svg="http://www.w3.org/2000/svg"
   xmlns="http://www.w3.org/2000/svg"
   version="1.1"
   width="100%"
   height="100%"
   viewBox="0 0 76 76"
   id="Layer_1">

  <g
     id="g2987">
    <path
       d="m 19.215309,20.882339 c -0.368721,1.444505 -0.558884,2.927125 -0.566407,4.416016 -1.12e-4,10.27117 8.506511,18.597656 19,18.597656 10.493489,0 19.000112,-8.326486 19,-18.597656 -0.0062,-1.488737 -0.195096,-2.971354 -0.5625,-4.416016 z m 1.232996,4.732135 c 0.207375,0.02613 0.425226,0.0882 0.644531,0.193359 l 6.888672,3.302735 c 0.05449,0.02612 0.1044,0.0601 0.15625,0.08984 -0.593799,0.318149 -1.023598,0.916817 -1.09375,1.640626 l -0.06641,0.691406 -6.589844,-3.158203 c -0.877191,-0.420629 -1.423923,-1.330528 -1.228515,-2.041016 0.146549,-0.532867 0.666977,-0.797269 1.289066,-0.718747 z m 34.529297,0.271484 c 0.641595,-0.04616 1.162439,0.252693 1.283203,0.806641 0.161024,0.738597 -0.451266,1.638928 -1.373047,2.021484 l -6.923828,2.875 -0.0293,-0.71289 c -0.03198,-0.745341 -0.438538,-1.383552 -1.029297,-1.742188 0.05475,-0.0276 0.106813,-0.05827 0.164063,-0.08203 l 7.238281,-3.003906 c 0.230455,-0.09563 0.456046,-0.14673 0.669925,-0.162111 z m -25.365234,3.167969 15.693359,0 c 1.294828,0 2.337891,1.043063 2.337891,2.337891 l 0,8.302734 c -2.913586,2.080035 -6.425033,3.204026 -10.03125,3.210938 -3.737158,-0.0073 -7.368723,-1.214169 -10.337891,-3.435547 l 0,-8.078125 c 0,-1.294828 1.043063,-2.337891 2.337891,-2.337891 z"
       id="path4199"
       style="fill:#144c36;fill-opacity:1;stroke:#144c36;stroke-width:1;stroke-miterlimit:4;stroke-opacity:1;stroke-dasharray:none" />
    <path
       d="m 27.364839,4.0046426 c -3.984572,3.1829425 -6.316604,8.0623484 -6.324219,13.2324214 0.0015,0.07032 0.0035,0.140638 0.0059,0.210937 l 32.892578,0 c 0.0037,-0.07029 0.007,-0.140604 0.0098,-0.210937 -0.002,-5.165977 -2.6635,-9.6632609 -6.300781,-13.2324214 -3.944915,-1.0466102 -16.016254,-1.3283898 -20.283203,0 z"
       id="path4199-9"
       style="fill:#144c36;fill-opacity:1;stroke:#144c36;stroke-width:0.88511801;stroke-miterlimit:4;stroke-opacity:1;stroke-dasharray:none" />
    <path
       d="M 29.191175,75.785502 C 9.4852095,75.558014 7.742426,75.549456 5.951613,73.758643 5.306601,73.11363 5.273704,69.333331 5.820734,64.675897 6.498277,58.90727 9.5061637,51.515543 9.121831,52.51215 L 9.909212,50.470405 20.07079,48.019482 c 1.180606,-0.284756 2.338832,-0.49982 2.555474,-0.559587 0.340202,-0.09386 0.375997,0.353391 0.262597,3.281024 l -0.131299,3.389687 -1.128059,0.891481 c -1.656623,1.309193 -3.358242,3.48346 -4.463147,5.702854 -0.850278,1.70793 -0.972827,2.190588 -0.966775,3.807649 0.0083,2.218131 0.491397,3.273254 1.965293,4.29236 0.565237,0.390825 1.032189,0.89319 1.03767,1.116368 0.01079,0.439222 2.984325,2.08916 3.764805,2.088992 0.578512,-1.26e-4 1.483048,-1.865509 1.491323,-3.075491 0.0052,-0.758339 -0.09644,-0.870838 -1.008564,-1.116447 -0.557881,-0.150221 -1.683106,-0.288549 -2.500499,-0.307393 -1.30178,-0.03001 -1.566896,-0.1302 -2.136827,-0.807523 -1.628236,-1.93505 -0.255316,-5.951964 3.19437,-9.346144 2.287519,-2.250712 2.496296,-2.28049 5.061879,-0.72198 2.900147,1.761746 5.517125,5.123677 5.529149,7.103087 0.0068,1.125901 -0.85441,2.42773 -1.610656,2.4346 -0.914826,0.0083 -3.649376,1.106203 -3.81222,1.530564 -0.240512,0.626771 0.122533,1.529341 1.043865,2.595168 l 0.883018,1.0215 0.897932,-0.556786 c 1.192798,-0.739624 2.702535,-2.321639 2.511126,-2.631343 -0.084,-0.135914 0.154284,-0.530171 0.529516,-0.876129 1.586229,-1.462473 1.87273,-4.173931 0.692251,-6.551524 -0.98867,-1.991274 -3.973932,-4.87436 -6.327944,-6.111358 l -1.890243,-0.993294 -0.05167,-1.364312 c -0.07756,-2.047885 0.07828,-5.017896 0.273424,-5.211025 0.09468,-0.0937 0.910691,-0.253012 1.813367,-0.35403 l 1.641227,-0.183665 0,0.7532 c 0,3.40101 4.188067,11.401129 7.743392,14.791557 l 0.963787,0.919088 1.499391,-1.589234 c 1.831403,-1.941139 3.643492,-4.977219 4.850511,-8.126835 0.786503,-2.052315 1.059432,-3.065126 1.645251,-6.105368 0.09683,-0.50252 0.27993,-0.590241 1.224878,-0.586822 0.611068,0.0021 1.245012,0.09084 1.408767,0.196948 0.424435,0.275028 1.55846,4.029834 1.944167,6.437229 0.340428,2.124791 0.235991,4.495029 -0.290127,6.584422 -0.294638,1.170114 -0.346375,1.220365 -1.260807,1.224506 -1.403509,0.0064 -2.908437,0.975488 -3.625477,2.3347 -2.520755,4.778316 3.624493,9.073125 7.301323,5.102775 1.454832,-1.570971 1.583205,-3.644732 0.339112,-5.478007 l -0.663416,-0.977596 0.458113,-1.740429 c 0.731234,-2.778053 0.628551,-6.904835 -0.251738,-10.117353 -0.391815,-1.42989 -0.655548,-2.656647 -0.586071,-2.726124 0.06948,-0.06948 1.240994,0.131256 2.603368,0.446072 l 12.477044,4.572392 0.561195,1.304535 c 1.179451,2.741713 3.956701,11.52078 3.956701,15.740195 0,0 0.201272,3.028729 -0.06038,4.175975 -1.266434,2.60972 -3.383909,1.943551 -25.43281,2.054561 -2.776029,0.04815 -13.992856,0.120807 -16.806172,0.08833 z m 19.252356,-8.483864 c -0.692278,-0.278925 -1.133201,-1.037805 -1.133201,-1.950377 0,-1.653449 2.345131,-2.366541 3.394695,-1.032235 0.299339,0.380546 0.544252,0.847661 0.544252,1.03803 0,0.69436 -0.598686,1.633004 -1.222996,1.917459 -0.738255,0.33637 -0.812074,0.337636 -1.58275,0.02712 z"
       id="path4424"
       style="fill:#144c36" />
  </g>
</svg>
