<?xml version="1.0" encoding="UTF-8" standalone="no"?>
<!-- Created with Inkscape (http://www.inkscape.org/) -->

<svg
   xmlns:dc="http://purl.org/dc/elements/1.1/"
   xmlns:cc="http://creativecommons.org/ns#"
   xmlns:rdf="http://www.w3.org/1999/02/22-rdf-syntax-ns#"
   xmlns:svg="http://www.w3.org/2000/svg"
   xmlns="http://www.w3.org/2000/svg"
   version="1.1"
   width="100%"
   height="100%"
   viewBox="0 0 47 60"
   id="Capa_1"
   xml:space="preserve"><g
     transform="translate(-6.5,0)"
     id="g4955"
     style="fill:#ffffff"><path
       d="m 42.5,22 h -25 c -0.552,0 -1,0.447 -1,1 0,0.553 0.448,1 1,1 h 25 c 0.552,0 1,-0.447 1,-1 0,-0.553 -0.448,-1 -1,-1 z"
       id="path4957"
       style="fill:#ffffff" /><path
       d="m 17.5,16 h 10 c 0.552,0 1,-0.447 1,-1 0,-0.553 -0.448,-1 -1,-1 h -10 c -0.552,0 -1,0.447 -1,1 0,0.553 0.448,1 1,1 z"
       id="path4959"
       style="fill:#ffffff" /><path
       d="m 42.5,30 h -25 c -0.552,0 -1,0.447 -1,1 0,0.553 0.448,1 1,1 h 25 c 0.552,0 1,-0.447 1,-1 0,-0.553 -0.448,-1 -1,-1 z"
       id="path4961"
       style="fill:#ffffff" /><path
       d="m 42.5,38 h -25 c -0.552,0 -1,0.447 -1,1 0,0.553 0.448,1 1,1 h 25 c 0.552,0 1,-0.447 1,-1 0,-0.553 -0.448,-1 -1,-1 z"
       id="path4963"
       style="fill:#ffffff" /><path
       d="m 42.5,46 h -25 c -0.552,0 -1,0.447 -1,1 0,0.553 0.448,1 1,1 h 25 c 0.552,0 1,-0.447 1,-1 0,-0.553 -0.448,-1 -1,-1 z"
       id="path4965"
       style="fill:#ffffff" /><path
       d="M 38.914,0 H 6.5 v 60 h 47 V 14.586 L 38.914,0 z M 39.5,3.414 50.086,14 H 39.5 V 3.414 z M 8.5,58 V 2 h 29 v 14 h 14 v 42 h -43 z"
       id="path4967"
       style="fill:#ffffff" /></g><g
     transform="translate(-6.5,0)"
     id="g4969" /><g
     transform="translate(-6.5,0)"
     id="g4971" /><g
     transform="translate(-6.5,0)"
     id="g4973" /><g
     transform="translate(-6.5,0)"
     id="g4975" /><g
     transform="translate(-6.5,0)"
     id="g4977" /><g
     transform="translate(-6.5,0)"
     id="g4979" /><g
     transform="translate(-6.5,0)"
     id="g4981" /><g
     transform="translate(-6.5,0)"
     id="g4983" /><g
     transform="translate(-6.5,0)"
     id="g4985" /><g
     transform="translate(-6.5,0)"
     id="g4987" /><g
     transform="translate(-6.5,0)"
     id="g4989" /><g
     transform="translate(-6.5,0)"
     id="g4991" /><g
     transform="translate(-6.5,0)"
     id="g4993" /><g
     transform="translate(-6.5,0)"
     id="g4995" /><g
     transform="translate(-6.5,0)"
     id="g4997" /></svg>