<?xml version="1.0" encoding="UTF-8" standalone="no"?>
<!-- Created with Inkscape (http://www.inkscape.org/) -->

<svg
   xmlns:dc="http://purl.org/dc/elements/1.1/"
   xmlns:cc="http://creativecommons.org/ns#"
   xmlns:rdf="http://www.w3.org/1999/02/22-rdf-syntax-ns#"
   xmlns:svg="http://www.w3.org/2000/svg"
   xmlns="http://www.w3.org/2000/svg"
   version="1.1"
   width="163.90392"
   height="158.00656"
   id="svg2">

  <g
     transform="translate(-73.071427,-50.505056)"
     id="layer1">
    <path
       d="m 128.6232,204.75505 c -0.55807,-2.58198 -4.03298,-24.86562 -5.49688,-35.25 -2.12378,-15.06536 -6.07495,-41.14039 -6.62946,-43.75 -0.8921,-4.19834 -2.83513,-3.29289 -4.82832,2.25 l -1.79798,5 -14.899563,0.1875 c -8.194764,0.10312 -16.13707,0.21563 -17.64957,0.25 -1.759658,0.04 -2.75,-0.4577 -2.75,-1.38199 0,-1.20035 2.8656,-1.45388 16.953975,-1.5 l 16.953968,-0.0555 1.17472,-3.5 c 0.64609,-1.925 2.19091,-6.87322 3.43293,-10.99604 2.67635,-8.884 2.93922,-8.4943 5.39371,7.99604 0.94144,6.325 2.14333,13.3 2.67088,15.5 0.52755,2.2 1.13604,5.8 1.3522,8 0.21617,2.2 0.89969,7.15 1.51893,11 0.61925,3.85 1.59549,10.15 2.16943,14 1.91918,12.87396 4.05714,13.19624 5.15557,0.77717 0.42697,-4.82745 1.69691,-19.12717 2.82209,-31.77717 1.12518,-12.65 2.44648,-29.975 2.93621,-38.5 0.48974,-8.525004 1.33291,-17.075004 1.8737,-19.000004 0.54079,-1.925 0.99872,-7.83471 1.01762,-13.13268 0.0189,-5.29797 0.48808,-10.82608 1.04265,-12.28469 0.55456,-1.4586 0.90099,-3.0414 0.76985,-3.51732 -0.13114,-0.47592 0.21156,-0.92564 0.76156,-0.99938 1.20391,-0.16141 2.22712,7.01706 3.4828,24.43407 0.51549,7.15 1.83196,21.550004 2.92549,32.000004 1.09353,10.45 2.01152,21.1375 2.03997,23.75 0.0638,5.85972 1.80768,6.24761 5.61954,1.25 l 2.66958,-3.5 22.91269,0 c 19.64623,0 22.99642,-0.21817 23.49995,-1.53034 0.37475,-0.9766 -1.56756,-3.96179 -5.36784,-8.25 -14.6732,-16.55709 -22.24785,-31.959924 -21.03007,-42.764004 0.70182,-6.22651 6.46207,-17.25839 10.79815,-20.68031 4.66039,-3.67785 13.30193,-6.77535 18.90219,-6.77535 7.77299,0 16.87362,4.27834 22.19747,10.43537 l 2.64992,3.06463 1.60408,3.05874 c -1.00844,1.74839 -1.32827,1.57069 -4,-2.22257 -1.59716,-2.26759 -5.10254,-5.63339 -7.78975,-7.47954 -4.39845,-3.02179 -5.70435,-3.39115 -13.09124,-3.70273 -6.77496,-0.28576 -9.106,0.0413 -13.37145,1.87628 -11.50247,4.94823 -17.99676,18.13836 -15.24592,30.96505 2.32124,10.82357 8.65399,20.358214 23.34444,35.147584 4.8125,4.8449 8.75,9.26978 8.75,9.83305 0,0.67203 -9.02491,1.03507 -26.25,1.05594 -19.07519,0.0231 -26.67484,0.36477 -27.80433,1.25 -0.85489,0.67001 -3.03814,3.82795 -4.85168,7.01764 -1.81354,3.18969 -3.8025,5.63106 -4.41991,5.42525 -0.71261,-0.23753 -2.13645,-11.48536 -3.89884,-30.79944 -1.52695,-16.73389 -2.99786,-31.016274 -3.26869,-31.738634 -0.85228,-2.2732 -2.50655,-0.20812 -2.50655,3.129 0,1.75867 -0.42671,4.68545 -0.94825,6.50396 -0.52155,1.81851 -1.23781,8.115544 -1.59169,13.993404 -0.35389,5.87786 -1.50043,20.13702 -2.54787,31.68702 -1.04743,11.55 -2.38299,28.2 -2.96789,37 -0.58491,8.8 -1.29858,19.0375 -1.58594,22.75 -0.51721,6.68191 -1.86714,8.84636 -2.80658,4.49999 z"
       id="path2996"
       style="fill:#68b0ab;fill-opacity:1;stroke:#68b0ab;stroke-width:3;stroke-opacity:1" />
  </g>
</svg>
