<?xml version="1.0" encoding="UTF-8" standalone="no"?>
<!-- Created with Inkscape (http://www.inkscape.org/) -->

<svg
   xmlns:dc="http://purl.org/dc/elements/1.1/"
   xmlns:cc="http://creativecommons.org/ns#"
   xmlns:rdf="http://www.w3.org/1999/02/22-rdf-syntax-ns#"
   xmlns:svg="http://www.w3.org/2000/svg"
   xmlns="http://www.w3.org/2000/svg"
   version="1.1"
   width="1104.0908"
   height="249"
   id="svg6010">

  <path
     d="m 50.005363,188.81239 c -2.073723,-1.03753 -4.361828,-3.37484 -5.627429,-5.74845 -1.173036,-2.2 -7.925449,-23.35 -15.005363,-47 L 16.5,93.063946 l -0.259697,47.749994 -0.259697,47.75 -7.990303,0 -7.990303,0 0.02196,-51.25 C 0.04259,89.179506 0.159076,85.810326 1.938166,81.891906 c 2.559193,-5.63658 5.88684,-7.63085 12.880061,-7.71904 7.139411,-0.09 11.621527,1.74233 14.086411,5.75874 1.057282,1.72279 7.418142,22.257334 14.135247,45.632334 6.717105,23.375 12.493538,43.02689 12.836517,43.67086 0.342979,0.64398 5.962034,-17.13102 12.486787,-39.5 6.52476,-22.36897 13.16392,-43.429444 14.75369,-46.801054 3.3557,-7.11682 6.24328,-8.84275 14.4721,-8.65008 7.063681,0.16538 11.136871,2.46292 13.467641,7.5966 1.78582,3.93339 1.90077,7.24974 1.92142,55.433674 l 0.022,51.25 -7.9903,0 -7.990311,0 -0.25969,-47.7174 -0.2597,-47.717404 -13.24912,44.311794 c -7.63781,25.54472 -14.15949,45.5903 -15.39865,47.33054 -3.931887,5.52182 -11.473843,7.22948 -17.846866,4.04092 z M 151.99353,187.6296 c -4.7782,-1.45346 -8.71256,-3.98162 -11.97018,-7.69185 -6.58042,-7.49468 -6.52335,-7.08024 -6.52335,-47.37381 0,-40.489994 0.11248,-41.342634 6.37069,-48.290914 6.96986,-7.73841 8.9682,-8.16588 39.87931,-8.53063 l 27.25,-0.32154 0,8.57154 0,8.57155 -25.06574,0 c -15.27926,0 -25.8169,0.40201 -26.98965,1.029648 C 151.11674,95.642204 150,99.802504 150,112.01428 l 0,11.54966 28.5,0 28.5,0 0,8.5 0,8.5 -28.5,0 -28.5,0 0,12.89641 0,12.89641 3.5348,3.10359 3.53479,3.10359 24.96521,0 24.9652,0 0,8 0,8 -26.25,-0.0859 c -14.4375,-0.0473 -27.37791,-0.42905 -28.75647,-0.84839 z M 225,132.06394 l 0,-56.499994 30.75,0.0439 c 33.01727,0.0471 35.09595,0.31302 41.67442,5.33066 1.88119,1.43486 4.69278,5.20007 6.24797,8.36714 l 2.82761,5.758308 0,35.999996 c 0,35.70339 -0.0195,36.04307 -2.36327,41.22705 -2.61108,5.77516 -9.4,12.64935 -14.665,14.84921 -2.69529,1.12616 -9.789,1.42374 -33.93961,1.42374 l -30.53212,0 0,-56.5 z m 61.72945,37.2285 2.77055,-2.7715 0.28954,-33.17594 c 0.19734,-22.61121 -0.063,-34.027086 -0.81759,-35.848776 -1.84012,-4.442438 -4.47376,-4.932278 -26.519,-4.932278 l -20.45295,0 0,40.056124 0,40.05613 20.97945,-0.30613 20.97946,-0.30613 z m 39.51222,-36.9785 0.25833,-56.249994 8.25,-0.29044 8.25,-0.29044 0,56.540434 0,56.54044 -8.50833,0 -8.50832,0 z"
     id="path6020"
     style="fill:#1a3e56;fill-opacity:1" />
  <path
     d="m 761.73343,190.82513 c -3.55827,-1.0791 -6.37874,-3.584 -8.42209,-7.4797 -0.86613,-1.6513 -9.35771,-21.45237 -18.87018,-44.00237 l -17.2954,-41.000006 -0.0274,45.750006 -0.0275,45.74997 -8,0 -8,0 0,-51.53209 c 0,-42.274596 0.25532,-52.143179 1.42122,-54.933589 3.79081,-9.07267 20.31869,-8.7393 25.09975,0.50626 0.88994,1.72095 9.03587,21.173839 18.10207,43.228659 9.0662,22.05481 16.89623,40.80415 17.40007,41.66522 0.56432,0.96442 0.92775,-16.38542 0.94648,-45.18443 l 0.0304,-46.750009 8,0 8,0 -0.022,51.250009 c -0.0206,48.18394 -0.1356,51.50027 -1.92142,55.43367 -2.70558,5.9592 -10.05488,9.2271 -16.41407,7.2984 z m 159.56388,-2.4618 c -1.62086,-1.3639 -3.4509,-3.7264 -4.06675,-5.25 -0.61585,-1.5237 -6.0573,-24.89951 -12.09211,-51.94637 -6.0348,-27.04686 -11.26307,-50.334349 -11.61838,-51.749999 l -0.64601,-2.57391 8.04102,0 c 6.78848,0 8.12402,0.2726 8.57384,1.75 0.29304,0.9625 4.61393,20.200003 9.60196,42.750009 4.98803,22.55 9.34964,41.9 9.69246,43 0.35941,1.15324 4.13221,-15.2293 8.91115,-38.69472 4.55832,-22.3821 8.99489,-42.061979 9.85905,-43.733069 3.03221,-5.86366 12.06388,-7.96965 17.51928,-4.08511 1.5348,1.09291 3.44115,3.68041 4.23645,5.75 0.7953,2.06959 5.009,21.434999 9.3637,43.034259 4.8988,24.29737 8.1997,38.59595 8.6571,37.5 0.4066,-0.97425 4.8097,-20.22136 9.7846,-42.77136 4.97493,-22.550006 9.28503,-41.787509 9.57813,-42.750009 0.4491,-1.47527 1.7811,-1.75 8.4844,-1.75 7.7368,0 7.9374,0.0608 7.421,2.25 -0.2919,1.2375 -5.4624,24.524999 -11.4901,51.750009 -6.3229,28.55794 -11.84793,51.24387 -13.05943,53.62187 -2.475,4.8581 -5.3038,6.3781 -11.8701,6.3781 -5.817,0 -9.2178,-2.3224 -11.3213,-7.7312 -0.8061,-2.0728 -4.7881,-20.53127 -8.84885,-41.01877 -4.0608,-20.4875 -7.62368,-37.25001 -7.91754,-37.25001 -0.29386,0 -3.85677,16.76251 -7.91757,37.25001 -4.06081,20.4875 -8.04283,38.94597 -8.84893,41.01877 -2.16338,5.5628 -5.47061,7.7312 -11.79163,7.7312 -4.17051,0 -5.91138,-0.5242 -8.23544,-2.4797 z m -311.20643,-55.02027 0,-56.500009 7.5,0 7.5,0 0,56.500009 0,56.49997 -7.5,0 -7.5,0 z m 41,32.33316 c -21.01658,-25.91965 -23.98699,-30.08517 -23.99488,-33.6489 -0.008,-3.54909 1.05544,-5.07119 19.30452,-27.63449 24.49946,-30.291309 21.27661,-27.549779 32.38653,-27.549779 5.11711,0 9.30318,0.3375 9.30238,0.75 -7.9e-4,0.4125 -9.67579,12.62492 -21.5,27.138709 -11.8242,14.51379 -21.49855,26.80501 -21.49855,27.31381 0,0.70695 36.57181,46.45246 44.80784,56.04746 1.41737,1.6513 0.91496,1.7467 -8.90285,1.6912 l -10.40499,-0.059 -19.5,-24.04922 z m 168.91654,23.28101 c -7.62649,-1.5859 -14.25629,-7.7127 -17.69049,-16.34823 -1.48063,-3.72316 -1.69837,-8.71921 -1.71127,-39.26594 -0.0146,-34.667536 0.008,-35.049656 2.34849,-40.227059 2.93086,-6.48242 9.5656,-12.73848 15.29609,-14.42304 2.80636,-0.82497 10.87981,-1.28906 22.84064,-1.31295 22.1028,-0.0442 25.45133,0.83445 32.32736,8.48225 6.92996,7.70778 7.17264,9.38192 7.17264,49.480799 l 0,35 -2.47354,4.84268 c -1.36045,2.66347 -4.02772,6.20729 -5.92727,7.87509 -6.46529,5.6766 -8.83003,6.19 -29.59919,6.4258 -10.45,0.1186 -20.61256,-0.1196 -22.58346,-0.5294 z m 41.8127,-18.38558 2.77076,-2.77142 0.31148,-31.72858 c 0.34736,-35.3843 -0.004,-38.242766 -5.0259,-40.839479 -3.75671,-1.94267 -20.25558,-3.00014 -30.19738,-1.93546 -5.39774,0.57804 -7.39097,1.29155 -9.92149,3.551533 l -3.16671,2.82817 -0.30142,31.347586 c -0.34335,35.70845 -2.2e-4,38.14002 5.80142,41.11197 3.03214,1.55324 5.73626,1.75375 20.22924,1.5 l 16.72924,-0.29291 z m 170.27068,11.33018 0,-8.05877 24.6,0 24.6001,0 3.4913,-3.49128 3.4913,-3.49127 -0.3413,-10.48324 c -0.2969,-9.11863 -0.6202,-10.76181 -2.4837,-12.62332 -2.8601,-2.85709 -8.4647,-3.81072 -22.8577,-3.8893 -13.1733,-0.0719 -18.2367,-1.52257 -23.8416,-6.83054 -5.6953,-5.39362 -6.6584,-8.793 -6.6584,-23.502 0,-18.699219 2.0646,-23.666559 12.1298,-29.184249 l 5.3702,-2.94394 27.2501,-0.39493 27.25,-0.39493 0,8.05209 0,8.0521 -25.4213,0.3124 c -25.331,0.31129 -25.4307,0.32104 -28.0001,2.736723 -2.4657,2.31804 -2.5787,2.90222 -2.5787,13.326916 0,10.71692 0.05,10.9524 2.9231,13.82569 l 2.9231,2.92308 13.8955,0 c 17.7248,0 22.9259,1.39081 29.403,7.86268 6.1596,6.15452 7.1875,10.19338 6.6523,26.13732 -0.4593,13.68105 -1.8222,17.91063 -7.4553,23.13587 -6.6961,6.2112 -7.3918,6.3364 -37.0917,6.6729 l -27.25,0.3088 z"
     id="path6020-6-1"
     style="fill:#54c382;fill-opacity:1" />
  <path
     d=""
     id="path6867"
     style="fill:#1a3e56;fill-opacity:1;stroke:#68b0ab;stroke-width:0;stroke-linecap:round;stroke-linejoin:round;stroke-miterlimit:4;stroke-opacity:1;stroke-dasharray:none;stroke-dashoffset:0" />
  <g
     id="g7045">
    <path
       d="m 572.39684,120.7952 c -23.46775,-3.32976 -27.69065,-5.29104 -44.34492,-20.59551 -7.80241,-7.170039 -12.79691,-10.856129 -18.65508,-13.768009 -7.40109,-3.678821 -18.68872,-6.881791 -24.39788,-6.923131 -2.24057,-0.0162 -2.17497,-0.1655 1,-2.27543 1.86883,-1.24194 4.41038,-4.26229 5.64788,-6.71189 6.05574,-11.98719 -1.23249,-25.74208 -14.21007,-26.81829 -7.07378,-0.58661 -11.67095,1.08399 -15.91746,5.78437 -7.57037,8.37949 -5.70111,22.32617 3.76609,28.0991 l 3.11144,1.8973 -5.59028,0.004 c -8.0273,0.005 -17.09661,-4.64463 -20.96945,-10.75145 -4.07495,-6.42554 -5.39985,-13.78467 -3.96505,-22.02388 3.98624,-22.89065 22.27031,-34.20901 50.21238,-31.08286 51.92022,5.80881 91.74529,46.76973 96.36357,99.11197 0.55171,6.25288 0.41964,7.72323 -0.68368,7.61144 -0.75212,-0.0762 -5.86749,-0.77705 -11.36749,-1.55743 z m -76.50482,-0.94702 c -0.008,-1.33069 5.23557,-15.75033 6.07939,-16.71976 0.41303,-0.47452 3.65536,1.20976 7.20516,3.74284 3.54981,2.53309 8.9657,6.11797 12.03531,7.96639 l 5.58112,3.36077 -13.98584,0.69226 c -7.6922,0.38074 -14.64384,0.94476 -15.44807,1.25337 -0.80424,0.30862 -1.46442,0.17547 -1.46707,-0.29587 z"
       id="path6989"
       style="fill:#1a3e56;fill-opacity:1" />
    <path
       d="m 578.56175,146.51011 c -13.31251,-6.79313 -40.81165,-14.49302 -67.20501,-18.81773 -13.61238,-2.23047 -16.54526,-2.9957 -15.84211,-4.13342 0.64091,-1.03701 4.21907,-1.51738 13.9087,-1.86727 22.34771,-0.80697 48.7139,2.59921 66.63842,8.60884 l 8,2.68219 -0.16988,6.19562 c -0.23715,8.64906 -0.91672,9.58384 -5.33012,7.33177 z m -137.5,-38.17124 C 422.12141,97.408683 409.82658,85.857823 403.46267,73.014933 c -3.78884,-7.64621 -4.23012,-9.29196 -4.289,-15.996 -0.0633,-7.21236 0.0556,-7.59825 3.41122,-11.06896 3.4925,-3.61226 11.14188,-9.72003 16.18105,-12.92002 l 2.70418,-1.71722 -2.00225,5.69675 c -3.9903,11.35312 -3.50471,24.28191 1.35111,35.97323 5.05062,12.16033 14.99825,23.79299 24.02927,28.099587 3.52529,1.68109 3.7135,2.01487 3.7135,6.58563 0,2.64814 -0.1125,4.79133 -0.25,4.76266 -0.1375,-0.0287 -3.4,-1.86995 -7.25,-4.09172 z"
       id="path7002"
       style="fill:#285c68;fill-opacity:1" />
    <path
       d="m 561.86587,168.93824 c -12.63146,-12.92414 -35.18684,-26.73006 -59.25,-36.26632 -9.03837,-3.58192 -10.35566,-4.52685 -8.1828,-5.86975 2.20398,-1.36214 27.6882,4.40396 42.57535,9.63316 16.42034,5.76774 36.83028,17.8021 40.63889,23.96199 0.69355,1.12173 -0.0279,3.69316 -2.59536,9.25 -1.95577,4.23301 -3.92272,7.64686 -4.37101,7.58633 -0.44829,-0.0605 -4.41507,-3.79346 -8.81507,-8.29541 z m -127.5,-52.14322 c -23.82391,-6.14493 -47.51899,-17.722313 -56.8724,-27.787803 l -2.37241,-2.55301 3.7801,-8.05526 c 2.07906,-4.43039 3.90199,-8.05525 4.05098,-8.05525 0.14898,0 4.01552,3.7386 8.5923,8.308 10.10256,10.08625 25.70419,20.59755 43.06469,29.014003 11.7295,5.68652 12.7438,6.39677 12.75,8.928 0.008,3.39741 -0.56741,3.40633 -12.99326,0.20132 z"
       id="path7015"
       style="fill:#377f7a;fill-opacity:1" />
    <path
       d="m 532.60778,212.83393 c 2.52118,-4.83546 2.97421,-17.09597 0.89918,-24.33498 -2.15462,-7.51665 -8.18635,-18.80376 -14.28911,-26.73904 -5.61196,-7.2971 -17.99016,-19.7425 -24.54275,-24.67598 -5.07414,-3.82035 -5.09208,-3.84858 -3.77293,-5.93321 0.7455,-1.1781 2.83435,-0.4967 11.73469,3.82793 33.53049,16.29228 53.06837,38.90752 50.99777,59.0303 -0.51521,5.00704 -1.01152,5.96009 -4.87184,9.35527 -4.99938,4.397 -16.25417,12.71971 -17.20085,12.71971 -0.35678,0 0.11385,-1.4625 1.04584,-3.25 z M 412.9646,124.97618 c -18.82809,-2.20016 -43.5419,-8.53489 -44.65949,-11.44727 -0.30957,-0.80674 -0.0204,-4.34193 0.6427,-7.85598 l 1.20555,-6.389188 7.15562,3.247078 c 13.80759,6.2656 35.80844,12.63108 57.31062,16.58159 5.90193,1.08433 10.90028,1.97152 11.10745,1.97152 0.20716,0 0.23286,1.0125 0.0571,2.25 -0.31072,2.18789 -0.66462,2.25371 -12.81954,2.38433 -6.875,0.0739 -15.87501,-0.26005 -20.00001,-0.74208 z"
       id="path7028"
       style="fill:#45a183;fill-opacity:1" />
    <path
       d="m 461.6392,230.04126 c -6.0428,-0.78564 -18.00468,-3.74739 -23.35245,-5.78204 -2.59226,-0.98627 -2.56575,-1.02796 6.56168,-10.32099 10.69805,-10.89216 16.97676,-20.10982 26.62022,-39.08073 6.5167,-12.81983 7.18251,-13.75 9.84219,-13.75 4.70197,0 12.09484,5.77836 17.27198,13.5 11.42418,17.039 13.48622,38.78669 4.43271,46.75028 -3.80643,3.3482 -13.97923,7.6381 -20.62601,8.69806 -7.31341,1.16627 -11.69151,1.16319 -20.75032,-0.0146 z m -49.39927,-19.9398 c -24.67289,-18.47347 -40.68417,-46.52504 -43.76963,-76.6839 -0.54743,-5.35086 -0.90206,-9.80773 -0.78806,-9.90415 0.11401,-0.0964 4.03228,0.44213 8.70728,1.19678 13.00598,2.09947 38.9919,3.3734 54.91782,2.69227 l 14.31703,-0.61232 -0.6942,7.40868 c -1.60715,17.15171 -7.62381,41.91695 -13.81943,56.88234 -3.64296,8.79948 -11.47753,23.02634 -12.68034,23.02634 -0.46203,0 -3.24774,-1.80272 -6.19047,-4.00604 z"
       id="path7041"
       style="fill:#54c382;fill-opacity:1" />
  </g>
  <g
     id="layer1" />
</svg>
