<?xml version="1.0" encoding="UTF-8" standalone="no"?>
<!-- Created with Inkscape (http://www.inkscape.org/) -->

<svg
   xmlns:dc="http://purl.org/dc/elements/1.1/"
   xmlns:cc="http://creativecommons.org/ns#"
   xmlns:rdf="http://www.w3.org/1999/02/22-rdf-syntax-ns#"
   xmlns:svg="http://www.w3.org/2000/svg"
   xmlns="http://www.w3.org/2000/svg"
   version="1.1"
   width="114.299"
   height="174.99699"
   viewBox="0 0 114.29901 174.99699"
   id="Capa_1"
   xml:space="preserve"><g
     transform="translate(-30.348,9.9591066e-4)"
     id="g3"
     style="fill:#8fc0a9;fill-opacity:0.94117647"><g
       id="g5"
       style="fill:#4a7c59;fill-opacity:1"><path
         d="M 124.779,133.735 H 50.22 c -1.796,0 -3.243,1.443 -3.243,3.246 0,1.803 1.44,3.252 3.243,3.252 h 74.559 c 1.79,0 3.239,-1.449 3.239,-3.252 0,-1.803 -1.436,-3.246 -3.239,-3.246 z"
         id="path7"
         style="fill:#4a7c59;fill-opacity:1" /><path
         d="M 124.779,148.538 H 87.501 c -1.797,0 -3.249,1.449 -3.249,3.252 0,1.79 1.446,3.246 3.249,3.246 h 37.277 c 1.803,0 3.245,-1.443 3.245,-3.246 0,-1.803 -1.441,-3.252 -3.244,-3.252 z"
         id="path9"
         style="fill:#4a7c59;fill-opacity:1" /><path
         d="m 56.504,105.415 c 0,10.199 61.979,10.199 61.979,0 0,-8.622 -9.932,-20.271 -23.346,-23.675 5.607,-3.766 9.475,-11.213 9.475,-17.908 0,-9.453 -7.66,-17.122 -17.117,-17.122 -9.459,0 -17.11,7.669 -17.11,17.122 0,6.695 3.861,14.148 9.46,17.908 -13.394,3.405 -23.341,15.053 -23.341,23.675 z M 86.11,86.709 h -0.073 l -2.832,-3.261 c 1.379,0.5 2.792,0.798 4.29,0.798 1.495,0 2.911,-0.292 4.29,-0.779 l -2.844,3.249 h -0.066 l 7.322,17.67 -8.702,8.678 -8.692,-8.678 7.307,-17.677 z"
         id="path11"
         style="fill:#4a7c59;fill-opacity:1" /><path
         d="m 134.528,8.424 c 1.017,2.47 1.698,5.058 1.698,7.709 v 6.866 c 0.22,0.907 0.366,1.845 0.366,2.816 V 154.83 c 0,6.674 -5.426,12.099 -12.094,12.099 H 50.5 c -6.665,0 -12.09,-5.425 -12.09,-12.099 V 25.814 c 0,-6.67 5.425,-12.096 12.09,-12.096 h 50.555 c 0.342,-2.917 1.193,-5.663 2.643,-8.068 H 50.5 c -11.116,0 -20.152,9.042 -20.152,20.164 v 129.015 c 0,11.125 9.036,20.167 20.152,20.167 h 73.998 c 11.113,0 20.149,-9.042 20.149,-20.167 V 25.814 c 0.007,-7.45 -4.098,-13.898 -10.119,-17.39 z"
         id="path13"
         style="fill:#4a7c59;fill-opacity:1" /><path
         d="m 118.495,46.073 c 8.062,0 14.614,-7.234 14.614,-16.118 V 16.124 c 0.012,-3.136 -0.841,-6.041 -2.247,-8.516 l -3.428,3.428 c 0.67,1.541 1.077,3.249 1.077,5.088 v 13.825 c 0,6.36 -4.5,11.518 -10.017,11.523 C 112.972,41.466 108.49,36.309 108.49,29.949 V 16.124 c 0,-6.352 4.493,-11.515 10.017,-11.521 1.681,0.006 3.245,0.536 4.64,1.376 l 3.324,-3.334 c -2.295,-1.653 -5.029,-2.64 -7.964,-2.646 -8.074,0 -14.626,7.233 -14.626,16.124 l -0.007,13.831 c 0.001,8.885 6.559,16.113 14.621,16.119 z"
         id="path15"
         style="fill:#4a7c59;fill-opacity:1" /></g></g><g
     transform="translate(0.053849,-1.4820211)"
     id="g17" /><g
     transform="translate(0.053849,-1.4820211)"
     id="g19" /><g
     transform="translate(0.053849,-1.4820211)"
     id="g21" /><g
     transform="translate(0.053849,-1.4820211)"
     id="g23" /><g
     transform="translate(0.053849,-1.4820211)"
     id="g25" /><g
     transform="translate(0.053849,-1.4820211)"
     id="g27" /><g
     transform="translate(0.053849,-1.4820211)"
     id="g29" /><g
     transform="translate(0.053849,-1.4820211)"
     id="g31" /><g
     transform="translate(0.053849,-1.4820211)"
     id="g33" /><g
     transform="translate(0.053849,-1.4820211)"
     id="g35" /><g
     transform="translate(0.053849,-1.4820211)"
     id="g37" /><g
     transform="translate(0.053849,-1.4820211)"
     id="g39" /><g
     transform="translate(0.053849,-1.4820211)"
     id="g41" /><g
     transform="translate(0.053849,-1.4820211)"
     id="g43" /><g
     transform="translate(0.053849,-1.4820211)"
     id="g45" /></svg>