<?xml version="1.0" encoding="UTF-8" standalone="no"?>
<svg
   xmlns:dc="http://purl.org/dc/elements/1.1/"
   xmlns:cc="http://creativecommons.org/ns#"
   xmlns:rdf="http://www.w3.org/1999/02/22-rdf-syntax-ns#"
   xmlns:svg="http://www.w3.org/2000/svg"
   xmlns="http://www.w3.org/2000/svg"
   xmlns:sodipodi="http://sodipodi.sourceforge.net/DTD/sodipodi-0.dtd"
   xmlns:inkscape="http://www.inkscape.org/namespaces/inkscape"
   version="1.1"
   width="76"
   height="76"
   viewBox="0 0 76.00 76.00"
   enable-background="new 0 0 76.00 76.00"
   xml:space="preserve"
   id="svg2"
   inkscape:version="0.91 r"
   sodipodi:docname="lung-heart2.svg"><metadata
     id="metadata10"><rdf:RDF><cc:Work
         rdf:about=""><dc:format>image/svg+xml</dc:format><dc:type
           rdf:resource="http://purl.org/dc/dcmitype/StillImage" /></cc:Work></rdf:RDF></metadata><defs
     id="defs8" /><sodipodi:namedview
     pagecolor="#ffffff"
     bordercolor="#666666"
     borderopacity="1"
     objecttolerance="10"
     gridtolerance="10"
     guidetolerance="10"
     inkscape:pageopacity="0"
     inkscape:pageshadow="2"
     inkscape:window-width="1855"
     inkscape:window-height="1056"
     id="namedview6"
     showgrid="false"
     inkscape:zoom="4.3915053"
     inkscape:cx="0.4465318"
     inkscape:cy="63.031522"
     inkscape:window-x="1985"
     inkscape:window-y="24"
     inkscape:window-maximized="1"
     inkscape:current-layer="svg2" /><path
     style="fill:#000000"
     d="M 38.693359 0.19335938 C 36.569635 0.27695927 35.821089 1.9380372 35.34375 20.873047 C 35.065096 31.926752 35.655607 41.785125 34.951172 42.003906 C 33.467067 42.464824 33.459669 42.133549 32.498047 41.144531 C 31.039644 39.644628 31.276798 37.7708 32.404297 30.296875 C 33.413969 23.603634 33.400335 20.231014 32.353516 16.96875 C 30.287036 10.528889 27.922866 9.510907 19.029297 19.154297 C 12.702951 26.014027 2.9197733 44.044264 1.3496094 52.341797 C -4.4650311 96.029347 8.8945608 65.799636 28.367188 62.201172 C 32.701489 60.903963 32.30909 53.183254 33.611328 49.125 C 35.622079 42.858796 40.580868 42.555644 41.609375 50.173828 C 41.634311 50.358532 41.643101 50.530585 41.664062 50.712891 C 41.691009 50.683869 41.71087 50.65398 41.738281 50.625 C 44.892114 47.190625 50.506698 47.01253 55.244141 52.724609 C 58.984609 47.406571 65.503658 47.190625 68.648438 50.625 C 75.816305 57.716008 68.49243 66.006303 62.060547 71.033203 C 71.205818 77.242113 76.823197 80.176449 75.789062 58.994141 C 73.604193 45.352269 71.098309 38.174946 63.794922 26.53125 C 58.777078 18.531362 57.785068 17.001673 52.957031 13.835938 C 49.25257 11.40693 47.846251 13.434347 45.707031 18.039062 C 43.769019 22.21067 43.860448 21.556481 44.060547 29.582031 C 44.298802 39.13803 43.847434 41.180344 43.214844 41.898438 C 42.177483 43.076011 40.894224 42.318162 40.679688 42.113281 C 40.373208 41.624693 40.992688 37.96372 41.458984 20.244141 C 41.926174 2.4907641 42.671312 0.26350487 39.689453 0.20898438 C 39.326733 0.20235279 38.996749 0.18141653 38.693359 0.19335938 z "
     id="path3347" /><g
     id="g3345"
     transform="matrix(0.78563114,0,0,0.78563114,-28.384589,11.41938)"
     style="fill:#ff0000" /><path
     inkscape:connector-curvature="0"
     style="fill:#000000;fill-opacity:1;stroke-width:0.2;stroke-linejoin:round"
     d="m 65.674895,53.139536 c -2.413378,-2.635622 -7.382301,-1.509667 -10.252822,2.571525 -3.635628,-4.383588 -7.977981,-5.207147 -10.398308,-2.571525 -6.736276,7.336582 7.682456,17.881461 10.297533,19.067027 l 0.06069,0.03437 0,-0.03437 C 57.994759,71.020997 72.411249,60.476118 65.674895,53.139536 Z"
     id="path4-1" /></svg>