<?xml version="1.0" encoding="UTF-8" standalone="no"?>
<!-- Created with Inkscape (http://www.inkscape.org/) -->

<svg
   xmlns:dc="http://purl.org/dc/elements/1.1/"
   xmlns:cc="http://creativecommons.org/ns#"
   xmlns:rdf="http://www.w3.org/1999/02/22-rdf-syntax-ns#"
   xmlns:svg="http://www.w3.org/2000/svg"
   xmlns="http://www.w3.org/2000/svg"
   version="1.1"
   width="300"
   height="300"
   id="svg5828">

  <path
     d="M 131.71187,299.65984 C 110.22169,295.77709 97.35675,291.70221 82.376797,284.03331 40.728517,262.71173 11.619857,222.92025 3.655747,176.42182 -4.4918531,128.85206 11.050787,80.171673 45.331567,45.890889 83.360787,7.8616639 137.23507,-6.4780561 190.0654,7.3670639 233.4241,18.72998 271.43061,52.338252 288.67978,94.56946 c 7.74423,18.96025 11.02199,35.98401 11.02807,57.27684 0.009,31.21622 -9.56556,61.20464 -27.68426,86.71049 -7.44745,10.48384 -23.54227,26.57866 -34.02611,34.02611 -16.1969,11.50587 -37.22785,20.76329 -57.28561,25.21604 -7.26689,1.61323 -42.88418,2.96588 -49,1.8609 z m 51.91403,-38.85317 c 11.98496,-2.72595 18.06597,-5.35269 19.18097,-8.28535 1.92084,-5.05221 3.0999,-28.38933 2.01913,-39.96465 -1.29956,-13.91852 -2.93421,-18.15723 -12.29587,-31.88373 -9.02645,-13.235 -10.22804,-16.43047 -9.58066,-25.47847 0.41956,-5.86386 1.51549,-8.95838 8.00687,-22.60852 11.81214,-24.83865 16.69778,-39.752328 17.5084,-53.445314 l 0.51092,-8.63055 -4.61034,-2.701837 c -2.53568,-1.48601 -10.13253,-4.513741 -16.88189,-6.728291 -20.2762,-6.65288 -22.77156,-8.447407 -22.77156,-16.376096 0,-3.924034 -0.40872,-5.375538 -1.64752,-5.85091 -2.99212,-1.148183 -15.76466,-1.675428 -20.85248,-0.860781 l -5,0.800584 -0.60295,5.596771 c -0.33162,3.078223 -0.9269,6.120941 -1.32284,6.761594 -1.20612,1.95153 -11.54206,6.709355 -21.57421,9.931003 -12.11185,3.889508 -15.8169,5.469993 -19.36328,8.259908 -2.80658,2.207923 -2.85016,2.392885 -2.20059,9.340841 1.35188,14.460284 7.04648,31.416328 18.79752,55.970908 6.88613,14.38903 7.12307,15.13522 7.14449,22.5 0.0259,8.9017 -1.08723,11.49307 -11.14498,25.94584 -3.93213,5.65038 -7.25815,11.76179 -8.43559,15.5 -2.51145,7.97348 -3.42101,28.36234 -1.92591,43.17156 1.30066,12.88336 1.67689,13.39409 12.22745,16.59872 13.31215,4.04344 21.12443,4.81975 44.90089,4.46181 16.47818,-0.24807 24.48427,-0.79005 29.91403,-2.02504 z m -93.682,-104.8854 c 2.60262,-1.73254 4.74012,-3.45936 4.75,-3.83737 0.0296,-1.13126 -23.455583,-17.68591 -23.795503,-16.77341 -0.1724,0.46281 0.15438,2.53587 0.72619,4.60679 0.65912,2.38712 0.68833,3.98244 0.0798,4.35853 -0.52791,0.32627 -8.0547,1.16567 -16.72618,1.86533 -8.67149,0.69966 -16.55384,1.49547 -17.51634,1.76847 -1.21617,0.34494 -1.75,1.51041 -1.75,3.82056 0,4.10455 -0.39881,3.9962 20.80981,5.65365 l 16.30981,1.27461 -0.60815,2.42304 c -0.33447,1.33268 -0.88401,3.80238 -1.22118,5.48823 l -0.61303,3.06518 7.41137,-5.28177 c 4.07625,-2.90497 9.54078,-6.6993 12.143403,-8.43184 z m 139.85133,7.68964 c -0.57397,-2.07873 -0.71503,-4.06278 -0.31347,-4.40901 0.40156,-0.34623 8.38011,-1.20217 17.73011,-1.90209 9.35,-0.69993 17.3375,-1.46925 17.75,-1.70962 0.4125,-0.24037 0.75,-1.96509 0.75,-3.8327 0,-3.0678 -0.31381,-3.44112 -3.25,-3.86636 -5.76108,-0.83437 -26.35699,-2.61994 -30.22001,-2.61994 -3.5418,0 -3.71087,-0.14317 -3.09007,-2.61666 0.36121,-1.43917 0.93554,-4.01066 1.2763,-5.71442 l 0.61955,-3.09776 -5.41789,3.90766 c -2.97983,2.14921 -8.22148,5.87427 -11.6481,8.27791 -3.42662,2.40364 -6.46816,4.75524 -6.75897,5.22579 -0.29082,0.47054 4.76278,4.66068 11.23022,9.31141 6.46743,4.65073 11.90003,8.08899 12.07243,7.64058 0.17241,-0.44841 -0.15614,-2.51607 -0.7301,-4.59479 z"
     id="path5838"
     style="fill:#008000" />
</svg>
