<?xml version="1.0" encoding="UTF-8" standalone="no"?>
<svg
   xmlns:dc="http://purl.org/dc/elements/1.1/"
   xmlns:cc="http://creativecommons.org/ns#"
   xmlns:rdf="http://www.w3.org/1999/02/22-rdf-syntax-ns#"
   xmlns:svg="http://www.w3.org/2000/svg"
   xmlns="http://www.w3.org/2000/svg"
   width="75"
   height="75"
   viewBox="0 0 75 74.999994"
   id="svg2"
   version="1.1">
  <defs
     id="defs4" />
  <metadata
     id="metadata7">
    <rdf:RDF>
      <cc:Work
         rdf:about="">
        <dc:format>image/svg+xml</dc:format>
        <dc:type
           rdf:resource="http://purl.org/dc/dcmitype/StillImage" />
        <dc:title></dc:title>
      </cc:Work>
    </rdf:RDF>
  </metadata>
  <g
     id="layer1"
     transform="translate(-231.38677,-627.45654)">
    <path
       d="m 249.57904,634.43878 39.63787,0 c 0.0451,0 0.0813,0.0363 0.0813,0.0814 0,0.0451 -0.0363,0.0814 -0.0813,0.0814 l -39.63787,0 c -0.0451,0 -0.0814,-0.0363 -0.0814,-0.0814 0,-0.0451 0.0363,-0.0814 0.0814,-0.0814 z m 1.19264,31.6466 36.2302,0 c 0.72879,0 1.31551,0.58671 1.31551,1.31551 l 0,6.61266 c 0,0.7288 -0.58673,1.31552 -1.31551,1.31552 l -36.2302,0 c -0.72879,0 -1.31551,-0.58672 -1.31551,-1.31552 l 0,-6.61266 c 0,-0.7288 0.58672,-1.31551 1.31551,-1.31551 z m 0,12.24682 36.2302,0 c 0.72879,0 1.31551,0.58672 1.31551,1.31552 l 0,6.61266 c 0,0.72879 -0.58673,1.31551 -1.31551,1.31551 l -36.2302,0 c -0.72879,0 -1.31551,-0.58672 -1.31551,-1.31551 l 0,-6.61266 c 0,-0.7288 0.58672,-1.31552 1.31551,-1.31552 z m 0,12.24682 36.2302,0 c 0.72879,0 1.31551,0.58672 1.31551,1.31551 l 0,6.61267 c 0,0.72879 -0.58673,1.31551 -1.31551,1.31551 l -36.2302,0 c -0.72879,0 -1.31551,-0.58672 -1.31551,-1.31551 l 0,-6.61267 c 0,-0.72879 0.58672,-1.31551 1.31551,-1.31551 z m 12.3589,-62.46941 c -0.82284,0 -1.48538,0.66227 -1.48538,1.48509 l 0,4.9046 -13.84982,0 c -0.82282,0 -1.48538,0.66226 -1.48538,1.48509 l 0,64.33397 c 0,0.82283 0.66256,1.4851 1.48538,1.4851 l 42.18279,0 c 0.82282,0 1.48537,-0.66227 1.48537,-1.4851 l 0,-64.33397 c 0,-0.82283 -0.66255,-1.48509 -1.48537,-1.48509 l -13.84981,0 0,-4.9046 c 0,-0.82282 -0.66228,-1.48509 -1.48509,-1.48509 l -11.51269,0 z"
       style="opacity:1;fill:#000000;fill-opacity:1;fill-rule:nonzero;stroke:#000000;stroke-width:1.30615175;stroke-miterlimit:4;stroke-dasharray:none;stroke-opacity:1"
       id="rect4171" />
  </g>
</svg>
