<?xml version="1.0" encoding="UTF-8" standalone="no"?>
<!-- Created with Inkscape (http://www.inkscape.org/) -->

<svg
   xmlns:dc="http://purl.org/dc/elements/1.1/"
   xmlns:cc="http://creativecommons.org/ns#"
   xmlns:rdf="http://www.w3.org/1999/02/22-rdf-syntax-ns#"
   xmlns:svg="http://www.w3.org/2000/svg"
   xmlns="http://www.w3.org/2000/svg"
   xmlns:sodipodi="http://sodipodi.sourceforge.net/DTD/sodipodi-0.dtd"
   xmlns:inkscape="http://www.inkscape.org/namespaces/inkscape"
   width="78.824608mm"
   height="78.914009mm"
   viewBox="0 0 279.29979 279.61657"
   id="svg4135"
   version="1.1"
   inkscape:version="0.91 r13725"
   sodipodi:docname="food style.svg">
  <defs
     id="defs4137" />
  <sodipodi:namedview
     id="base"
     pagecolor="#ffffff"
     bordercolor="#666666"
     borderopacity="1.0"
     inkscape:pageopacity="0.0"
     inkscape:pageshadow="2"
     inkscape:zoom="0.35"
     inkscape:cx="-424.05875"
     inkscape:cy="-194.02262"
     inkscape:document-units="px"
     inkscape:current-layer="layer1"
     showgrid="false"
     fit-margin-top="0"
     fit-margin-left="0"
     fit-margin-right="0"
     fit-margin-bottom="0"
     inkscape:window-width="1855"
     inkscape:window-height="1056"
     inkscape:window-x="1985"
     inkscape:window-y="24"
     inkscape:window-maximized="1" />
  <metadata
     id="metadata4140">
    <rdf:RDF>
      <cc:Work
         rdf:about="">
        <dc:format>image/svg+xml</dc:format>
        <dc:type
           rdf:resource="http://purl.org/dc/dcmitype/StillImage" />
        <dc:title></dc:title>
      </cc:Work>
    </rdf:RDF>
  </metadata>
  <g
     inkscape:label="Capa 1"
     inkscape:groupmode="layer"
     id="layer1"
     transform="translate(-143.34447,-58.723009)">
    <path
       style="fill:#000000"
       d="m 225.22635,337.68186 c -22.81586,-3.59477 -40.89833,-12.82872 -56.58349,-28.89478 -12.08329,-12.37673 -19.49347,-25.75069 -23.66691,-42.7143 -2.2015,-8.94831 -2.16945,-29.05991 0.0625,-39.19847 5.55648,-25.24066 20.26641,-43.36875 41.89269,-51.62736 l 4.78824,-1.82852 3.20676,2.90046 c 1.76373,1.59525 3.38427,3.00071 3.60122,3.12324 0.21694,0.12253 -0.81621,1.81003 -2.2959,3.75 -1.83626,2.40748 -3.49821,3.52722 -5.23515,3.52722 -5.87874,0 -10.7534,5.23649 -10.7534,11.5516 0,4.96265 3.19562,8.58935 9.99147,11.33927 9.06046,3.66629 18.79062,4.78125 26.1135,2.99228 l 6.01759,-1.47009 2.29951,4.33462 c 2.89313,5.45359 12.35875,14.29008 18.4836,17.25506 4.10475,1.98708 5.13849,2.12084 8.53225,1.10404 2.30225,-0.68977 4.73786,-2.38752 6.03152,-4.2043 2.62378,-3.68475 4.93056,-10.98642 4.93056,-15.60672 l 0,-3.38639 3.75,0.79532 c 7.55049,1.60133 16.53019,0.77146 22.82226,-2.10914 7.17999,-3.28711 10.01663,-5.81986 11.47823,-10.24855 1.61535,-4.89455 -1.17502,-10.19415 -6.76425,-12.847 -2.31757,-1.1 -4.21178,-2.225 -4.20936,-2.5 0.002,-0.275 1.29282,-2.00615 2.86756,-3.84699 l 2.86316,-3.347 6.68113,3.18861 c 14.41537,6.87982 25.34074,22.26181 29.07932,40.94118 2.45423,12.26224 1.56993,34.99358 -1.87442,48.18308 -8.92791,34.18776 -32.53514,57.75791 -66.58669,66.48209 -10.68127,2.7366 -28.16081,3.83667 -37.52345,2.36154 z m 94.35811,-5.91074 c -3.36187,-1.02013 -7.02382,-2.94446 -9.17807,-4.82301 -1.61645,-1.40959 -1.2942,-1.98307 4.66243,-8.29742 3.51939,-3.73074 8.29515,-9.57553 10.6128,-12.98842 20.6426,-30.39757 24.85249,-77.22154 9.70503,-107.94292 -5.57801,-11.31305 -15.99096,-21.98777 -26.8199,-27.49413 l -7.57611,-3.85233 1.37875,-6.07677 c 3.71271,-16.36366 12.59876,-42.45158 18.20168,-53.43697 l 1.85642,-3.6398 38.68348,0.27322 38.68348,0.27321 3.33053,7.22679 c 6.54399,14.19952 13.70769,36.92923 17.45528,55.38386 1.95987,9.65121 2.0626,13.43985 2.0626,76.0685 0,76.13471 0.31368,73.09117 -8.43478,81.83964 -8.34244,8.34243 -9.04029,8.45033 -53.99672,8.34883 -20.93768,-0.0473 -39.21978,-0.4353 -40.6269,-0.86228 z M 242.7883,218.74008 c -9.87306,-7.80421 -12.62681,-17.19588 -8.78236,-29.95223 2.15311,-7.14428 2.11327,-7.21119 -1.19122,-2.00054 -3.78284,5.96491 -11.15361,12.31039 -15.9787,13.75602 -5.50588,1.6496 -12.89152,1.46324 -19.26166,-0.48602 -5.23885,-1.60309 -5.32509,-1.68566 -2.4315,-2.32806 4.69819,-1.04304 6.72731,-2.74024 11.52857,-9.6427 5.19581,-7.46967 8.89768,-10.12122 15.36867,-11.00817 2.56126,-0.35106 4.48515,-0.80997 4.27532,-1.01981 -0.20984,-0.20983 -4.08244,-1.0322 -8.6058,-1.82748 -13.03024,-2.29094 -18.46667,-7.03478 -19.63321,-17.13194 -0.44105,-3.81759 -0.3211,-4.49887 0.55104,-3.12978 1.89149,2.96924 6.17341,4.44634 14.71293,5.07541 10.13205,0.74638 14.5547,2.53179 19.47586,7.86238 l 3.82662,4.14497 0.0119,-2.91639 c 0.017,-4.17061 2.2673,-12.06007 5.48507,-19.23023 l 2.77616,-6.18616 4.29833,0 c 2.36409,0 5.49492,0.45494 6.9574,1.01097 l 2.65906,1.01097 -2.89114,3.29283 c -4.60848,5.24877 -7.11018,9.87123 -8.75036,16.16832 -0.84066,3.2275 -1.34599,6.05067 -1.12296,6.27371 0.22304,0.22303 2.9062,-1.63132 5.9626,-4.12079 4.84484,-3.94618 10.56912,-6.61221 14.2363,-6.63043 0.61729,-0.003 4.64714,1.14503 8.95521,2.55132 4.35166,1.42053 8.85274,2.30093 10.12764,1.98095 2.92873,-0.73506 2.93582,0.77233 0.0278,5.90642 -3.45001,6.09093 -7.40126,7.88517 -17.0904,7.76065 l -8.14259,-0.10465 5.9336,2.41285 c 3.83544,1.55965 7.90192,4.33176 11.5,7.83952 3.06152,2.98467 6.9164,6.11684 8.5664,6.96038 l 3,1.53372 -4.5,2.05467 c -11.45652,5.23096 -23.82793,0.68978 -33.74691,-12.38752 -3.00937,-3.96758 -4.33044,-5.16323 -3.88248,-3.51389 0.37345,1.375 1.35683,4.975 2.18528,8 2.25421,8.23097 2.91946,19.85004 1.48005,25.85017 -0.68029,2.8358 -1.60015,5.3805 -2.04412,5.65489 -0.44398,0.27439 -3.07485,-1.29356 -5.84638,-3.48433 z M 322.06306,90.574804 c -3.89521,-1.89009 -5.4202,-6.05675 -5.4202,-14.8094 0,-5.32487 0.52527,-9.16113 1.51693,-11.07878 3.02402,-5.84782 3.89165,-5.96764 43.18341,-5.96353 34.01637,0.004 35.96279,0.1032 39.07459,2.00046 4.25627,2.59505 5.22507,5.39973 5.22507,15.12664 0,8.43379 -0.87911,11.2716 -4.36704,14.09692 -1.93855,1.57029 -5.55086,1.72363 -39.63296,1.68232 -23.08982,-0.028 -38.29921,-0.43324 -39.5798,-1.05463 z"
       id="path4694"
       inkscape:connector-curvature="0" />
  </g>
</svg>
