<?xml version="1.0" encoding="UTF-8" standalone="no"?>
<!-- Created with Inkscape (http://www.inkscape.org/) -->

<svg
   xmlns:dc="http://purl.org/dc/elements/1.1/"
   xmlns:cc="http://creativecommons.org/ns#"
   xmlns:rdf="http://www.w3.org/1999/02/22-rdf-syntax-ns#"
   xmlns:svg="http://www.w3.org/2000/svg"
   xmlns="http://www.w3.org/2000/svg"
   xmlns:sodipodi="http://sodipodi.sourceforge.net/DTD/sodipodi-0.dtd"
   xmlns:inkscape="http://www.inkscape.org/namespaces/inkscape"
   width="235pt"
   height="235pt"
   viewBox="0 0 293.75 293.75001"
   id="svg4134"
   version="1.1"
   inkscape:version="0.91 r13725"
   sodipodi:docname="mental health.svg">
  <defs
     id="defs4136" />
  <sodipodi:namedview
     id="base"
     pagecolor="#ffffff"
     bordercolor="#666666"
     borderopacity="1.0"
     inkscape:pageopacity="0.0"
     inkscape:pageshadow="2"
     inkscape:zoom="0.98994949"
     inkscape:cx="219.74448"
     inkscape:cy="70.421223"
     inkscape:document-units="px"
     inkscape:current-layer="layer1"
     showgrid="false"
     fit-margin-top="0"
     fit-margin-left="0"
     fit-margin-right="0"
     fit-margin-bottom="0"
     units="pt"
     inkscape:window-width="1855"
     inkscape:window-height="1056"
     inkscape:window-x="1985"
     inkscape:window-y="24"
     inkscape:window-maximized="1" />
  <metadata
     id="metadata4139">
    <rdf:RDF>
      <cc:Work
         rdf:about="">
        <dc:format>image/svg+xml</dc:format>
        <dc:type
           rdf:resource="http://purl.org/dc/dcmitype/StillImage" />
        <dc:title></dc:title>
      </cc:Work>
    </rdf:RDF>
  </metadata>
  <g
     inkscape:label="Capa 1"
     inkscape:groupmode="layer"
     id="layer1"
     transform="translate(-19.675519,-14.112178)">
    <path
       style="fill:#000000;stroke:#000000;stroke-width:7;stroke-miterlimit:4;stroke-dasharray:none;stroke-opacity:1;fill-opacity:1"
       d="m 71.172931,288.83294 c 0,-38.8359 -3.74277,-54.32381 -18.9678,-78.49034 -18.07518,-28.69054 -24.26301,-51.97297 -21.97183,-82.67153 3.92115,-52.537804 30.94379,-90.432784 74.669729,-104.712474 17.03599,-5.56348 24.53013,-6.56589 48.76991,-6.52339 24.74569,0.0434 34.09229,1.46127 52.12966,7.90808 37.03513,13.23687 61.06931,44.63486 68.85158,89.946954 1.47711,8.60044 2.02904,9.77599 15.50482,33.02312 7.68525,13.25788 14.26042,25.54141 14.61149,27.29674 1.88321,9.41605 -2.3256,14.76375 -17.49255,22.22597 l -11.105,5.46372 0,17.07618 c 0,19.18856 -1.05775,25.06349 -6.28119,34.88686 -5.83973,10.98238 -17.59681,20.34139 -29.71881,23.65713 -2.59157,0.70887 -9.69518,1.17194 -16.75,1.09189 l -12.25,-0.139 0,14.99975 0,14.99975 -70,0 -70.000009,0 z"
       id="path4693"
       inkscape:connector-curvature="0"
       sodipodi:nodetypes="sssssssssscsssscccccs" />
    <path
       style="fill:#ffffff;fill-opacity:1"
       d="m 152.68375,212.50484 0,-4.8108 4.97508,-0.16428 4.97508,-0.16428 0,-12.50878 0,-12.50877 -3.54284,-0.3908 c -9.58672,-1.05747 -16.36619,-4.06163 -22.09575,-9.79119 -6.8713,-6.87129 -9.16372,-13.41421 -11.06518,-31.58168 -0.63979,-6.11289 -1.43312,-12.13635 -1.76296,-13.38546 -1.51827,-5.74979 -4.11996,-8.43957 -8.84909,-9.14875 l -2.43499,-0.36515 0,-4.84666 0,-4.84666 2.99483,0.35198 c 9.40483,1.10536 15.14727,6.4526 17.72905,16.50895 0.472,1.8385 1.38452,8.23503 2.02781,14.21452 1.64437,15.28444 3.22796,20.65641 7.57452,25.69479 3.39325,3.93334 11.98396,7.60086 17.86652,7.62754 l 1.85339,0.008 -0.14765,-27.14973 -0.14766,-27.14973 -2.41647,-0.17483 -2.41647,-0.17484 0,-4.80025 0,-4.80024 9.66588,0 9.66587,0 0,4.83293 0,4.83294 -2.27433,0 -2.27432,0 0,27.29187 0,27.29188 1.87058,0 c 5.54577,0 13.3341,-3.34214 17.05278,-7.31771 4.97312,-5.31667 6.58303,-10.44292 8.34493,-26.57187 1.59447,-14.59624 2.86882,-19.03595 6.95428,-24.22795 2.11089,-2.68264 7.6688,-5.42932 11.97461,-5.91778 l 3.26934,-0.37088 0,4.77667 0,4.77666 -2.94446,0.69944 c -6.41366,1.52352 -7.65911,4.3713 -9.57634,21.89686 -1.91379,17.49415 -4.35618,24.83934 -10.4375,31.38955 -5.14133,5.53773 -13.83227,9.51807 -22.55194,10.32847 l -3.95628,0.3677 0,12.71142 0,12.71142 4.83294,0 4.83293,0 0,4.83293 0,4.83294 -14.78309,0 -14.7831,0 0,-4.8108 z"
       id="path4743"
       inkscape:connector-curvature="0" />
  </g>
</svg>
