<?xml version="1.0" encoding="UTF-8" standalone="no"?>
<svg
   xmlns:dc="http://purl.org/dc/elements/1.1/"
   xmlns:cc="http://creativecommons.org/ns#"
   xmlns:rdf="http://www.w3.org/1999/02/22-rdf-syntax-ns#"
   xmlns:svg="http://www.w3.org/2000/svg"
   xmlns="http://www.w3.org/2000/svg"
   version="1.1"
   id="svg2"
   viewBox="0 0 383.71216 383.71216"
   height="108.2921mm"
   width="108.2921mm">
  <defs
     id="defs4" />
  <metadata
     id="metadata7">
    <rdf:RDF>
      <cc:Work
         rdf:about="">
        <dc:format>image/svg+xml</dc:format>
        <dc:type
           rdf:resource="http://purl.org/dc/dcmitype/StillImage" />
        <dc:title></dc:title>
      </cc:Work>
    </rdf:RDF>
  </metadata>
  <g
     transform="translate(-87.7865,-293.36267)"
     id="layer1">
    <g
       transform="translate(-2.0203048,-12.121831)"
       id="g4155">
      <rect
         style="opacity:1;fill:#000000;fill-opacity:1;fill-rule:nonzero;stroke:none;stroke-width:5.9000001;stroke-miterlimit:4;stroke-dasharray:none;stroke-opacity:1"
         id="rect4138"
         width="21.428572"
         height="57.142857"
         x="180"
         y="318.07648" />
      <rect
         style="opacity:1;fill:#000000;fill-opacity:1;fill-rule:nonzero;stroke:none;stroke-width:5.9000001;stroke-miterlimit:4;stroke-dasharray:none;stroke-opacity:1"
         id="rect4138-3"
         width="21.428572"
         height="57.142857"
         x="357.85715"
         y="318.07648" />
    </g>
    <g
       transform="matrix(1.090955,0,0,1.090955,-25.434892,-44.133071)"
       id="g4146">
      <path
         style="color:#000000;font-style:normal;font-variant:normal;font-weight:normal;font-stretch:normal;font-size:medium;line-height:normal;font-family:sans-serif;text-indent:0;text-align:start;text-decoration:none;text-decoration-line:none;text-decoration-style:solid;text-decoration-color:#000000;letter-spacing:normal;word-spacing:normal;text-transform:none;direction:ltr;block-progression:tb;writing-mode:lr-tb;baseline-shift:baseline;text-anchor:start;white-space:normal;clip-rule:nonzero;display:inline;overflow:visible;visibility:visible;opacity:1;isolation:auto;mix-blend-mode:normal;color-interpolation:sRGB;color-interpolation-filters:linearRGB;solid-color:#000000;solid-opacity:1;fill:#000000;fill-opacity:1;fill-rule:nonzero;stroke:none;stroke-width:5.9000001;stroke-linecap:butt;stroke-linejoin:miter;stroke-miterlimit:4;stroke-dasharray:none;stroke-dashoffset:0;stroke-opacity:1;color-rendering:auto;image-rendering:auto;shape-rendering:auto;text-rendering:auto;enable-background:accumulate"
         d="m 153.21484,340.83984 c -9.89327,0 -17.95117,8.0579 -17.95117,17.95118 l 0,252.85742 c 0,9.89327 8.0579,17.94922 17.95117,17.94922 l 252.85743,0 c 9.89327,0 17.94921,-8.05595 17.94921,-17.94922 l 0,-252.85742 c 0,-9.89328 -8.05594,-17.95118 -17.94921,-17.95118 z m 11.9892,19.03237 228.87884,0 c 6.08882,0 10.90623,4.81918 10.90623,10.90801 l 0,228.87883 c 0,6.08882 -4.81741,10.90624 -10.90623,10.90624 l -228.87884,0 c -6.08882,0 -10.908,-4.81742 -10.908,-10.90624 l 0,-228.87883 c 0,-6.08883 4.81918,-10.90801 10.908,-10.90801 z"
         id="rect4136" />
      <g
         id="g4175"
         transform="matrix(-0.52683753,1.1035481,-1.1035481,-0.52683753,978.04771,312.20526)">
        <path
           transform="matrix(-0.72689338,0.33744643,-0.33744643,-0.72689338,841.786,775.22351)"
           d="m 326.26589,557.80706 -78.24608,0 39.12304,-67.7631 z"
           id="path4168"
           style="opacity:1;fill:#000000;fill-opacity:1;fill-rule:nonzero;stroke:none;stroke-width:13.60000038;stroke-miterlimit:4;stroke-dasharray:none;stroke-opacity:1" />
        <path
           id="path4170"
           d="m 458.85723,469.53741 c -0.76662,-1.62226 -24.22834,-54.00855 -25.09115,-55.55141 -19.56329,-34.98263 -57.76026,-51.89493 -94.54321,-34.51265 -38.40519,18.14889 -47.89304,60.68515 -29.74414,99.09035 l 18.56309,38.88344 18.34758,-8.7592 -17.88044,-37.45354 c -13.0455,-27.60497 -7.65015,-59.16054 19.95503,-72.20556 26.274,-12.41596 51.9814,0.26162 66.16839,25.0655 0.71861,1.2564 24.03947,53.35379 24.66837,54.68466 z"
           style="opacity:1;fill:#000000;fill-opacity:1;fill-rule:nonzero;stroke:none;stroke-width:13.60000038;stroke-miterlimit:4;stroke-dasharray:none;stroke-opacity:1" />
      </g>
    </g>
    <g
       id="text4179"
       style="font-style:normal;font-weight:normal;font-size:52.62563324px;line-height:125%;font-family:Sans;letter-spacing:0px;word-spacing:0px;fill:#000000;fill-opacity:1;stroke:none;stroke-width:1px;stroke-linecap:butt;stroke-linejoin:miter;stroke-opacity:1" />
  </g>
</svg>
