<?xml version="1.0" encoding="UTF-8" standalone="no"?>
<!-- Created with Inkscape (http://www.inkscape.org/) -->

<svg
   xmlns:dc="http://purl.org/dc/elements/1.1/"
   xmlns:cc="http://creativecommons.org/ns#"
   xmlns:rdf="http://www.w3.org/1999/02/22-rdf-syntax-ns#"
   xmlns:svg="http://www.w3.org/2000/svg"
   xmlns="http://www.w3.org/2000/svg"
   xmlns:sodipodi="http://sodipodi.sourceforge.net/DTD/sodipodi-0.dtd"
   xmlns:inkscape="http://www.inkscape.org/namespaces/inkscape"
   width="29.139816mm"
   height="31.485415mm"
   viewBox="0 0 29.139816 31.485415"
   version="1.1"
   id="svg8"
   inkscape:version="0.92.3 (2405546, 2018-03-11)"
   sodipodi:docname="Alcohol.svg">
  <defs
     id="defs2" />
  <sodipodi:namedview
     id="base"
     pagecolor="#ffffff"
     bordercolor="#666666"
     borderopacity="1.0"
     inkscape:pageopacity="0.0"
     inkscape:pageshadow="2"
     inkscape:zoom="0.35"
     inkscape:cx="41.044459"
     inkscape:cy="-279.39985"
     inkscape:document-units="mm"
     inkscape:current-layer="layer1"
     showgrid="false"
     fit-margin-top="0"
     fit-margin-left="0"
     fit-margin-right="0"
     fit-margin-bottom="0"
     showborder="true"
     inkscape:window-width="1853"
     inkscape:window-height="1025"
     inkscape:window-x="67"
     inkscape:window-y="27"
     inkscape:window-maximized="1" />
  <metadata
     id="metadata5">
    <rdf:RDF>
      <cc:Work
         rdf:about="">
        <dc:format>image/svg+xml</dc:format>
        <dc:type
           rdf:resource="http://purl.org/dc/dcmitype/StillImage" />
        <dc:title></dc:title>
      </cc:Work>
    </rdf:RDF>
  </metadata>
  <g
     inkscape:label="Capa 1"
     inkscape:groupmode="layer"
     id="layer1"
     transform="translate(-94.973654,-43.423374)">
    <path
       style="fill:#000000;stroke-width:0.26458332"
       d="m 95.552395,74.296425 c -0.563578,-0.599903 -0.575287,-0.769803 -0.575287,-8.347515 0,-8.906867 -0.222442,-7.981115 2.902738,-12.080519 2.670494,-3.502973 3.325734,-5.4 2.124344,-6.150281 -0.710177,-0.443514 -0.710177,-1.651107 0,-1.836823 0.38937,-0.101822 0.52917,-0.360896 0.52917,-0.980647 0,-1.210778 0.41356,-1.477266 2.29256,-1.477266 1.80434,0 2.20535,0.309555 2.20535,1.702398 0,0.423154 0.14759,0.678852 0.39184,0.678852 0.21551,0 0.47158,0.317744 0.56905,0.706098 0.13551,0.539917 0.0433,0.814547 -0.39183,1.16689 -1.21705,0.985503 -0.56244,2.895747 2.21421,6.461387 2.93087,3.763682 2.77298,3.089095 2.77298,11.848211 v 7.622716 l -0.64943,0.64943 -0.64943,0.649433 h -6.58049 c -6.536408,0 -6.584341,-0.0041 -7.155775,-0.612364 z m 9.728415,-4.40704 c 2.28577,-1.166113 3.52894,-3.842107 2.93503,-6.317806 -1.05683,-4.405341 -6.71143,-5.76512 -9.720839,-2.337597 -2.447867,2.787966 -1.546268,6.921173 1.906069,8.737987 1.14308,0.601559 3.6209,0.559625 4.87974,-0.08258 z m 11.30394,4.843015 c -0.28749,-0.287481 -0.20113,-1.280536 0.14111,-1.622777 0.17462,-0.174625 0.65087,-0.3175 1.05833,-0.3175 h 0.74083 v -4.101042 c 0,-3.416338 -0.0644,-4.101041 -0.38573,-4.101041 -0.6971,0 -2.453,-1.936801 -2.75852,-3.042708 -0.16081,-0.582084 -0.29304,-2.874037 -0.29385,-5.093229 l -0.002,-4.034896 h 4.51427 4.51428 l -0.0825,4.850138 c -0.0816,4.799407 -0.09,4.859884 -0.794,5.782061 -0.39133,0.512559 -1.07593,1.082879 -1.52136,1.267379 l -0.80985,0.335454 v 4.068942 4.068942 h 0.76138 c 0.9619,0 1.46496,0.585427 1.24752,1.451771 -0.16593,0.661128 -0.18384,0.664895 -3.16045,0.664895 -1.64646,0 -3.07294,-0.07937 -3.16995,-0.176389 z m 4.78454,-12.961482 c 0.54786,-0.598156 0.59532,-0.901896 0.59532,-3.810215 v -3.160246 h -2.24896 -2.24896 v 3.116129 c 0,2.433886 0.0931,3.249032 0.42518,3.723164 0.85903,1.226426 2.42033,1.285318 3.47742,0.131168 z"
       id="path3724"
       inkscape:connector-curvature="0" />
  </g>
</svg>
