<?xml version="1.0" encoding="UTF-8" standalone="no"?>
<!-- Created with Inkscape (http://www.inkscape.org/) -->

<svg
   xmlns:dc="http://purl.org/dc/elements/1.1/"
   xmlns:cc="http://creativecommons.org/ns#"
   xmlns:rdf="http://www.w3.org/1999/02/22-rdf-syntax-ns#"
   xmlns:svg="http://www.w3.org/2000/svg"
   xmlns="http://www.w3.org/2000/svg"
   version="1.2"
   width="128"
   height="128"
   id="svg2">
  <metadata
     id="metadata7">
    <rdf:RDF>
      <cc:Work
         rdf:about="">
        <dc:format>image/svg+xml</dc:format>
        <dc:type
           rdf:resource="http://purl.org/dc/dcmitype/StillImage" />
        <dc:title></dc:title>
      </cc:Work>
    </rdf:RDF>
  </metadata>
  <defs
     id="defs8" />
  <path
     d="m 64.092922,0 c -3.65865,0 -6.722167,1.033791 -9.036661,3.128792 -2.470401,2.0363673 -3.647186,4.5238789 -3.647186,7.401678 0,3.025269 1.176785,5.522414 3.647186,7.54176 2.328268,1.972098 5.391787,2.918647 9.03666,2.918647 3.482056,0 6.56391,-0.946549 9.036661,-2.918647 2.470404,-2.026913 3.71688,-4.524059 3.71688,-7.54176 0,-2.8777991 -1.269709,-5.3653107 -3.740111,-7.401678 C 70.624399,1.033791 67.56349,0 64.092922,0 z M 49.643557,22.34514 c -4.524161,0 -8.390023,1.377033 -11.661706,4.039388 -3.283316,2.783057 -4.97126,6.015124 -4.971325,9.619851 l 0,33.319231 c 0,1.248786 0.503807,2.378599 1.672596,3.292227 1.082782,0.902198 2.445783,1.307554 3.972414,1.307554 1.756685,0 3.098705,-0.405356 4.181488,-1.307554 0.938733,-0.913628 1.44029,-2.041532 1.44029,-3.292227 l 0,-29.793505 2.927041,0 0,82.515875 c 0,1.58778 0.838136,3.04941 2.439202,4.17949 1.503361,1.24879 3.251741,1.77453 5.273321,1.77453 2.188898,0 3.95817,-0.52383 5.389473,-1.77453 1.515062,-1.13008 2.206898,-2.5898 2.206898,-4.17949 l 0,-47.842404 3.252269,0 0,47.842404 c 0,1.58778 0.761553,3.04941 2.183666,4.17949 C 69.380552,127.47426 71.238,128 73.50127,128 c 1.92394,0 3.618944,-0.52383 5.133939,-1.77453 1.419735,-1.13008 2.067513,-2.5898 2.067513,-4.17949 l 0,-82.515875 3.043193,0 0,29.793505 c 0,1.248786 0.476026,2.378599 1.486753,3.292227 1.203757,0.902198 2.617654,1.307554 4.135027,1.307554 1.779955,0 3.124239,-0.405356 4.135028,-1.307554 0.913215,-0.913628 1.486751,-2.041532 1.486751,-3.292227 l 0,-33.319231 c 0,-3.595161 -1.595149,-6.848314 -4.878403,-9.619851 -3.202004,-2.673785 -7.02372,-4.039388 -11.731399,-4.039388 z m 14.528936,16.430888 c 0.249269,0 0.504478,0.114526 0.646302,0.334641 l 8.578208,13.326732 c 2.922096,4.535668 1.179094,10.312668 -3.916991,12.913358 -5.096082,2.600736 -11.60997,1.03168 -14.532031,-3.503921 -1.94382,-3.017185 -1.804451,-6.591596 0,-9.409437 l 8.597792,-13.326732 c 0.14181,-0.22007 0.377449,-0.334641 0.62672,-0.334641 z m -3.677569,12.777634 c -0.83904,0 -1.498462,0.242391 -1.981155,0.728522 -0.478154,0.481684 -0.708704,1.14834 -0.708704,1.991253 0,0.842959 0.23055,1.505145 0.708704,1.991276 0.482693,0.486153 1.142115,0.728522 1.981155,0.728522 0.83904,0 1.503001,-0.242369 1.981155,-0.728522 0.482659,-0.486131 0.724779,-1.148317 0.724812,-1.991276 -3.3e-5,-0.842913 -0.242153,-1.509569 -0.724812,-1.991253 -0.478154,-0.486131 -1.142115,-0.728522 -1.981155,-0.728522 z m 6.201176,0 -6.313924,10.361106 1.497946,0 6.330031,-10.361106 z m -6.201176,1.117058 c 0.320283,0 0.564999,0.144393 0.74092,0.420918 0.175922,0.276525 0.273783,0.673392 0.27382,1.181799 -3.7e-5,0.512921 -0.09789,0.900851 -0.27382,1.181822 -0.171408,0.276525 -0.416132,0.420918 -0.74092,0.420918 -0.324784,0 -0.581104,-0.144393 -0.757026,-0.420918 -0.175921,-0.280971 -0.257711,-0.668901 -0.257711,-1.181822 0,-0.508407 0.08179,-0.905274 0.257711,-1.181799 0.175922,-0.276503 0.432242,-0.420918 0.757026,-0.420918 z m 7.586375,3.804452 c -0.83904,2.2e-5 -1.493994,0.242392 -1.981155,0.728522 -0.482693,0.481684 -0.724813,1.152808 -0.724813,1.991276 0,0.842936 0.24212,1.500676 0.724813,1.991276 0.487161,0.48613 1.142114,0.728522 1.981155,0.728522 0.839005,0 1.514569,-0.242392 1.997262,-0.728522 0.482656,-0.4906 0.708671,-1.14834 0.708705,-1.991276 -3.4e-5,-0.842936 -0.226049,-1.509592 -0.708705,-1.991276 -0.482693,-0.481662 -1.158257,-0.7285 -1.997262,-0.728522 z m 0,1.133249 c 0.320246,0 0.569467,0.128225 0.74092,0.404727 0.175876,0.272079 0.273784,0.673392 0.273819,1.181822 -3.4e-5,0.512898 -0.0863,0.905297 -0.257711,1.181822 -0.171431,0.272056 -0.432277,0.404727 -0.757028,0.404727 -0.324819,0 -0.564999,-0.132716 -0.74092,-0.404727 -0.171409,-0.276525 -0.257712,-0.668924 -0.257712,-1.181822 0,-0.50843 0.08179,-0.909743 0.257712,-1.181822 0.175921,-0.276502 0.420603,-0.404727 0.74092,-0.404727 z"
     id="path4"
     style="fill:#006680;fill-opacity:1" />
</svg>
