<?xml version="1.0" encoding="UTF-8" standalone="no"?>
<!-- Created with Inkscape (http://www.inkscape.org/) -->

<svg
   xmlns:dc="http://purl.org/dc/elements/1.1/"
   xmlns:cc="http://creativecommons.org/ns#"
   xmlns:rdf="http://www.w3.org/1999/02/22-rdf-syntax-ns#"
   xmlns:svg="http://www.w3.org/2000/svg"
   xmlns="http://www.w3.org/2000/svg"
   version="1.1"
   width="128"
   height="128"
   id="svg2">
  <metadata
     id="metadata12">
    <rdf:RDF>
      <cc:Work
         rdf:about="">
        <dc:format>image/svg+xml</dc:format>
        <dc:type
           rdf:resource="http://purl.org/dc/dcmitype/StillImage" />
        <dc:title></dc:title>
      </cc:Work>
    </rdf:RDF>
  </metadata>
  <defs
     id="defs10" />
  <g
     transform="matrix(0.28625136,0,0,0.19361821,-26.934535,-21.826994)"
     id="g4"
     style="fill:#006680;fill-opacity:1">
    <path
       d="m 438.07993,406.15222 c -0.69635,10.19631 -9.18003,18.00732 -19.24195,18.00732 -0.45355,0 -0.87273,-0.0168 -1.32703,-0.042 l -64.36103,-4.36744 c -6.83597,-0.46194 -12.90839,-4.51023 -15.95644,-10.64145 L 325.55943,385.80161 314.44,485.43815 c -0.21837,1.91496 -0.60472,3.76272 -1.08346,5.56849 l 54.38309,51.54425 c 3.84748,3.66194 6.02204,8.7181 6.02204,14.01782 l 0,77.27019 c 0,10.65824 -8.63334,19.29998 -19.30915,19.29998 -10.65825,0 -19.29998,-8.64174 -19.29998,-19.29998 l 0,-68.9812 -48.99938,-46.43694 c -2.3853,0.64672 -4.85458,1.05827 -7.38266,1.22548 l -18.19209,73.70064 c -1.22624,4.98896 -4.39264,9.25562 -8.77688,11.90968 l -74.8177,45.10227 c -3.116,1.88976 -6.55956,2.78845 -9.95273,2.78845 -6.54277,0 -12.92596,-3.32598 -16.5543,-9.33961 -5.5013,-9.13804 -2.56167,-21.00574 6.56797,-26.49864 l 67.96416,-40.97839 18.41046,-74.57413 c -4.51023,-7.15589 -6.74434,-15.81519 -5.72807,-24.87764 l 15.47923,-138.85955 -36.92171,16.10915 -4.30025,48.08389 c -0.89869,10.03673 -9.32282,17.58737 -19.20836,17.58737 -0.57113,0 -1.15065,-0.0252 -1.73858,-0.0756 -10.62465,-0.95748 -18.46085,-10.33909 -17.51177,-20.95534 l 5.32492,-59.48124 c 0.62152,-7.02151 5.03936,-13.15273 11.50654,-15.97477 l 83.91374,-36.60255 c 2.99002,-1.78898 6.21521,-3.1916 9.63357,-4.12388 2.69606,-1.07506 5.48451,-1.46141 8.22256,-1.29344 2.04934,-0.10078 4.13227,-0.0924 6.2404,0.15119 17.02464,1.89815 30.20257,14.59734 33.51175,30.50492 l 34.94796,70.0219 53.34162,3.61154 c 10.62389,0.72308 18.66166,9.93671 17.94699,20.56975 z M 312.41082,261.63225 c 23.87563,0 37.97879,-24.59207 37.97879,-54.92062 0,-30.32855 -17.00192,-54.91223 -37.97879,-54.91223 -20.97633,0 -37.98511,24.58368 -37.98511,54.91223 0,30.32855 17.00878,54.92062 37.98511,54.92062 z m 212.65762,97.0996 -6.57636,-1.83937 c -11.78447,-3.30918 -24.01255,3.56955 -27.33089,15.36165 L 410.74217,659.22887 114.43622,683.66976 C 102.93808,684.61884 94.094,694.23562 94.094,705.76736 l 0,6.82757 c 0,12.24564 9.91914,22.16478 22.16478,22.16478 l 356.8531,0 67.73739,-350.47907 c 2.18449,-11.321 -4.68584,-22.44119 -15.78083,-25.54879 z"
       id="path6"
       style="fill:#006680;fill-opacity:1" />
  </g>
</svg>
