<?xml version="1.0" encoding="UTF-8" standalone="no"?>
<!-- Created with Inkscape (http://www.inkscape.org/) -->

<svg
   xmlns:dc="http://purl.org/dc/elements/1.1/"
   xmlns:cc="http://creativecommons.org/ns#"
   xmlns:rdf="http://www.w3.org/1999/02/22-rdf-syntax-ns#"
   xmlns:svg="http://www.w3.org/2000/svg"
   xmlns="http://www.w3.org/2000/svg"
   version="1.2"
   width="128"
   height="128"
   id="svg4158">
  <metadata
     id="metadata8">
    <rdf:RDF>
      <cc:Work
         rdf:about="">
        <dc:format>image/svg+xml</dc:format>
        <dc:type
           rdf:resource="http://purl.org/dc/dcmitype/StillImage" />
        <dc:title></dc:title>
      </cc:Work>
    </rdf:RDF>
  </metadata>
  <defs
     id="defs6" />
  <path
     d="M 59.380888,0.00155624 C 54.398562,-0.0266799 49.25795,0.32932768 44.063762,1.0687331 2.4993083,6.978231 4.0697908,29.380859 1.6277889,40.083462 -3.2376334,66.890362 27.711148,96.863547 27.710846,96.863547 L 25.921756,128 l 50.408411,0 3.860669,-14.34411 c 0,0 2.200694,3.2864 15.222964,4.26871 13.02288,0.9827 11.42507,-13.18278 11.42507,-13.18278 0,0 8.66297,-3.4009 8.66297,-5.963632 0,-2.559809 -5.11617,-5.869473 -5.11617,-5.869473 0,0 5.51512,0.907226 7.50162,-1.161339 1.98802,-2.068365 -2.41684,-9.573204 -2.41684,-9.573204 0,0 6.79006,-0.149957 10.79732,-4.080382 4.00746,-3.930325 -12.6178,-15.548812 -12.6178,-23.038465 C 121.89175,19.100798 94.257169,0.19920926 59.380888,0.00155624 z m -6.340286,11.45645676 13.841911,0 c 0.586571,0 1.03579,0.370856 1.03579,0.847464 l 0,6.057798 9.039615,0 c 2.928634,0 5.335884,1.918759 5.335884,4.300095 l 0,41.462958 c 0,2.381336 -2.40725,4.300095 -5.335884,4.300095 l -33.992721,0 c -2.928634,0 -5.304496,-1.918759 -5.304496,-4.300095 l 0,-41.462958 c 0,-2.381336 2.375862,-4.300095 5.304496,-4.300095 l 9.039616,0 0,-6.057798 c 0,-0.476608 0.449118,-0.847464 1.035789,-0.847464 z m 2.15086,2.205693 0,4.220192 9.540191,0 0,-4.220192 z m -11.258124,7.384639 c -1.657487,0 -3.019165,1.13625 -3.019165,2.552603 l 0,39.300176 c 0,1.416358 1.361678,2.552603 3.019165,2.552603 l 32.056439,0 c 1.657582,0 3.019165,-1.136245 3.019165,-2.552603 l 0,-39.300176 c 0,-1.416353 -1.361677,-2.552603 -3.019165,-2.552603 z m 3.269179,19.200597 25.518081,0 c 0.586571,0 1.019239,1.465138 1.019239,1.941758 0,0.476608 -0.432668,1.941757 -1.019239,1.941757 l -25.518081,0 c -0.58657,0 -1.086192,-1.373775 -1.067177,-1.941757 0.01901,-0.567982 0.480707,-1.941758 1.067177,-1.941758 z m 0,8.696066 25.518081,0 c 0.586571,0 1.019239,1.417211 1.019239,1.89382 0,0.476609 -0.432668,1.893818 -1.019239,1.893818 l -25.518081,0 c -0.58657,0 -1.067177,-1.417209 -1.067177,-1.893818 0,-0.476609 0.480707,-1.89382 1.067177,-1.89382 z m 0,8.40844 25.518081,0 c 0.586571,0 1.019239,1.513086 1.019239,1.989694 0,0.476609 -0.432668,1.989694 -1.019239,1.989694 l -25.518081,0 c -0.58657,0 -1.067177,-1.513085 -1.067177,-1.989694 0,-0.476608 0.480707,-1.989694 1.067177,-1.989694 z"
     id="path3833-2"
     style="fill:#006680;fill-opacity:1" />
</svg>
