<?xml version="1.0" encoding="UTF-8" standalone="no"?>
<svg
   xmlns:dc="http://purl.org/dc/elements/1.1/"
   xmlns:cc="http://creativecommons.org/ns#"
   xmlns:rdf="http://www.w3.org/1999/02/22-rdf-syntax-ns#"
   xmlns:svg="http://www.w3.org/2000/svg"
   xmlns="http://www.w3.org/2000/svg"
   version="1.1"
   id="svg2"
   viewBox="0 0 128 128"
   height="128"
   width="128">
  <g
     transform="translate(-277.44892,-381.71062)"
     id="layer1">
    <path
       d="m 328.00754,381.71063 26.82193,0 c 1.13662,0 2.00708,0.83326 2.00708,1.90415 l 0,13.61099 17.51637,0 c 5.67491,0 10.33952,4.31118 10.33952,9.66173 l 0,93.16141 c 0,5.35053 -4.66461,9.66172 -10.33952,9.66172 l -65.86882,0 c -5.67493,0 -10.27871,-4.31119 -10.27871,-9.66172 l 0,-93.16141 c 0,-5.35055 4.60378,-9.66173 10.27871,-9.66173 l 17.51635,0 0,-13.61099 c 0,-1.07089 0.87028,-1.90415 2.00709,-1.90415 z m 4.1678,4.95589 0,9.48218 18.48633,0 0,-9.48218 z m -21.81525,16.59223 c -3.21177,0 -5.85034,2.553 -5.85034,5.73536 l 0,88.30194 c 0,3.18236 2.63857,5.73535 5.85034,5.73535 l 62.11685,0 c 3.21195,0 5.85032,-2.55299 5.85032,-5.73535 l 0,-88.30194 c 0,-3.18236 -2.63857,-5.73536 -5.85032,-5.73536 z m -1.41613,29.65989 64.9491,0 c 1.13662,0 1.97502,7.78568 1.97502,8.85657 0,1.07089 -0.8384,8.85658 -1.97502,8.85658 l -64.9491,0 c -1.13662,0 -2.10476,-7.58041 -2.06791,-8.85658 0.0368,-1.27617 0.93149,-8.85657 2.06791,-8.85657 z m 0,24.03257 64.9491,0 c 1.13662,0 1.97502,7.67797 1.97502,8.74886 0,1.07087 -0.8384,8.74887 -1.97502,8.74887 l -64.9491,0 c -1.13662,0 -2.06791,-7.678 -2.06791,-8.74887 0,-1.07089 0.93149,-8.74886 2.06791,-8.74886 z m 0,23.38629 64.9491,0 c 1.13662,0 1.97502,7.89339 1.97502,8.96426 0,1.07089 -0.8384,8.9643 -1.97502,8.9643 l -64.9491,0 c -1.13662,0 -2.06791,-7.89341 -2.06791,-8.9643 0,-1.07087 0.93149,-8.96426 2.06791,-8.96426 z"
       id="path3833-2"
       style="fill:#006680;fill-opacity:1" />
  </g>
</svg>
