<?xml version="1.0" encoding="UTF-8" standalone="no"?>
<!-- Created with Inkscape (http://www.inkscape.org/) -->

<svg
   xmlns:dc="http://purl.org/dc/elements/1.1/"
   xmlns:cc="http://creativecommons.org/ns#"
   xmlns:rdf="http://www.w3.org/1999/02/22-rdf-syntax-ns#"
   xmlns:svg="http://www.w3.org/2000/svg"
   xmlns="http://www.w3.org/2000/svg"
   xmlns:sodipodi="http://sodipodi.sourceforge.net/DTD/sodipodi-0.dtd"
   xmlns:inkscape="http://www.inkscape.org/namespaces/inkscape"
   width="32.935814mm"
   height="31.069954mm"
   viewBox="0 0 32.935814 31.069954"
   version="1.1"
   id="svg8"
   inkscape:version="0.92.3 (2405546, 2018-03-11)"
   sodipodi:docname="Food.svg">
  <defs
     id="defs2" />
  <sodipodi:namedview
     id="base"
     pagecolor="#ffffff"
     bordercolor="#666666"
     borderopacity="1.0"
     inkscape:pageopacity="0.0"
     inkscape:pageshadow="2"
     inkscape:zoom="1.979899"
     inkscape:cx="191.87051"
     inkscape:cy="-14.539861"
     inkscape:document-units="mm"
     inkscape:current-layer="layer1"
     showgrid="false"
     fit-margin-top="0"
     fit-margin-left="0"
     fit-margin-right="0"
     fit-margin-bottom="0"
     showborder="true"
     inkscape:window-width="1853"
     inkscape:window-height="1025"
     inkscape:window-x="67"
     inkscape:window-y="27"
     inkscape:window-maximized="1" />
  <metadata
     id="metadata5">
    <rdf:RDF>
      <cc:Work
         rdf:about="">
        <dc:format>image/svg+xml</dc:format>
        <dc:type
           rdf:resource="http://purl.org/dc/dcmitype/StillImage" />
        <dc:title></dc:title>
      </cc:Work>
    </rdf:RDF>
  </metadata>
  <g
     inkscape:label="Capa 1"
     inkscape:groupmode="layer"
     id="layer1"
     transform="translate(-96.443831,-42.291068)">
    <path
       style="fill:#000000;stroke-width:0.26458332"
       d="m 99.774751,73.151744 c -1.42732,-0.353817 -2.79242,-1.24642 -3.08563,-2.017609 -0.13491,-0.354851 -0.24529,-5.036106 -0.24529,-10.402788 0,-9.745196 7.5e-4,-9.758452 0.59531,-10.423873 0.3289,-0.368107 2.07535,-1.304638 3.902599,-2.092767 1.81902,-0.784575 4.75242,-2.050515 6.51868,-2.813201 1.76626,-0.762686 3.43314,-1.344512 3.70417,-1.292946 0.39097,0.07439 0.50906,0.373316 0.57159,1.446963 l 0.0788,1.353207 -1.00486,-0.264652 c -0.94591,-0.249129 -1.335,-0.119174 -6.63311,2.215457 -6.104399,2.68993 -6.336989,2.915768 -3.38299,3.284846 1.81186,0.226377 2.34132,0.06091 8.52432,-2.664083 l 5.24943,-2.313543 0.75361,-1.658144 c 1.03538,-2.27808 2.01488,-3.418319 2.73901,-3.188489 0.95167,0.30205 0.89565,0.86642 -0.31595,3.18268 -0.6885,1.316248 -1.24297,2.785784 -1.34701,3.570066 -0.0973,0.733132 -0.3338,1.463247 -0.52566,1.622477 -0.57357,0.476019 -1.55803,0.190938 -1.65314,-0.478715 -0.0465,-0.327422 -0.11803,-0.595312 -0.15895,-0.595312 -0.33513,0 -1.74087,0.621412 -1.74087,0.76956 0,0.103744 0.68461,0.393966 1.52135,0.644936 2.32358,0.696924 3.62319,1.514429 3.71955,2.339743 0.13193,1.129927 -0.68163,1.152463 -3.49978,0.09694 -2.79893,-1.048323 -4.90568,-1.236254 -5.9171,-0.527831 -1.40031,0.980816 -1.85037,3.242066 -1.3941,7.004328 0.65753,5.421745 2.41927,9.104745 4.93856,10.324315 1.33067,0.644165 2.42009,0.563203 4.12494,-0.306546 0.996,-0.508119 1.01324,-0.507992 2.03855,0.01508 0.56873,0.290145 1.49146,0.598623 2.05052,0.685509 3.47744,0.540441 6.72429,-4.890791 7.38746,-12.357534 0.33871,-3.813565 -0.56842,-6.481157 -2.55291,-7.507381 -1.05263,-0.544337 -3.32924,-0.481545 -5.141,0.141792 -1.9424,0.668284 -2.4225,0.664496 -2.78991,-0.02201 -0.44862,-0.838255 0.24174,-1.399577 2.57215,-2.091401 4.81464,-1.429308 8.46831,0.170902 9.6583,4.230078 0.56089,1.913256 0.41523,6.844974 -0.28302,9.582086 -1.42589,5.589489 -3.27073,8.434829 -6.35841,9.806699 -1.34846,0.599133 -3.3838,0.51731 -4.75372,-0.191098 -0.74567,-0.385604 -0.89812,-0.387282 -1.61271,-0.01775 -1.86903,0.966515 -4.31468,0.750628 -6.23137,-0.550071 l -1.00774,-0.683871 -2.64453,1.129204 c -2.81087,1.200235 -4.52308,1.473271 -6.369159,1.015648 z m 22.002929,-6.08912 c -0.57483,-0.334807 -0.59914,-1.123961 -0.0487,-1.580786 0.22788,-0.18912 0.59846,-0.699942 0.82352,-1.135159 0.57501,-1.111935 1.14809,-4.603815 0.95778,-5.835935 -0.1791,-1.159625 0.33416,-1.795675 1.25477,-1.554931 1.89513,0.495589 0.84481,7.857416 -1.38923,9.737235 -0.87072,0.732662 -0.94519,0.749883 -1.59814,0.369576 z"
       id="path3756"
       inkscape:connector-curvature="0" />
  </g>
</svg>
