<?xml version="1.0" encoding="UTF-8" standalone="no"?>
<!-- Created with Inkscape (http://www.inkscape.org/) -->

<svg
   xmlns:dc="http://purl.org/dc/elements/1.1/"
   xmlns:cc="http://creativecommons.org/ns#"
   xmlns:rdf="http://www.w3.org/1999/02/22-rdf-syntax-ns#"
   xmlns:svg="http://www.w3.org/2000/svg"
   xmlns="http://www.w3.org/2000/svg"
   version="1.2"
   width="128"
   height="128"
   viewBox="0 0 128 128"
   id="svg2">
  <metadata
     id="metadata87">
    <rdf:RDF>
      <cc:Work
         rdf:about="">
        <dc:format>image/svg+xml</dc:format>
        <dc:type
           rdf:resource="http://purl.org/dc/dcmitype/StillImage" />
        <dc:title></dc:title>
      </cc:Work>
    </rdf:RDF>
  </metadata>
  <defs
     id="defs4" />
  <g
     transform="translate(-2.0410283,-3.6853808)"
     id="layer1">
    <g
       transform="matrix(0.78343326,0,0,0.78343326,-225.45102,-24.806686)"
       id="g5117">
      <path
         d="m 394.06483,108.37226 c -2.78922,-1.40796 -8.12757,-3.20577 -11.97651,-4.03335 -4.46932,-0.96092 -14.44761,-1.04854 -19.14399,-0.16811 -14.41368,2.70223 -27.27461,11.70845 -34.88501,24.42919 -3.82924,6.40057 -6.89081,16.27151 -6.89585,22.23324 l -0.001,1.55051 -15.38931,0 -15.38931,0 0.18696,-4.81474 c 0.534,-13.75192 5.37852,-28.31121 13.43427,-40.37415 3.45593,-5.17505 6.05201,-8.35073 10.29591,-12.594626 11.97851,-11.978512 27.14268,-19.835252 44.11564,-22.856851 5.07918,-0.904215 16.60722,-1.241662 22.31492,-0.653199 9.53802,0.983373 19.22894,3.854719 28.07556,8.31858 24.33665,12.279873 40.86058,35.597216 44.38144,62.627766 0.27597,2.11871 0.50176,5.31358 0.50176,7.0997 l 0,3.24752 -15.29341,0 -15.29341,0 -0.19138,-2.69299 c -0.55935,-7.87062 -3.69221,-16.4893 -8.75571,-24.08749 -2.16987,-3.25607 -8.94997,-10.35352 -11.74617,-12.29597 -5.06203,-3.63322 -5.46014,-3.47869 -8.34509,-4.93503 z"
         id="path5109"
         style="fill:#f9d91b;fill-opacity:1" />
      <path
         d="m 423.19426,149.88292 c -0.51572,-5.6911 -2.22406,-11.90273 -4.76443,-17.32374 -1.80974,-3.86189 -5.61781,-9.47795 -8.58733,-12.66443 l -2.45741,-2.63694 11.21602,-11.21249 c 10.22057,-10.217353 11.2666,-11.171125 11.78588,-10.746413 1.42546,1.165883 6.96499,8.005543 9.25227,11.423793 8.52785,12.74448 12.98051,26.10584 13.88916,41.67803 l 0.23333,3.99868 -15.16973,0 -15.16973,0 z"
         id="path5053-6"
         style="fill:#bf1200;fill-opacity:1" />
      <path
         d="m 290.60015,148.72718 c 0.71866,-11.89826 3.28421,-21.78583 8.32154,-32.0711 8.11609,-16.57145 20.81902,-29.274386 37.39047,-37.390469 10.28525,-5.037335 20.17281,-7.602878 32.07108,-8.321544 l 3.67227,-0.221808 0,16.127727 0.16487,16.457454 -4.49164,0.22632 c -4.97572,0.25071 -7.87083,0.9154 -11.83119,2.23023 -17.08879,5.67343 -29.9766,19.93467 -33.90726,37.52067 -0.45839,2.05085 -0.93326,4.94065 -1.05527,6.42179 l -0.22183,2.69299 -15.16742,0 -15.16743,0 z"
         id="path5053-6-3"
         style="fill:#6db911;fill-opacity:1" />
      <path
         d="m 371.30285,165.29224 c -2.63757,-0.39187 -4.27293,-1.85669 -5.17257,-4.63331 -0.48235,-1.48856 -0.58928,-2.47423 -0.40745,-3.75462 0.18543,-1.30579 3.81872,-8.87156 14.6568,-30.52023 7.92563,-15.83122 15.89886,-31.663288 17.71828,-35.182389 l 3.30805,-6.398359 -1.62757,5.851104 c -2.34391,8.426302 -15.94255,55.433584 -18.29186,63.230694 -1.09351,3.62923 -2.3513,7.17158 -2.79507,7.87182 -0.86652,1.36735 -2.96821,2.9872 -4.53976,3.49899 -0.53297,0.1736 -1.81495,0.18989 -2.84885,0.0363 z"
         id="path5053"
         style="fill:#000000" />
    </g>
  </g>
</svg>
