<?xml version="1.0" encoding="UTF-8" standalone="no"?>
<!-- Created with Inkscape (http://www.inkscape.org/) -->

<svg
   xmlns:dc="http://purl.org/dc/elements/1.1/"
   xmlns:cc="http://creativecommons.org/ns#"
   xmlns:rdf="http://www.w3.org/1999/02/22-rdf-syntax-ns#"
   xmlns:svg="http://www.w3.org/2000/svg"
   xmlns="http://www.w3.org/2000/svg"
   xmlns:sodipodi="http://sodipodi.sourceforge.net/DTD/sodipodi-0.dtd"
   xmlns:inkscape="http://www.inkscape.org/namespaces/inkscape"
   version="1.2"
   width="168.32031"
   height="83.913132"
   viewBox="0 0 168.32031 83.913131"
   id="svg2"
   inkscape:version="0.91 r13725"
   sodipodi:docname="gauge_five_values.svg">
  <sodipodi:namedview
     pagecolor="#ffffff"
     bordercolor="#666666"
     borderopacity="1"
     objecttolerance="10"
     gridtolerance="10"
     guidetolerance="10"
     inkscape:pageopacity="0"
     inkscape:pageshadow="2"
     inkscape:window-width="1855"
     inkscape:window-height="1056"
     id="namedview11"
     showgrid="false"
     inkscape:zoom="3.7854185"
     inkscape:cx="125.18699"
     inkscape:cy="-0.99670596"
     inkscape:window-x="1985"
     inkscape:window-y="24"
     inkscape:window-maximized="1"
     inkscape:current-layer="svg2"
     fit-margin-top="0"
     fit-margin-left="0"
     fit-margin-right="0"
     fit-margin-bottom="0" />
  <metadata
     id="metadata87">
    <rdf:RDF>
      <cc:Work
         rdf:about="">
        <dc:format>image/svg+xml</dc:format>
        <dc:type
           rdf:resource="http://purl.org/dc/dcmitype/StillImage" />
        <dc:title></dc:title>
      </cc:Work>
    </rdf:RDF>
  </metadata>
  <defs
     id="defs4" />
  <path
     style="fill:#f9d91b;fill-opacity:1"
     d="m 103.97265,83.844046 0.004,0.06836 11.98242,0 11.98047,0 0,-0.261719 -23.9668,0.193359 z"
     id="path4357"
     inkscape:connector-curvature="0" />
  <path
     style="fill:#1d841d;fill-opacity:1"
     d="m 151.93555,34.083055 -22.2793,16.429687 a 55.231926,51.137268 0 0 1 9.8457,29.041016 55.231926,51.137268 0 0 1 -0.22851,4.25 l 29.04687,-0.234375 0,-2.998047 c 0,-1.836985 -0.23313,-5.123688 -0.51758,-7.302734 -1.88851,-14.467278 -7.47353,-27.848357 -15.86718,-39.185547 z"
     id="path4355"
     inkscape:connector-curvature="0" />
  <path
     style="fill:#bf1200;fill-opacity:1"
     d="M 15.876953,34.924852 C 15.266332,35.783445 14.695436,36.458728 14.041016,37.43657 5.7379552,49.843036 0.74375313,64.81451 0.19335938,78.958055 L 0,83.913133 l 15.861328,0 13.414063,0 A 55.231926,51.137268 0 0 1 29.039062,79.553758 55.231926,51.137268 0 0 1 38.460938,51.018602 L 15.876953,34.924852 Z"
     id="path4353"
     inkscape:connector-curvature="0" />
  <path
     style="fill:#ff7b23;fill-opacity:1"
     d="M 57.558594,4.1787583 C 45.13192,8.3338543 33.956766,15.19908 24.652344,24.483446 21.081788,28.0463 18.589956,31.110104 15.876953,34.924852 l 22.583985,16.09375 A 55.231926,51.137268 0 0 1 66.589844,31.174852 L 57.558594,4.1787583 Z"
     id="path4351"
     inkscape:connector-curvature="0" />
  <path
     style="fill:#f1b900;fill-opacity:1"
     d="m 84.638672,0.00297727 c -5.377485,0.03565 -11.245634,0.389474 -14.517578,0.970703 -4.310118,0.76565203 -8.499939,1.84668303 -12.5625,3.20507803 l 9.03125,26.9960937 a 55.231926,51.137268 0 0 1 17.68164,-2.757813 55.231926,51.137268 0 0 1 16.718746,2.417969 L 109.54297,3.8193833 C 104.13403,2.0965853 98.610721,0.86656727 93.121094,0.30180527 c -2.206097,-0.226958 -5.255931,-0.320216 -8.482422,-0.298828 z"
     id="path4349"
     inkscape:connector-curvature="0" />
  <path
     style="fill:#46b346;fill-opacity:1"
     d="m 109.54297,3.8193833 -8.55274,27.0156247 a 55.231926,51.137268 0 0 1 28.66602,19.677734 l 22.2793,-16.429687 c -7.73558,-10.448355 -17.8448,-19.16746 -29.875,-25.2246097 -4.02652,-2.027337 -8.24017,-3.67667 -12.51758,-5.039062 z"
     id="path5109"
     inkscape:connector-curvature="0" />
</svg>
