<?xml version="1.0" encoding="UTF-8" standalone="no"?>
<!-- Created with Inkscape (http://www.inkscape.org/) -->

<svg
   xmlns:dc="http://purl.org/dc/elements/1.1/"
   xmlns:cc="http://creativecommons.org/ns#"
   xmlns:rdf="http://www.w3.org/1999/02/22-rdf-syntax-ns#"
   xmlns:svg="http://www.w3.org/2000/svg"
   xmlns="http://www.w3.org/2000/svg"
   xmlns:sodipodi="http://sodipodi.sourceforge.net/DTD/sodipodi-0.dtd"
   xmlns:inkscape="http://www.inkscape.org/namespaces/inkscape"
   version="1.2"
   width="128"
   height="128"
   viewBox="0 0 128 128"
   id="svg2"
   inkscape:version="0.91 r13725"
   sodipodi:docname="gauge_30.svg">
  <sodipodi:namedview
     pagecolor="#ffffff"
     bordercolor="#666666"
     borderopacity="1"
     objecttolerance="10"
     gridtolerance="10"
     guidetolerance="10"
     inkscape:pageopacity="0"
     inkscape:pageshadow="2"
     inkscape:window-width="1855"
     inkscape:window-height="1056"
     id="namedview11"
     showgrid="false"
     inkscape:zoom="3.2661743"
     inkscape:cx="98.37518"
     inkscape:cy="-2.5349734"
     inkscape:window-x="1985"
     inkscape:window-y="24"
     inkscape:window-maximized="1"
     inkscape:current-layer="svg2" />
  <metadata
     id="metadata87">
    <rdf:RDF>
      <cc:Work
         rdf:about="">
        <dc:format>image/svg+xml</dc:format>
        <dc:type
           rdf:resource="http://purl.org/dc/dcmitype/StillImage" />
        <dc:title></dc:title>
      </cc:Work>
    </rdf:RDF>
  </metadata>
  <defs
     id="defs4" />
  <path
     style="fill:#f9d91b;fill-opacity:1"
     d="M 103.97656 91.255859 L 103.98047 91.324219 L 115.96289 91.324219 L 127.94336 91.324219 L 127.94336 91.0625 L 103.97656 91.255859 z "
     id="path4357" />
  <g
     id="g4359">
    <path
       id="path4355"
       d="M 103.97656 91.255859 L 127.94336 91.0625 L 127.94336 88.779297 C 127.94336 87.379991 127.76699 84.876665 127.55078 83.216797 C 126.11533 72.196484 121.87023 62.003186 115.49023 53.367188 L 95.255859 68.320312 C 95.809541 68.99155 96.642329 69.846114 96.972656 70.341797 C 100.93957 76.294472 103.39382 83.046786 103.83203 89.212891 L 103.97656 91.255859 z "
       style="fill:#1d841d;fill-opacity:1" />
    <path
       id="path4353"
       d="M 32.568359 68.646484 L 12.072266 54.007812 C 11.608134 54.661837 11.173204 55.177013 10.675781 55.921875 C 4.3646386 65.372383 0.56874398 76.777069 0.15039062 87.550781 L 0.00390625 91.324219 L 12.060547 91.324219 L 24.117188 91.324219 L 24.117188 90.109375 C 24.121137 85.438758 26.52153 77.705826 29.521484 72.691406 C 30.395421 71.230626 31.526789 69.975828 32.568359 68.646484 z "
       style="fill:#bf1200;fill-opacity:1" />
    <path
       id="path4351"
       d="M 51.919922 55.044922 L 43.753906 30.587891 C 34.308412 33.752996 25.814463 38.98241 18.742188 46.054688 C 16.028214 48.768659 14.134415 51.101964 12.072266 54.007812 L 32.568359 68.646484 C 37.563918 62.270713 44.284664 57.545374 51.919922 55.044922 z "
       style="fill:#ff7b23;fill-opacity:1" />
    <path
       id="path4349"
       d="M 83.267578 30.314453 C 79.15625 29.002128 74.957812 28.064968 70.785156 27.634766 C 66.313554 27.173744 57.281932 27.438091 53.302734 28.146484 C 50.02662 28.729712 46.841852 29.553146 43.753906 30.587891 L 51.919922 55.044922 C 53.553415 54.509973 55.153176 53.871142 56.851562 53.552734 C 60.530863 52.862976 68.348195 52.930778 71.849609 53.683594 C 72.966428 53.923727 74.278488 54.33398 75.554688 54.728516 L 83.267578 30.314453 z "
       style="fill:#f1b900;fill-opacity:1" />
    <path
       id="path5109"
       d="M 83.267578 30.314453 L 75.554688 54.728516 C 77.724202 55.399218 79.854629 56.149244 81.230469 56.84375 L 81.232422 56.84375 C 83.492588 57.984695 83.803769 57.862598 87.769531 60.708984 C 89.534492 61.935058 92.960155 65.537189 95.255859 68.320312 L 115.49023 53.367188 C 109.61043 45.408252 101.92538 38.76632 92.78125 34.152344 C 89.720698 32.608039 86.518826 31.352243 83.267578 30.314453 z "
       style="fill:#46b346;fill-opacity:1" />
  </g>
  <path
     d="m 67.787304,95.999124 c -1.367891,1.57891 -3.023771,2.044202 -5.237553,1.47165 C 61.362909,97.163851 60.666342,96.820162 59.896336,96.161686 59.111053,95.490149 55.636894,89.907591 45.881647,73.641609 38.747835,61.746648 31.633467,49.819875 30.071931,47.137658 l -2.839142,-4.87677 3.183838,3.535761 c 4.585107,5.091942 29.943958,33.843659 34.110853,38.674653 1.939507,2.248638 3.75252,4.569342 4.028872,5.157098 0.539645,1.147674 0.726959,3.218051 0.404616,4.472129 -0.109292,0.425328 -0.637476,1.279673 -1.173697,1.898573 z"
     id="path5053"
     style="fill:#000000"
     inkscape:connector-curvature="0"
     inkscape:transform-center-x="16.066142"
     inkscape:transform-center-y="-22.52808" />
</svg>
