<?xml version="1.0" encoding="UTF-8" standalone="no"?>
<!-- Created with Inkscape (http://www.inkscape.org/) -->

<svg
   xmlns:dc="http://purl.org/dc/elements/1.1/"
   xmlns:cc="http://creativecommons.org/ns#"
   xmlns:rdf="http://www.w3.org/1999/02/22-rdf-syntax-ns#"
   xmlns:svg="http://www.w3.org/2000/svg"
   xmlns="http://www.w3.org/2000/svg"
   xmlns:xlink="http://www.w3.org/1999/xlink"
   xmlns:inkscape="http://www.inkscape.org/namespaces/inkscape"
   version="1.2"
   width="140.27408"
   height="112.37016"
   id="svg4158">

  
  <path
     d="m 30.028566,0.10085533 c -7.58026,0.055 -14.39886,2.78869997 -19.65252,8.16989997 C -28.615924,48.215655 54.844642,105.62786 69.981632,112.08286 l 0.35119,0.1873 0,-0.1873 c 9.15468,-3.9074 43.311418,-26.491005 60.224678,-52.565005 l -4.59813,0 -9.64883,7.8668 -16.0826,0 -7.722698,21.7855 -3.85953,0 -4.504,-56.2771 -5.14484,34.4916 -9.64884,0 -9.00799,-5.4455 -6.43378,5.4455 -12.863916,0 0,-4.2365 12.863916,0 6.43378,-5.4455 9.00799,5.4455 5.01811,0 7.72994,-52.4696 c -4.19809,3.1661 -8.12313,7.0344 -11.53154,11.5926 C 57.411842,7.3542553 42.662296,0.00875533 30.028566,0.10085533 z m 79.348564,0.4359 c -8.62252,0.1592 -18.013048,3.41349997 -26.383148,9.46749967 l 3.72195,0.5006 5.78931,65.9557 5.79293,-13.3124 17.367908,0 10.29329,-7.8668 5.14486,0 0,3.3817 c 10.598,-16.7637 13.94061,-34.8908 -1.19117,-50.3922997 -5.23859,-5.3812 -12.55759,-7.88129997 -20.53593,-7.73399997 z"
     id="path4"
     style="fill:#006680;fill-opacity:1;stroke:#ff9955;stroke-width:0.2;stroke-linejoin:round" />
  <flowRoot
     transform="translate(892.83896,645.21511)"
     id="flowRoot6482"
     xml:space="preserve"
     style="font-size:40px;font-style:italic;font-variant:normal;font-weight:bold;font-stretch:normal;text-align:center;line-height:125%;letter-spacing:0px;word-spacing:0px;writing-mode:lr-tb;text-anchor:middle;fill:#000000;fill-opacity:1;stroke:none;font-family:Sans;-inkscape-font-specification:Sans Bold Italic"><flowRegion
       id="flowRegion6484"><rect
         width="489.99316"
         height="136.27029"
         x="-584.22266"
         y="-0.40057057"
         id="rect6486" /></flowRegion><flowPara
       id="flowPara6488" /></flowRoot>  <flowRoot
     transform="translate(892.83896,645.21511)"
     id="flowRoot6995"
     xml:space="preserve"
     style="font-size:40px;font-style:italic;font-variant:normal;font-weight:bold;font-stretch:normal;text-align:center;line-height:125%;letter-spacing:0px;word-spacing:0px;writing-mode:lr-tb;text-anchor:middle;fill:#000000;fill-opacity:1;stroke:none;font-family:Sans;-inkscape-font-specification:Sans Bold Italic"><flowRegion
       id="flowRegion6997"><rect
         width="90.207161"
         height="328.02603"
         x="-819.03998"
         y="551.14166"
         id="rect6999" /></flowRegion><flowPara
       id="flowPara7001" /></flowRoot>  <flowRoot
     transform="translate(892.83896,645.21511)"
     id="flowRoot7003"
     xml:space="preserve"
     style="font-size:40px;font-style:italic;font-variant:normal;font-weight:bold;font-stretch:normal;text-align:center;line-height:125%;letter-spacing:0px;word-spacing:0px;writing-mode:lr-tb;text-anchor:middle;fill:#000000;fill-opacity:1;stroke:none;font-family:Sans;-inkscape-font-specification:Sans Bold Italic"><flowRegion
       id="flowRegion7005"><rect
         width="756.51001"
         height="424.38367"
         x="-847.74225"
         y="585.99445"
         id="rect7007" /></flowRegion><flowPara
       id="flowPara7009" /></flowRoot>  <g
     transform="matrix(2.1159538,0,0,1.7192892,1485.9383,844.46556)"
     id="g5245"
     style="fill:#ffffff;fill-opacity:1;stroke:#ffffff;stroke-width:1.10101116;stroke-miterlimit:4;stroke-opacity:1;stroke-dasharray:none" />
  <g
     transform="matrix(2.1159538,0,0,1.7192892,1485.9383,844.46556)"
     id="g5247"
     style="fill:#ffffff;fill-opacity:1;stroke:#ffffff;stroke-width:1.10101116;stroke-miterlimit:4;stroke-opacity:1;stroke-dasharray:none" />
  <g
     transform="matrix(2.1159538,0,0,1.7192892,1485.9383,844.46556)"
     id="g5249"
     style="fill:#ffffff;fill-opacity:1;stroke:#ffffff;stroke-width:1.10101116;stroke-miterlimit:4;stroke-opacity:1;stroke-dasharray:none" />
  <g
     transform="matrix(2.1159538,0,0,1.7192892,1485.9383,844.46556)"
     id="g5251"
     style="fill:#ffffff;fill-opacity:1;stroke:#ffffff;stroke-width:1.10101116;stroke-miterlimit:4;stroke-opacity:1;stroke-dasharray:none" />
  <g
     transform="matrix(2.1159538,0,0,1.7192892,1485.9383,844.46556)"
     id="g5253"
     style="fill:#ffffff;fill-opacity:1;stroke:#ffffff;stroke-width:1.10101116;stroke-miterlimit:4;stroke-opacity:1;stroke-dasharray:none" />
  <g
     transform="matrix(2.1159538,0,0,1.7192892,1485.9383,844.46556)"
     id="g5255"
     style="fill:#ffffff;fill-opacity:1;stroke:#ffffff;stroke-width:1.10101116;stroke-miterlimit:4;stroke-opacity:1;stroke-dasharray:none" />
  <g
     transform="matrix(2.1159538,0,0,1.7192892,1485.9383,844.46556)"
     id="g5257"
     style="fill:#ffffff;fill-opacity:1;stroke:#ffffff;stroke-width:1.10101116;stroke-miterlimit:4;stroke-opacity:1;stroke-dasharray:none" />
  <g
     transform="matrix(2.1159538,0,0,1.7192892,1485.9383,844.46556)"
     id="g5259"
     style="fill:#ffffff;fill-opacity:1;stroke:#ffffff;stroke-width:1.10101116;stroke-miterlimit:4;stroke-opacity:1;stroke-dasharray:none" />
  <g
     transform="matrix(2.1159538,0,0,1.7192892,1485.9383,844.46556)"
     id="g5261"
     style="fill:#ffffff;fill-opacity:1;stroke:#ffffff;stroke-width:1.10101116;stroke-miterlimit:4;stroke-opacity:1;stroke-dasharray:none" />
  <g
     transform="matrix(2.1159538,0,0,1.7192892,1485.9383,844.46556)"
     id="g5263"
     style="fill:#ffffff;fill-opacity:1;stroke:#ffffff;stroke-width:1.10101116;stroke-miterlimit:4;stroke-opacity:1;stroke-dasharray:none" />
  <g
     transform="matrix(2.1159538,0,0,1.7192892,1485.9383,844.46556)"
     id="g5265"
     style="fill:#ffffff;fill-opacity:1;stroke:#ffffff;stroke-width:1.10101116;stroke-miterlimit:4;stroke-opacity:1;stroke-dasharray:none" />
  <g
     transform="matrix(2.1159538,0,0,1.7192892,1485.9383,844.46556)"
     id="g5267"
     style="fill:#ffffff;fill-opacity:1;stroke:#ffffff;stroke-width:1.10101116;stroke-miterlimit:4;stroke-opacity:1;stroke-dasharray:none" />
  <g
     transform="matrix(2.1159538,0,0,1.7192892,1485.9383,844.46556)"
     id="g5269"
     style="fill:#ffffff;fill-opacity:1;stroke:#ffffff;stroke-width:1.10101116;stroke-miterlimit:4;stroke-opacity:1;stroke-dasharray:none" />
  <g
     transform="matrix(2.1159538,0,0,1.7192892,1485.9383,844.46556)"
     id="g5271"
     style="fill:#ffffff;fill-opacity:1;stroke:#ffffff;stroke-width:1.10101116;stroke-miterlimit:4;stroke-opacity:1;stroke-dasharray:none" />
  <g
     transform="matrix(2.1159538,0,0,1.7192892,1485.9383,844.46556)"
     id="g5273"
     style="fill:#ffffff;fill-opacity:1;stroke:#ffffff;stroke-width:1.10101116;stroke-miterlimit:4;stroke-opacity:1;stroke-dasharray:none" />
  <g
     transform="translate(2605.2281,2460.3861)"
     id="g4590" />
  <g
     transform="translate(2605.2281,2460.3861)"
     id="g4592" />
  <g
     transform="translate(2605.2281,2460.3861)"
     id="g4594" />
  <g
     transform="translate(2605.2281,2460.3861)"
     id="g4596" />
  <g
     transform="translate(2605.2281,2460.3861)"
     id="g4598" />
  <g
     transform="translate(2605.2281,2460.3861)"
     id="g4600" />
  <g
     transform="translate(2605.2281,2460.3861)"
     id="g4602" />
  <g
     transform="translate(2605.2281,2460.3861)"
     id="g4604" />
  <g
     transform="translate(2605.2281,2460.3861)"
     id="g4606" />
  <g
     transform="translate(2605.2281,2460.3861)"
     id="g4608" />
  <g
     transform="translate(2605.2281,2460.3861)"
     id="g4610" />
  <g
     transform="translate(2605.2281,2460.3861)"
     id="g4612" />
  <g
     transform="translate(2605.2281,2460.3861)"
     id="g4614" />
  <g
     transform="translate(2605.2281,2460.3861)"
     id="g4616" />
  <g
     transform="translate(2605.2281,2460.3861)"
     id="g4618" />
</svg>
