<?xml version="1.0" encoding="UTF-8" standalone="no"?>
<!-- Created with Inkscape (http://www.inkscape.org/) -->

<svg
   xmlns:dc="http://purl.org/dc/elements/1.1/"
   xmlns:cc="http://creativecommons.org/ns#"
   xmlns:rdf="http://www.w3.org/1999/02/22-rdf-syntax-ns#"
   xmlns:svg="http://www.w3.org/2000/svg"
   xmlns="http://www.w3.org/2000/svg"
   version="1.1"
   width="128"
   height="128"
   id="svg2">
  <metadata
     id="metadata9">
    <rdf:RDF>
      <cc:Work
         rdf:about="">
        <dc:format>image/svg+xml</dc:format>
        <dc:type
           rdf:resource="http://purl.org/dc/dcmitype/StillImage" />
        <dc:title></dc:title>
      </cc:Work>
    </rdf:RDF>
  </metadata>
  <defs
     id="defs7" />
  <path
     d="M 27.348791,12.75011 C 20.421932,12.800369 14.191081,15.29843 9.3902745,20.215783 -26.240674,56.717519 50.025776,109.18092 63.85799,115.07951 l 0.320919,0.17116 0,-0.17116 c 8.365566,-3.57059 39.578071,-24.207539 55.033441,-48.034016 l -4.20178,0 -8.81712,7.1887 -14.696317,0 -7.057018,19.907637 -3.526847,0 -4.115765,-51.426138 -4.701366,31.518501 -8.817132,0 -8.231521,-4.97611 -5.879202,4.97611 -11.755075,0 0,-3.871323 11.755075,0 5.879202,-4.97611 8.231521,4.97611 4.58556,0 7.063637,-47.946836 C 71.091978,25.309224 67.505267,28.844085 64.390655,33.009378 52.371689,19.378283 38.893521,12.665949 27.348791,12.75011 z m 72.508892,0.398326 C 91.978406,13.293914 83.39732,16.2677 75.748705,21.799859 l 3.401126,0.457449 5.290284,60.270463 5.293592,-12.1649 15.870833,0 9.40603,-7.1887 4.70138,0 0,3.090205 c 9.68448,-15.318706 12.73896,-31.88329 -1.08849,-46.048593 -4.78703,-4.917353 -11.47515,-7.20195 -18.765777,-7.067347 z"
     id="path4"
     style="fill:#006680;fill-opacity:1;stroke-width:0.2;stroke-linejoin:round" />
</svg>
