<?xml version="1.0" encoding="UTF-8" standalone="no"?>
<svg
   xmlns:dc="http://purl.org/dc/elements/1.1/"
   xmlns:cc="http://creativecommons.org/ns#"
   xmlns:rdf="http://www.w3.org/1999/02/22-rdf-syntax-ns#"
   xmlns:svg="http://www.w3.org/2000/svg"
   xmlns="http://www.w3.org/2000/svg"
   xmlns:xlink="http://www.w3.org/1999/xlink"
   xmlns:sodipodi="http://sodipodi.sourceforge.net/DTD/sodipodi-0.dtd"
   xmlns:inkscape="http://www.inkscape.org/namespaces/inkscape"
   version="1.1"
   width="222"
   height="222"
   viewBox="0 0 222 222"
   enable-background="new 0 0 76.00 76.00"
   xml:space="preserve"
   id="svg2"
   inkscape:version="0.91 r13725"
   sodipodi:docname="HearRateVariability.svg"
   inkscape:export-filename="./HeartRateVariability.png"
   inkscape:export-xdpi="256"
   inkscape:export-ydpi="256"><metadata
     id="metadata10"><rdf:RDF><cc:Work
         rdf:about=""><dc:format>image/svg+xml</dc:format><dc:type
           rdf:resource="http://purl.org/dc/dcmitype/StillImage" /><dc:title /></cc:Work></rdf:RDF></metadata><defs
     id="defs8"><linearGradient
       inkscape:collect="always"
       id="linearGradient4145"><stop
         style="stop-color:#ff0000;stop-opacity:1;"
         offset="0"
         id="stop4147" /><stop
         style="stop-color:#ff0000;stop-opacity:0;"
         offset="1"
         id="stop4149" /></linearGradient><linearGradient
       inkscape:collect="always"
       xlink:href="#linearGradient4145"
       id="linearGradient4151"
       x1="160.12497"
       y1="114.06979"
       x2="-44.051537"
       y2="114.06979"
       gradientUnits="userSpaceOnUse" /></defs><sodipodi:namedview
     pagecolor="#ffffff"
     bordercolor="#666666"
     borderopacity="1"
     objecttolerance="10"
     gridtolerance="10"
     guidetolerance="10"
     inkscape:pageopacity="0"
     inkscape:pageshadow="2"
     inkscape:window-width="1855"
     inkscape:window-height="1056"
     id="namedview6"
     showgrid="false"
     fit-margin-top="0"
     fit-margin-left="0"
     fit-margin-right="0"
     fit-margin-bottom="0"
     inkscape:zoom="3.6210938"
     inkscape:cx="102.96039"
     inkscape:cy="87.074581"
     inkscape:window-x="1985"
     inkscape:window-y="24"
     inkscape:window-maximized="1"
     inkscape:current-layer="svg2" /><path
     id="path4258"
     d="m 64.909482,88.219913 c -7.264126,-26.97987 13.489737,-47.73374 31.130407,-50.846541 17.640671,-3.1132 32.168541,11.414273 46.696011,25.941744 14.52787,-14.527471 29.05537,-29.054944 46.69602,-25.941744 17.64069,3.112801 38.39453,23.866671 31.13043,50.846541 C 213.29863,115.19979 178.01728,148.40566 142.7363,181.61154 107.45455,148.40566 72.173219,115.19979 64.909482,88.219913 Z"
     inkscape:connector-curvature="0"
     style="fill:#008080;fill-opacity:1;stroke-width:0.2;stroke-linejoin:round"
     sodipodi:nodetypes="ccccccc" /><path
     style="fill:url(#linearGradient4151);fill-opacity:1;stroke-width:0.2;stroke-linejoin:round"
     d="m 102.11292,73.700291 -7.735693,55.243269 -4.947458,0 -8.881017,-5.65009 -6.340006,5.65009 -12.686273,0 0,0.0651 -5.07889,0 -5.707883,13.80927 -5.707885,-68.426816 -4.440508,-0.62882 -7.735684,55.246366 -4.947458,0 -8.877886,-5.65009 -6.343136,5.65009 -12.683143,0 0,4.39245 12.683143,0 6.343136,-5.65009 8.877886,5.65009 9.513139,0 5.072631,-35.783909 4.440509,58.384269 3.805256,0 7.610511,-22.60036 13.737725,0 2.112293,0.0123 6.352523,-5.72444 8.881017,5.65009 9.51314,0 5.072631,-35.783907 4.44051,58.384277 3.80526,0 7.61051,-22.60037 12.86151,0 0,0.003 12.68314,0 6.34314,-5.65009 8.87788,5.65009 9.51315,0 5.07577,-35.783909 4.43737,58.384279 3.80525,0 7.61052,-22.60037 15.85627,0 9.51316,-8.15918 5.07261,0 0,-4.39554 -5.07261,0 -10.14841,8.16227 -17.12365,0 -5.70789,13.80927 -5.70788,-68.426816 -4.43738,-0.628821 -7.73567,55.246367 -4.95061,0 -8.87788,-5.65009 -6.34314,5.65009 -9.67273,0 0,-0.006 -17.77455,0 -5.70788,13.81237 -5.70789,-68.429917 -4.4405,-0.625723 z"
     id="path4"
     inkscape:connector-curvature="0" /><text
     xml:space="preserve"
     style="font-style:normal;font-variant:normal;font-weight:500;font-stretch:normal;font-size:39.49978256px;line-height:125%;font-family:Ubuntu;-inkscape-font-specification:'Ubuntu Medium';text-align:start;letter-spacing:0px;word-spacing:0px;writing-mode:lr-tb;text-anchor:start;fill:#000000;fill-opacity:1;stroke:none;stroke-width:1px;stroke-linecap:butt;stroke-linejoin:miter;stroke-opacity:1"
     x="13.606563"
     y="219.04541"
     id="text4224"
     sodipodi:linespacing="125%"><tspan
       sodipodi:role="line"
       id="tspan4226"
       x="13.606563"
       y="219.04541"
       style="font-style:normal;font-variant:normal;font-weight:500;font-stretch:normal;font-size:20px;font-family:Ubuntu;-inkscape-font-specification:'Ubuntu Medium'">Heart rate variability</tspan></text>
<text
     xml:space="preserve"
     style="font-style:normal;font-variant:normal;font-weight:normal;font-stretch:normal;font-size:39.49978256px;line-height:125%;font-family:Ubuntu;-inkscape-font-specification:'Ubuntu, Normal';text-align:start;letter-spacing:0px;word-spacing:0px;writing-mode:lr-tb;text-anchor:start;fill:#000000;fill-opacity:1;stroke:none;stroke-width:1px;stroke-linecap:butt;stroke-linejoin:miter;stroke-opacity:1"
     x="124.56832"
     y="155.36026"
     id="text4228"
     sodipodi:linespacing="125%"><tspan
       sodipodi:role="line"
       id="tspan4230"
       x="124.56832"
       y="155.36026"
       style="font-size:15px;-inkscape-font-specification:'Ubuntu Medium';font-family:Ubuntu;font-weight:500;font-style:normal;font-stretch:normal;font-variant:normal">845ms</tspan></text>
<text
     xml:space="preserve"
     style="font-style:normal;font-variant:normal;font-weight:normal;font-stretch:normal;font-size:39.49978256px;line-height:125%;font-family:Ubuntu;-inkscape-font-specification:'Ubuntu, Normal';text-align:start;letter-spacing:0px;word-spacing:0px;writing-mode:lr-tb;text-anchor:start;fill:#000000;fill-opacity:1;stroke:none;stroke-width:1px;stroke-linecap:butt;stroke-linejoin:miter;stroke-opacity:1"
     x="59.355194"
     y="155.36026"
     id="text4232"
     sodipodi:linespacing="125%"><tspan
       sodipodi:role="line"
       id="tspan4234"
       x="59.355194"
       y="155.36026"
       style="font-size:15px;-inkscape-font-specification:'Ubuntu Medium';font-family:Ubuntu;font-weight:500;font-style:normal;font-stretch:normal;font-variant:normal">780ms</tspan></text>
<path
     style="fill:none;fill-rule:evenodd;stroke:#000000;stroke-width:3;stroke-linecap:butt;stroke-linejoin:miter;stroke-miterlimit:4;stroke-dasharray:none;stroke-opacity:1"
     d="m 77.154534,160.49322 29.140646,40.28365 33.18304,-40.47946"
     id="path4236"
     inkscape:connector-curvature="0"
     sodipodi:nodetypes="ccc" /></svg>