<svg
 xmlns:rdf="http://www.w3.org/1999/02/22-rdf-syntax-ns#"
   xmlns="http://www.w3.org/2000/svg"
   width="140.27408"
   height="112.37016">

  <path
     d="m 30.028566,0.10085533 c -7.58026,0.055 -14.39886,2.78869997 -19.65252,8.16989997 C -28.615924,48.215655 54.844642,105.62786 69.981632,112.08286 l 0.35119,0.1873 0,-0.1873 c 9.15468,-3.9074 43.311418,-26.491005 60.224678,-52.565005 l -4.59813,0 -9.64883,7.8668 -16.0826,0 -7.722698,21.7855 -3.85953,0 -4.504,-56.2771 -5.14484,34.4916 -9.64884,0 -9.00799,-5.4455 -6.43378,5.4455 -12.863916,0 0,-4.2365 12.863916,0 6.43378,-5.4455 9.00799,5.4455 5.01811,0 7.72994,-52.4696 c -4.19809,3.1661 -8.12313,7.0344 -11.53154,11.5926 C 57.411842,7.3542553 42.662296,0.00875533 30.028566,0.10085533 z m 79.348564,0.4359 c -8.62252,0.1592 -18.013048,3.41349997 -26.383148,9.46749967 l 3.72195,0.5006 5.78931,65.9557 5.79293,-13.3124 17.367908,0 10.29329,-7.8668 5.14486,0 0,3.3817 c 10.598,-16.7637 13.94061,-34.8908 -1.19117,-50.3922997 -5.23859,-5.3812 -12.55759,-7.88129997 -20.53593,-7.73399997 z"
     id="path4"
     style="fill:#006680;fill-opacity:1;stroke-width:0.2;stroke-linejoin:round" />

</svg>
