
<svg
   xmlns:dc="http://purl.org/dc/elements/1.1/"
   xmlns:cc="http://creativecommons.org/ns#"
   xmlns:rdf="http://www.w3.org/1999/02/22-rdf-syntax-ns#"
   xmlns:svg="http://www.w3.org/2000/svg"
   xmlns="http://www.w3.org/2000/svg"
   version="1.1"
   width="48.271183"
   height="44.474579"
   id="svg4948">
  <g
     transform="translate(-31.186441,-36.881356)"
     id="g5694">
    <path
       d="m -260.88137,-18.169491 a 36.881355,32.271187 0 1 1 -73.76271,0 36.881355,32.271187 0 1 1 73.76271,0 z"
       transform="matrix(0.65441175,0,0,0.68907564,250.18146,71.638798)"
       style="opacity:0.73662552;fill:#00aa00;fill-opacity:1;stroke:#68b0ab;stroke-width:0;stroke-linecap:round;stroke-linejoin:round;stroke-miterlimit:4;stroke-opacity:1;stroke-dasharray:none;stroke-dashoffset:0" />
    <path
       d="m -260.88137,-18.169491 a 36.881355,32.271187 0 1 1 -73.76271,0 36.881355,32.271187 0 1 1 73.76271,0 z"
       transform="matrix(0.58088234,0,0,0.60504203,228.38882,69.569584)"
       id="path4960"
       style="fill:#71c837;fill-opacity:1;stroke:#68b0ab;stroke-width:0;stroke-linecap:round;stroke-linejoin:round;stroke-miterlimit:4;stroke-opacity:1;stroke-dasharray:none;stroke-dashoffset:0" />
    <g
       transform="matrix(0,-0.07999995,0.11984026,0,39.102053,65.643105)"
       id="g5627"
       style="fill:#ffffff;fill-opacity:1">
      <g
         transform="matrix(1.5647326,0,0,1,-50.199895,4.5257986)"
         id="g5491"
         style="fill:#ffffff;fill-opacity:1">
        <g
           id="g5493"
           style="fill:#ffffff;fill-opacity:1">
          <path
             d="M 124.4,270.521 H 48.877 c -1.939,0 -3.504,-1.563 -3.504,-3.504 V 3.504 C 45.373,1.565 46.938,0 48.877,0 h 75.527 c 1.938,0 3.504,1.565 3.504,3.504 v 263.513 c -0.003,1.941 -1.569,3.504 -3.508,3.504 z M 52.381,263.514 H 120.9 V 7.009 H 52.381 v 256.505 z"
             id="path5495"
             style="fill:#ffffff;fill-opacity:1" />
        </g>
        <g
           id="g5497"
           style="fill:#ffffff;fill-opacity:1">
          <g
             id="g5499"
             style="fill:#ffffff;fill-opacity:1">
            <g
               id="g5501"
               style="fill:#ffffff;fill-opacity:1">
              <path
                 d="M 86.635,22.893 H 48.877 c -1.939,0 -3.504,-1.565 -3.504,-3.504 0,-1.937 1.565,-3.504 3.504,-3.504 h 37.758 c 1.938,0 3.504,1.567 3.504,3.504 0.001,1.938 -1.567,3.504 -3.504,3.504 z"
                 id="path5503"
                 style="fill:#ffffff;fill-opacity:1" />
            </g>
            <g
               id="g5505"
               style="fill:#ffffff;fill-opacity:1">
              <path
                 d="M 86.635,57.936 H 48.877 c -1.939,0 -3.504,-1.566 -3.504,-3.504 0,-1.937 1.565,-3.504 3.504,-3.504 h 37.758 c 1.938,0 3.504,1.567 3.504,3.504 0.001,1.938 -1.567,3.504 -3.504,3.504 z"
                 id="path5507"
                 style="fill:#ffffff;fill-opacity:1" />
            </g>
            <g
               id="g5509"
               style="fill:#ffffff;fill-opacity:1">
              <path
                 d="M 86.635,92.979 H 48.877 c -1.939,0 -3.504,-1.566 -3.504,-3.504 0,-1.937 1.565,-3.504 3.504,-3.504 h 37.758 c 1.938,0 3.504,1.567 3.504,3.504 0.001,1.938 -1.567,3.504 -3.504,3.504 z"
                 id="path5511"
                 style="fill:#ffffff;fill-opacity:1" />
            </g>
            <g
               id="g5513"
               style="fill:#ffffff;fill-opacity:1">
              <path
                 d="M 86.635,128.021 H 48.877 c -1.939,0 -3.504,-1.566 -3.504,-3.504 0,-1.937 1.565,-3.504 3.504,-3.504 h 37.758 c 1.938,0 3.504,1.567 3.504,3.504 0.001,1.939 -1.567,3.504 -3.504,3.504 z"
                 id="path5515"
                 style="fill:#ffffff;fill-opacity:1" />
            </g>
            <g
               id="g5517"
               style="fill:#ffffff;fill-opacity:1">
              <path
                 d="M 86.635,163.066 H 48.877 c -1.939,0 -3.504,-1.568 -3.504,-3.505 0,-1.937 1.565,-3.504 3.504,-3.504 h 37.758 c 1.938,0 3.504,1.567 3.504,3.504 0,1.937 -1.567,3.505 -3.504,3.505 z"
                 id="path5519"
                 style="fill:#ffffff;fill-opacity:1" />
            </g>
            <g
               id="g5521"
               style="fill:#ffffff;fill-opacity:1">
              <path
                 d="M 86.635,198.109 H 48.877 c -1.939,0 -3.504,-1.568 -3.504,-3.505 0,-1.937 1.565,-3.504 3.504,-3.504 h 37.758 c 1.938,0 3.504,1.567 3.504,3.504 0,1.937 -1.567,3.505 -3.504,3.505 z"
                 id="path5523"
                 style="fill:#ffffff;fill-opacity:1" />
            </g>
            <g
               id="g5525"
               style="fill:#ffffff;fill-opacity:1">
              <path
                 d="M 86.635,233.151 H 48.877 c -1.939,0 -3.504,-1.567 -3.504,-3.504 0,-1.937 1.565,-3.504 3.504,-3.504 h 37.758 c 1.938,0 3.504,1.567 3.504,3.504 0,1.937 -1.567,3.504 -3.504,3.504 z"
                 id="path5527"
                 style="fill:#ffffff;fill-opacity:1" />
            </g>
          </g>
          <g
             id="g5529"
             style="fill:#ffffff;fill-opacity:1">
            <g
               id="g5531"
               style="fill:#ffffff;fill-opacity:1">
              <path
                 d="m 70.017,44.382 h -18.88 c -1.938,0 -3.504,-1.567 -3.504,-3.504 0,-1.939 1.566,-3.504 3.504,-3.504 h 18.88 c 1.939,0 3.504,1.565 3.504,3.504 0,1.936 -1.565,3.504 -3.504,3.504 z"
                 id="path5533"
                 style="fill:#ffffff;fill-opacity:1" />
            </g>
            <g
               id="g5535"
               style="fill:#ffffff;fill-opacity:1">
              <path
                 d="m 70.017,79.425 h -18.88 c -1.938,0 -3.504,-1.567 -3.504,-3.504 0,-1.939 1.566,-3.505 3.504,-3.505 h 18.88 c 1.939,0 3.504,1.566 3.504,3.505 0,1.936 -1.565,3.504 -3.504,3.504 z"
                 id="path5537"
                 style="fill:#ffffff;fill-opacity:1" />
            </g>
            <g
               id="g5539"
               style="fill:#ffffff;fill-opacity:1">
              <path
                 d="m 70.017,114.468 h -18.88 c -1.938,0 -3.504,-1.567 -3.504,-3.504 0,-1.938 1.566,-3.504 3.504,-3.504 h 18.88 c 1.939,0 3.504,1.566 3.504,3.504 0,1.936 -1.565,3.504 -3.504,3.504 z"
                 id="path5541"
                 style="fill:#ffffff;fill-opacity:1" />
            </g>
            <g
               id="g5543"
               style="fill:#ffffff;fill-opacity:1">
              <path
                 d="m 70.017,149.511 h -18.88 c -1.938,0 -3.504,-1.567 -3.504,-3.504 0,-1.94 1.566,-3.505 3.504,-3.505 h 18.88 c 1.939,0 3.504,1.564 3.504,3.505 0,1.936 -1.565,3.504 -3.504,3.504 z"
                 id="path5545"
                 style="fill:#ffffff;fill-opacity:1" />
            </g>
            <g
               id="g5547"
               style="fill:#ffffff;fill-opacity:1">
              <path
                 d="m 70.017,184.554 h -18.88 c -1.938,0 -3.504,-1.567 -3.504,-3.505 0,-1.939 1.566,-3.504 3.504,-3.504 h 18.88 c 1.939,0 3.504,1.564 3.504,3.504 0,1.937 -1.565,3.505 -3.504,3.505 z"
                 id="path5549"
                 style="fill:#ffffff;fill-opacity:1" />
            </g>
            <g
               id="g5551"
               style="fill:#ffffff;fill-opacity:1">
              <path
                 d="m 70.017,219.597 h -18.88 c -1.938,0 -3.504,-1.567 -3.504,-3.505 0,-1.939 1.566,-3.504 3.504,-3.504 h 18.88 c 1.939,0 3.504,1.564 3.504,3.504 0,1.937 -1.565,3.505 -3.504,3.505 z"
                 id="path5553"
                 style="fill:#ffffff;fill-opacity:1" />
            </g>
            <g
               id="g5555"
               style="fill:#ffffff;fill-opacity:1">
              <path
                 d="m 70.017,254.64 h -18.88 c -1.938,0 -3.504,-1.567 -3.504,-3.505 0,-1.939 1.566,-3.504 3.504,-3.504 h 18.88 c 1.939,0 3.504,1.564 3.504,3.504 0,1.937 -1.565,3.505 -3.504,3.505 z"
                 id="path5557"
                 style="fill:#ffffff;fill-opacity:1" />
            </g>
          </g>
        </g>
       
    </g>
  </g>
</svg>