<?xml version="1.0" encoding="UTF-8" standalone="no"?>
<!-- Created with Inkscape (http://www.inkscape.org/) -->

<svg
   xmlns:dc="http://purl.org/dc/elements/1.1/"
   xmlns:cc="http://creativecommons.org/ns#"
   xmlns:rdf="http://www.w3.org/1999/02/22-rdf-syntax-ns#"
   xmlns:svg="http://www.w3.org/2000/svg"
   xmlns="http://www.w3.org/2000/svg"
   version="1.2"
   width="128"
   height="128"
   viewBox="0 0 128 128"
   id="svg2">
  <metadata
     id="metadata61">
    <rdf:RDF>
      <cc:Work
         rdf:about="">
        <dc:format>image/svg+xml</dc:format>
        <dc:type
           rdf:resource="http://purl.org/dc/dcmitype/StillImage" />
        <dc:title></dc:title>
      </cc:Work>
    </rdf:RDF>
  </metadata>
  <defs
     id="defs4" />
  <g
     transform="matrix(0.89684403,0,0,0.89684403,19.979488,-3.7736947)"
     id="layer1">
    <g
       transform="translate(-61.941206,-917.12966)"
       id="g3335">
      <g
         transform="matrix(0.81902976,0,0,0.81902976,-1436.4183,395.78057)"
         id="g5815">
        <path
           d="m 1866.6072,689.29899 0,-5.95334 3.568,0 0,6.16398 0,0 c -0.012,0.9777 -0.8078,1.76654 -1.7883,1.76654 -0.988,0 -1.7884,-0.80044 -1.7884,-1.78833 0,-0.064 0,-0.12637 0.01,-0.18885"
           id="path65-9"
           style="fill:#f0bf85;fill-opacity:1;fill-rule:nonzero;stroke:none" />
        <path
           d="m 1870.9858,647.63573 c 6.1509,0 11.1382,4.98584 11.1382,11.13677 l 0,14.92258 c 0,6.1509 -4.9873,11.13818 -11.1382,11.13818 -6.151,0 -11.1368,-4.98728 -11.1368,-11.13818 l 0,-14.92258 c 0,-6.15093 4.9858,-11.13677 11.1368,-11.13677"
           id="path67-2"
           style="fill:#f5d4a1;fill-opacity:1;fill-rule:nonzero;stroke:none" />
        <path
           d="m 1878.9861,667.31606 c 0,0.89491 0.3151,1.62127 0.7031,1.62127 0.3879,0 0.7031,-0.72636 0.7031,-1.62127 0,-0.89632 -0.3152,-1.62272 -0.7031,-1.62272 -0.388,0 -0.7031,0.7264 -0.7031,1.62272"
           id="path69-2"
           style="fill:#514538;fill-opacity:1;fill-rule:nonzero;stroke:none" />
        <path
           d="m 1875.7159,680.79172 c -2.5539,0 -4.6241,-1.41643 -4.6241,-3.16262 l 9.2467,0 c 0,1.74619 -2.0701,3.16262 -4.6226,3.16262"
           id="path71-8"
           style="fill:#dc597a;fill-opacity:1;fill-rule:nonzero;stroke:none" />
        <path
           d="m 1853.0909,652.59542 c 2.5321,-3.73211 7.7838,-3.87738 9.575,-3.8091 0.382,-0.005 0.616,0.0378 0.616,0.0378 9.3266,-7.2986 18.707,2.10935 18.707,2.10935 2.7035,1.94668 5.6773,-0.54041 5.6773,-0.54041 2.3781,8.27192 -5.6773,10.54258 -5.6773,10.54258 -6.7378,1.40913 -12.2699,0.0639 -15.4093,-1.10121 l 0,5.20519 c -0.1714,-0.0407 -0.3487,-0.064 -0.5317,-0.064 -1.3176,0 -2.3868,1.10121 -2.3868,2.46095 0,1.35834 1.0692,2.45951 2.3868,2.45951 0.183,0 0.3603,-0.023 0.5317,-0.0639 l 0,7.09233 -3.6594,4.44683 c -9.8511,-5.07007 -11.6684,-15.13757 -11.6684,-15.13757 -1.0272,-10.12419 1.8391,-13.63838 1.8391,-13.63838"
           id="path73-9"
           style="fill:#f0dc54;fill-opacity:1;fill-rule:nonzero;stroke:none" />
        <path
           d="m 1854.442,660.70464 c 4.8667,-3.35148 12.1376,-0.87022 12.1376,-0.87022 l 0,5.20519 c -0.1714,-0.0407 -0.3487,-0.064 -0.5317,-0.064 -1.3176,0 -2.3868,1.10121 -2.3868,2.46096 0,1.35833 1.0692,2.4595 2.3868,2.4595 0.183,0 0.3603,-0.023 0.5317,-0.0639 l 0,7.09232 -3.6594,4.44684 c -9.8511,-5.07008 -11.6684,-15.13758 -11.6684,-15.13758 -0.046,-0.46343 -0.083,-0.90946 -0.1149,-1.3467 1.4513,-2.51618 3.3051,-4.18245 3.3051,-4.18245"
           id="path75-7"
           style="fill:#b09154;fill-opacity:1;fill-rule:nonzero;stroke:none" />
        <path
           d="m 1858.0578,743.32361 c 0,0 -0.3123,1.83337 0.015,2.29825 0,0 0.7918,1.08958 1.9947,0.9864 0,0 1.5399,-0.10458 2.2779,-0.88034 0,0 0.5695,0.18595 0.9443,-0.26295 0,0 0.5782,-0.45036 -0.2847,-2.17474 l -4.9466,0.0335"
           id="path77-3"
           style="fill:#f5d4a1;fill-opacity:1;fill-rule:nonzero;stroke:none" />
        <path
           d="m 1858.0578,743.32361 c 0,0 -3.2744,-33.68186 5.0934,-51.0189 0,0 2.4812,-1.5733 2.9897,1.50505 0,0 -5.657,21.02263 -3.7829,49.48482 l -4.3002,0.0291"
           id="path79-6"
           style="fill:#f5f5f5;fill-opacity:1;fill-rule:nonzero;stroke:none" />
        <path
           d="m 1870.1752,688.45496 -3.5738,0 c 0,0 -4.0125,1.41788 -5.6715,6.12185 0,0 -5.7485,9.97743 -5.0643,39.13107 l 24.0953,0 c 0,0 2.3694,-39.45504 -9.7857,-45.25292"
           id="path81-1"
           style="fill:#98d0ec;fill-opacity:1;fill-rule:nonzero;stroke:none" />
        <path
           d="m 1870.1752,688.45496 c 0,0 1.277,0.5767 2.1078,1.45998 l -1.5805,1.61982 -4.1011,-3.0798 3.5738,0"
           id="path83-2"
           style="fill:#6bb8d7;fill-opacity:1;fill-rule:nonzero;stroke:none" />
        <path
           d="m 1871.0729,691.1556 1.2101,-1.24066 c 0,0 1.2087,1.12444 1.588,1.8392 l -1.2015,0.79465 -1.5966,-1.39319"
           id="path85-9"
           style="fill:#474a4a;fill-opacity:1;fill-rule:nonzero;stroke:none" />
        <path
           d="m 1880.1468,727.16041 -3.3137,-3.38782 c 0,0 1.6663,-17.52154 -3.7932,-31.46788 l 0.8311,-0.55057 c 0,0 7.4104,9.145 6.2758,35.40627"
           id="path87-3"
           style="fill:#474a4a;fill-opacity:1;fill-rule:nonzero;stroke:none" />
        <path
           d="m 1870.3916,812.4263 0,3.51418 4.3785,0 0.5274,-0.97045 0.6088,0.97045 9.8538,0 0,-0.97045 -10.6107,-2.54373 -4.7578,0"
           id="path99-4"
           style="fill:#474a4a;fill-opacity:1;fill-rule:nonzero;stroke:none" />
        <path
           d="m 1854.6584,812.4263 0,3.51418 4.3786,0 0.5273,-0.97045 0.6087,0.97045 9.8526,0 0,-0.97045 -10.6095,-2.54373 -4.7592,0"
           id="path101-5"
           style="fill:#474a4a;fill-opacity:1;fill-rule:nonzero;stroke:none" />
        <path
           d="m 1879.9609,733.70788 c 0,0 0.012,0.34433 0.033,0.99516 0.2193,6.88019 -1.5415,48.27177 -4.845,77.72326 l -4.7577,0 c 0,0 3.1902,-58.37705 2.108,-71.67839 l -8.1034,-0.17432 c 0,0 -0.3851,35.26533 -4.9801,71.85271 l -4.7592,0 c 0,0 4.7054,-48.15994 1.2087,-78.71842 l 24.0952,0"
           id="path103-0"
           style="fill:#474a4a;fill-opacity:1;fill-rule:nonzero;stroke:none" />
        <path
           d="m 1856.0559,735.67346 23.9689,0 -0.064,-1.96558 -24.0953,0 0.1903,1.96558"
           id="path105-3"
           style="fill:#5e5445;fill-opacity:1;fill-rule:nonzero;stroke:none" />
        <path
           d="m 1876.1242,735.67346 3.9006,0 -0.063,-1.96558 -3.8381,0 0,1.96558"
           id="path107-6"
           style="fill:#d4d4d1;fill-opacity:1;fill-rule:nonzero;stroke:none" />
        <path
           d="m 1861.6421,741.9258 c 0,0 -4.3085,-33.81168 2.4633,-50.56952 0,0 1.8069,-2.61354 3.3612,0.48139 0,0 -6.2694,21.74803 -1.3399,49.82916 l -4.4846,0.25897"
           id="path89-1"
           style="fill:#65b4d4;fill-opacity:1;fill-rule:nonzero;stroke:none" />
        <path
           d="m 1862.2784,741.88001 c 0,0 -4.0659,-34.79181 2.4922,-51.2132 0,0 2.3985,-1.69722 3.0624,1.35231 0,0 -6.1927,21.53178 -1.2631,49.61293 l -4.2915,0.24796"
           id="path91-9"
           style="fill:#98d0ec;fill-opacity:1;fill-rule:nonzero;stroke:none" />
        <path
           d="m 1861.6421,741.9258 1.5772,5.13963 c 0,0 1.5284,0.9538 3.5297,0.49225 0,0 0.2368,0.22129 0.7337,-1.03448 l -0.5578,0.0657 c 0,0 -0.6942,-3.16007 -0.3551,-4.95687 l -4.9279,0.29377"
           id="path93-4"
           style="fill:#f5d4a1;fill-opacity:1;fill-rule:nonzero;stroke:none" />
      </g>
      <g
         transform="matrix(0.81902976,0,0,0.81902976,-1440.3388,392.84146)"
         id="g5870">
        <rect
           width="37.375645"
           height="4.0406103"
           ry="2.0203052"
           x="1895.1046"
           y="814.97632"
           id="rect5837-7"
           style="fill:#000000;fill-opacity:1;fill-rule:nonzero;stroke:none" />
        <rect
           width="37.375645"
           height="4.0406103"
           ry="2.0203052"
           x="1894.5995"
           y="645.27075"
           id="rect5837"
           style="fill:#000000;fill-opacity:1;fill-rule:nonzero;stroke:none" />
        <rect
           width="4.0406103"
           height="170.71577"
           ry="2.0203052"
           x="1911.267"
           y="648.30121"
           id="rect5854"
           style="fill:#000000;fill-opacity:1;fill-rule:nonzero;stroke:none" />
      </g>
    </g>
  </g>
</svg>
