<?xml version="1.0" encoding="UTF-8" standalone="no"?>
<svg
   width="680"
   height="680"
   viewBox="0 0 680 680"
   version="1.1"
   xml:space="preserve"
   style="clip-rule:evenodd;fill-rule:evenodd;stroke-linejoin:round;stroke-miterlimit:2"
   id="svg94"
   xmlns="http://www.w3.org/2000/svg"
   xmlns:svg="http://www.w3.org/2000/svg">
    <g
   transform="matrix(0.24203079,0,0,0.24203079,-3202.8903,-1124.5718)"
   id="g46">
        <g
   transform="translate(-6284.68)"
   id="g4">
            <path
   d="m 20674.9,5803.29 c 78.6,-24.12 161.9,-37.1 248.3,-37.1 86.3,0 169.7,12.98 248.2,37.1 24.1,78.55 37.1,161.89 37.1,248.24 0,86.34 -13,169.68 -37.1,248.23 -78.5,24.12 -161.9,37.1 -248.2,37.1 -86.4,0 -169.7,-12.98 -248.3,-37.1 -24.1,-78.55 -37.1,-161.89 -37.1,-248.23 0,-86.35 13,-169.69 37.1,-248.24 z"
   style="fill:#b0a892"
   id="path2" />
        </g>
        <path
   d="m 15321,6051.53 c 125.2,-152.42 200.4,-347.45 200.4,-559.9 0,-80.84 -10.9,-159.16 -31.3,-233.56 322.9,118.88 553.5,429.45 553.5,793.46 0,364 -230.6,674.57 -553.5,793.45 20.4,-74.41 31.3,-152.72 31.3,-233.56 0,-212.45 -75.2,-407.48 -200.4,-559.89 z"
   style="fill:#7d806a"
   id="path6" />
        <path
   d="m 14638.5,6733.98 c 152.4,125.22 347.4,200.43 559.9,200.43 80.8,0 159.1,-10.89 233.6,-31.28 -118.9,322.92 -429.5,553.52 -793.5,553.52 -364,0 -674.6,-230.6 -793.5,-553.52 74.4,20.39 152.8,31.28 233.6,31.28 212.5,0 407.5,-75.21 559.9,-200.43 z"
   style="fill:#b49058"
   id="path8" />
        <path
   d="m 13786.9,5258.07 c -20.4,74.4 -31.3,152.72 -31.3,233.56 0,212.45 75.2,407.48 200.4,559.9 -125.2,152.41 -200.4,347.44 -200.4,559.89 0,80.84 10.9,159.15 31.3,233.56 -322.9,-118.88 -553.5,-429.45 -553.5,-793.45 0,-364.01 230.6,-674.58 553.5,-793.46 z"
   style="fill:#bec5af"
   id="path10" />
        <path
   d="m 13845,5199.92 c 118.9,-322.92 429.5,-553.52 793.5,-553.52 364,0 674.6,230.6 793.5,553.52 -74.5,-20.39 -152.8,-31.28 -233.6,-31.28 -212.5,0 -407.5,75.21 -559.9,200.43 -152.4,-125.22 -347.4,-200.43 -559.9,-200.43 -80.8,0 -159.2,10.89 -233.6,31.28 z"
   style="fill:#c4b9af"
   id="path12" />
        <g
   transform="translate(-6342.8)"
   id="g16">
            <path
   d="m 20689.6,5817.96 c -20.4,74.41 -31.3,152.73 -31.3,233.57 0,80.83 10.9,159.15 31.3,233.56 -132.5,-48.79 -249.4,-129.82 -341.3,-233.56 91.9,-103.75 208.8,-184.78 341.3,-233.57 z"
   style="fill:url(#_Linear1)"
   id="path14" />
        </g>
        <g
   transform="rotate(180,17806.7,6051.5)"
   id="g20">
            <path
   d="m 20689.6,5817.96 c -20.4,74.41 -31.3,152.73 -31.3,233.57 0,80.83 10.9,159.15 31.3,233.56 -132.5,-48.79 -249.4,-129.82 -341.3,-233.56 91.9,-103.75 208.8,-184.78 341.3,-233.57 z"
   style="fill:url(#_Linear2)"
   id="path18" />
        </g>
        <g
   transform="rotate(-90,17808.285,9221.315)"
   id="g24">
            <path
   d="m 20689.6,5817.96 c -20.4,74.41 -31.3,152.73 -31.3,233.57 0,80.83 10.9,159.15 31.3,233.56 -132.5,-48.79 -249.4,-129.82 -341.3,-233.56 91.9,-103.75 208.8,-184.78 341.3,-233.57 z"
   style="fill:url(#_Linear3)"
   id="path22" />
        </g>
        <g
   transform="rotate(90,17808.3,2881.7)"
   id="g28">
            <path
   d="m 20689.6,5817.96 c -20.4,74.41 -31.3,152.73 -31.3,233.57 0,80.83 10.9,159.15 31.3,233.56 -132.5,-48.79 -249.4,-129.82 -341.3,-233.56 91.9,-103.75 208.8,-184.78 341.3,-233.57 z"
   style="fill:url(#_Linear4)"
   id="path26" />
        </g>
        <g
   transform="translate(-6342.8)"
   id="g32">
            <path
   d="m 20323.7,6022.5 c -117.3,-145.14 -187.6,-329.86 -187.6,-530.87 0,-86.35 12.9,-169.69 37.1,-248.23 78.5,-24.13 161.8,-37.1 248.2,-37.1 201,0 385.7,70.32 530.9,187.68 -113.3,101.51 -200.2,231.83 -249.2,379.35 -147.5,49.01 -277.9,135.92 -379.4,249.17 z"
   style="fill:url(#_Linear5)"
   id="path30" />
        </g>
        <g
   transform="matrix(-1,0,0,1,35619.8,0)"
   id="g36">
            <path
   d="m 20323.7,6022.5 c -117.3,-145.14 -187.6,-329.86 -187.6,-530.87 0,-86.35 12.9,-169.69 37.1,-248.23 78.5,-24.13 161.8,-37.1 248.2,-37.1 201,0 385.7,70.32 530.9,187.68 -113.3,101.51 -200.2,231.83 -249.2,379.35 -147.5,49.01 -277.9,135.92 -379.4,249.17 z"
   style="fill:url(#_Linear6)"
   id="path34" />
        </g>
        <g
   transform="rotate(180,17809.9,6051.5)"
   id="g40">
            <path
   d="m 20323.7,6022.5 c -117.3,-145.14 -187.6,-329.86 -187.6,-530.87 0,-86.35 12.9,-169.69 37.1,-248.23 78.5,-24.13 161.8,-37.1 248.2,-37.1 201,0 385.7,70.32 530.9,187.68 -113.3,101.51 -200.2,231.83 -249.2,379.35 -147.5,49.01 -277.9,135.92 -379.4,249.17 z"
   style="fill:url(#_Linear7)"
   id="path38" />
        </g>
        <g
   transform="matrix(1,0,0,-1,-6342.8,12103)"
   id="g44">
            <path
   d="m 20323.7,6022.5 c -117.3,-145.14 -187.6,-329.86 -187.6,-530.87 0,-86.35 12.9,-169.69 37.1,-248.23 78.5,-24.13 161.8,-37.1 248.2,-37.1 201,0 385.7,70.32 530.9,187.68 -113.3,101.51 -200.2,231.83 -249.2,379.35 -147.5,49.01 -277.9,135.92 -379.4,249.17 z"
   style="fill:url(#_Linear8)"
   id="path42" />
        </g>
    </g>
    <defs
   id="defs92">
        <linearGradient
   id="_Linear1"
   x1="0"
   y1="0"
   x2="1"
   y2="0"
   gradientUnits="userSpaceOnUse"
   gradientTransform="matrix(309.996,0,0,309.996,20348.3,6051.52)"><stop
     offset="0"
     style="stop-color:rgb(190,197,175);stop-opacity:1"
     id="stop48" /><stop
     offset="1"
     style="stop-color:rgb(176,168,146);stop-opacity:1"
     id="stop50" /></linearGradient>
        <linearGradient
   id="_Linear2"
   x1="0"
   y1="0"
   x2="1"
   y2="0"
   gradientUnits="userSpaceOnUse"
   gradientTransform="matrix(309.996,0,0,309.996,20348.3,6051.52)"><stop
     offset="0"
     style="stop-color:rgb(125,128,106);stop-opacity:1"
     id="stop53" /><stop
     offset="1"
     style="stop-color:rgb(176,168,146);stop-opacity:1"
     id="stop55" /></linearGradient>
        <linearGradient
   id="_Linear3"
   x1="0"
   y1="0"
   x2="1"
   y2="0"
   gradientUnits="userSpaceOnUse"
   gradientTransform="matrix(309.996,0,0,309.996,20348.3,6051.52)"><stop
     offset="0"
     style="stop-color:rgb(180,144,88);stop-opacity:1"
     id="stop58" /><stop
     offset="1"
     style="stop-color:rgb(176,168,146);stop-opacity:1"
     id="stop60" /></linearGradient>
        <linearGradient
   id="_Linear4"
   x1="0"
   y1="0"
   x2="1"
   y2="0"
   gradientUnits="userSpaceOnUse"
   gradientTransform="matrix(313.184,0,0,313.184,20345.1,6051.52)"><stop
     offset="0"
     style="stop-color:rgb(196,185,175);stop-opacity:1"
     id="stop63" /><stop
     offset="1"
     style="stop-color:rgb(176,168,146);stop-opacity:1"
     id="stop65" /></linearGradient>
        <linearGradient
   id="_Linear5"
   x1="0"
   y1="0"
   x2="1"
   y2="0"
   gradientUnits="userSpaceOnUse"
   gradientTransform="matrix(-628.52,628.52,-628.52,-628.52,20952.3,5393.98)"><stop
     offset="0"
     style="stop-color:rgb(196,185,175);stop-opacity:1"
     id="stop68" /><stop
     offset="1"
     style="stop-color:rgb(190,197,175);stop-opacity:1"
     id="stop70" /></linearGradient>
        <linearGradient
   id="_Linear6"
   x1="0"
   y1="0"
   x2="1"
   y2="0"
   gradientUnits="userSpaceOnUse"
   gradientTransform="matrix(628.52,-628.52,-628.52,-628.52,20323.7,6022.5)"><stop
     offset="0"
     style="stop-color:rgb(125,128,106);stop-opacity:1"
     id="stop73" /><stop
     offset="0.53"
     style="stop-color:rgb(176,169,156);stop-opacity:1"
     id="stop75" /><stop
     offset="1"
     style="stop-color:rgb(196,185,175);stop-opacity:1"
     id="stop77" /></linearGradient>
        <linearGradient
   id="_Linear7"
   x1="0"
   y1="0"
   x2="1"
   y2="0"
   gradientUnits="userSpaceOnUse"
   gradientTransform="matrix(-628.52,629.142,-629.142,-628.52,20952.3,5393.36)"><stop
     offset="0"
     style="stop-color:rgb(180,144,88);stop-opacity:1"
     id="stop80" /><stop
     offset="1"
     style="stop-color:rgb(125,128,106);stop-opacity:1"
     id="stop82" /></linearGradient>
        <linearGradient
   id="_Linear8"
   x1="0"
   y1="0"
   x2="1"
   y2="0"
   gradientUnits="userSpaceOnUse"
   gradientTransform="matrix(628.52,-628.52,-628.52,-628.52,20323.7,6022.5)"><stop
     offset="0"
     style="stop-color:rgb(190,197,175);stop-opacity:1"
     id="stop85" /><stop
     offset="0.51"
     style="stop-color:rgb(186,178,150);stop-opacity:1"
     id="stop87" /><stop
     offset="1"
     style="stop-color:rgb(172,121,74);stop-opacity:1"
     id="stop89" /></linearGradient>
    </defs>
</svg>
