<?xml version="1.0" encoding="UTF-8" standalone="no"?>
<!-- Created with Inkscape (http://www.inkscape.org/) -->

<svg
   width="680"
   height="680"
   viewBox="0 0 179.91666 179.91667"
   version="1.1"
   id="svg8"
   xmlns="http://www.w3.org/2000/svg"
   xmlns:svg="http://www.w3.org/2000/svg"
   xmlns:rdf="http://www.w3.org/1999/02/22-rdf-syntax-ns#"
   xmlns:cc="http://creativecommons.org/ns#"
   xmlns:dc="http://purl.org/dc/elements/1.1/">
  <defs
     id="defs2" />
  <metadata
     id="metadata5">
    <rdf:RDF>
      <cc:Work
         rdf:about="">
        <dc:format>image/svg+xml</dc:format>
        <dc:type
           rdf:resource="http://purl.org/dc/dcmitype/StillImage" />
      </cc:Work>
    </rdf:RDF>
  </metadata>
  <g
     id="layer1"
     transform="translate(-0.30560355,-43.522149)">
    <path
       style="fill:#d8d8dd;fill-opacity:1;stroke-width:0.20466985"
       d="M 85.624161,219.78174 C 75.507607,218.76697 67.410951,215.8915 59.426429,210.47783 51.54059,205.13106 45.129472,197.5867 41.188378,189.01597 c -0.646522,-1.406 -1.144986,-2.58688 -1.107685,-2.62418 0.03729,-0.0373 1.112721,0.16561 2.38983,0.45089 9.5755,2.13904 20.208064,1.66486 29.54664,-1.31769 6.018431,-1.92217 12.276383,-5.14516 16.903713,-8.70581 0.646213,-0.49725 1.234973,-0.90409 1.308361,-0.90409 0.07341,0 0.662147,0.40684 1.30836,0.90409 4.627331,3.56065 10.885293,6.78364 16.903723,8.70581 9.33857,2.98255 19.97114,3.45673 29.54664,1.31769 1.27711,-0.28528 2.35253,-0.48818 2.38983,-0.45089 0.15574,0.15576 -2.38755,5.35528 -3.66833,7.49952 -8.6906,14.54966 -23.94235,24.09957 -41.231658,25.81722 -1.955989,0.19433 -8.184858,0.2406 -9.853641,0.0732 z M 50.830296,185.82469 c -0.393995,-0.046 -1.591311,-0.18345 -2.660713,-0.30551 -2.381429,-0.27183 -5.364065,-0.8337 -7.534483,-1.41934 l -1.628929,-0.43953 -0.530891,-1.87708 c -3.623565,-12.81203 -2.223639,-26.55989 3.890457,-38.20597 0.995287,-1.89583 3.855864,-6.37757 4.955086,-7.76327 l 0.394644,-0.49749 2.227244,2.23718 c 5.807621,5.83353 12.839409,10.32741 20.638223,13.18951 1.013118,0.3718 1.95076,0.77662 2.083657,0.8996 0.132889,0.12297 0.530473,0.95526 0.883516,1.84953 2.718629,6.88637 7.660191,14.11997 13.137341,19.23084 l 1.810151,1.68908 -1.589223,1.14334 c -5.670981,4.0799 -11.881544,6.99256 -18.468027,8.66125 -4.365088,1.10591 -7.660867,1.52873 -12.593643,1.61568 -2.363939,0.0417 -4.620423,0.0381 -5.01441,-0.008 z m 70.918094,-0.002 c -11.29703,-1.11553 -19.74768,-4.18954 -28.16535,-10.24539 l -1.558266,-1.12105 2.600446,-2.59675 c 2.923474,-2.91931 5.341275,-5.86666 7.41897,-9.04384 1.56703,-2.3963 3.88258,-6.83249 4.86426,-9.31908 0.35411,-0.89692 0.75255,-1.73138 0.88544,-1.85435 0.1329,-0.12298 1.07054,-0.52781 2.08366,-0.89961 7.77828,-2.85456 14.67862,-7.25677 20.578,-13.12815 l 2.25967,-2.24895 0.4006,0.4727 c 0.90285,1.06531 3.91595,5.71912 4.8796,7.53663 2.66371,5.02394 4.54954,10.76614 5.44363,16.57543 0.18191,1.18197 0.38566,3.81341 0.45277,5.84765 0.18491,5.60566 -0.35464,10.25897 -1.80583,15.57408 l -0.62391,2.2851 -1.56771,0.41868 c -4.46983,1.19374 -8.0246,1.66916 -13.13156,1.75625 -2.30765,0.0394 -4.56414,0.0352 -5.01442,-0.009 z M 33.331021,181.58098 C 16.045394,174.06408 4.4949528,159.33454 1.5710453,141.07957 1.0014611,137.52346 1.0491198,128.85962 1.6575365,125.35536 2.6048555,119.89915 3.8555784,115.97804 6.1928061,111.13697 11.283883,100.59186 19.572009,92.186837 30.076326,86.916581 c 2.303415,-1.155674 5.405063,-2.489027 5.789984,-2.489027 0.09401,0 -0.08661,1.055751 -0.401375,2.346111 -1.1076,4.540528 -1.310859,6.477554 -1.310859,12.492455 0,6.27684 0.214051,8.14028 1.529172,13.31249 1.771519,6.96717 5.360908,14.31405 9.679776,19.81284 l 0.940016,1.19685 -0.985648,1.25919 c -3.703303,4.73105 -7.175538,11.56867 -8.915914,17.55745 -1.635636,5.62835 -2.274546,10.78803 -2.085234,16.83981 0.129447,4.13809 0.438297,6.58901 1.291899,10.25195 0.28856,1.23825 0.572725,2.45859 0.631485,2.71188 0.150657,0.64947 -0.09286,0.59693 -2.908607,-0.62755 z m 110.887569,0.6276 c 0.0586,-0.25329 0.3448,-1.47363 0.63599,-2.71188 1.01395,-4.31176 1.24423,-6.55194 1.24128,-12.07552 -0.003,-5.45818 -0.189,-7.24786 -1.24275,-11.95143 -1.59463,-7.11793 -5.05861,-14.48907 -9.64645,-20.52714 l -1.04,-1.36876 0.93441,-1.18962 c 1.65591,-2.10817 4.13271,-6.03365 5.4641,-8.66007 2.5375,-5.00565 4.12547,-9.776 5.17796,-15.5549 0.50028,-2.74681 0.54112,-3.40192 0.5487,-8.80081 0.009,-6.267459 -0.21806,-8.380998 -1.39879,-13.030839 -0.26676,-1.050531 -0.40511,-1.910057 -0.30748,-1.910057 0.39086,0 3.47618,1.324822 5.79659,2.489027 16.14786,8.101747 26.92107,23.625219 28.79122,41.486229 0.3803,3.63208 0.14714,10.09105 -0.49606,13.74164 -2.85656,16.21299 -12.91115,29.89826 -27.58636,37.5477 -2.39734,1.24961 -6.3338,2.97693 -6.78424,2.97693 -0.10707,0 -0.14673,-0.20723 -0.0881,-0.4605 z M 87.519395,170.44017 c -4.095442,-4.05797 -7.437255,-8.58296 -9.862774,-13.35471 -1.394047,-2.7425 -2.155604,-4.47663 -2.023821,-4.60841 0.05129,-0.0513 1.099964,0.13142 2.33042,0.406 4.375613,0.97641 6.790088,1.21572 12.266017,1.21572 5.475928,0 7.890403,-0.23931 12.266023,-1.21572 1.23046,-0.27458 2.27914,-0.45728 2.33041,-0.406 0.27724,0.27724 -2.75248,6.24632 -4.62454,9.11116 -0.772372,1.18196 -2.176173,3.11609 -3.11957,4.29806 -1.869622,2.34244 -6.421167,6.95877 -6.861103,6.95877 -0.150697,0 -1.366169,-1.08219 -2.701062,-2.40487 z m -0.871882,-19.0931 c -4.409992,-0.28325 -11.730438,-1.68366 -12.28329,-2.3498 -0.341432,-0.4114 -1.527091,-5.37105 -1.958116,-8.19088 -0.277644,-1.81634 -0.376582,-3.66318 -0.383358,-7.15562 -0.01129,-5.8088 0.371182,-8.83386 1.766142,-13.96987 l 0.625691,-2.30369 1.05089,-0.30147 c 4.328581,-1.24174 7.933488,-1.75556 13.252593,-1.88896 5.918054,-0.14841 10.343247,0.32143 15.423525,1.63758 l 1.83682,0.47587 0.4645,1.5235 c 2.14578,7.03793 2.65756,15.74848 1.3702,23.32084 -0.4067,2.39223 -1.45458,6.53426 -1.74013,6.87832 -0.26883,0.32393 -4.75641,1.40707 -7.554611,1.82342 -2.147575,0.31954 -7.448061,0.72805 -8.800808,0.67829 -0.393987,-0.0145 -1.775511,-0.0944 -3.070048,-0.17753 z m -17.225852,-3.96006 c -4.430538,-1.80562 -9.370717,-4.72331 -13.269954,-7.83729 -1.919276,-1.53276 -6.54943,-6.02622 -6.54943,-6.35607 0,-0.41903 5.332952,-5.36115 7.742066,-7.17468 3.935053,-2.96222 8.561471,-5.55128 12.91579,-7.22797 0.846711,-0.32605 1.558111,-0.59281 1.580876,-0.59281 0.02274,0 -0.138265,0.62169 -0.357838,1.38153 -0.219574,0.75983 -0.621111,2.57884 -0.892312,4.04222 -1.412179,7.62025 -1.212432,15.06283 0.606166,22.58538 0.262397,1.08538 0.457217,1.99327 0.432943,2.01755 -0.02429,0.0243 -1.018014,-0.35276 -2.208307,-0.83786 z m 39.392579,0.62098 c 0.061,-0.15901 0.34982,-1.35419 0.64178,-2.65597 1.87502,-8.36013 1.74791,-17.13578 -0.3661,-25.27497 l -0.49089,-1.88999 0.43459,0.13588 c 0.74018,0.23142 4.66358,1.93285 5.92274,2.56847 2.41029,1.21671 5.76042,3.32288 8.16658,5.13418 2.38992,1.79909 7.73326,6.74896 7.73326,7.1638 0,0.33206 -4.66276,4.86508 -6.54943,6.3672 -2.92951,2.33239 -6.49348,4.5828 -9.92649,6.26792 -3.80919,1.86977 -5.73567,2.62549 -5.56604,2.18348 z M 46.381309,129.19968 c -6.707258,-9.38698 -10.020728,-20.31757 -9.601307,-31.67314 0.06862,-1.857379 0.267217,-4.344118 0.441352,-5.526085 0.322859,-2.191347 1.630314,-7.805971 1.962587,-8.427912 0.309136,-0.578634 4.393864,-1.555693 8.90274,-2.129518 3.488085,-0.443914 10.156325,-0.439239 13.488778,0.0095 9.612391,1.294253 17.762413,4.501396 25.414871,10.001098 l 1.468494,1.055384 -2.541841,2.525302 C 80.494662,100.4213 76.262481,106.70455 73.632896,113.27165 l -0.866297,2.1635 -2.525518,0.96551 c -7.485587,2.86174 -13.758076,6.86124 -19.430975,12.38968 l -2.783228,2.71235 z m 83.853941,0.13227 c -5.18998,-5.24111 -12.02595,-9.77674 -18.61801,-12.35294 -4.41911,-1.72701 -3.79604,-1.22971 -4.88324,-3.89756 -2.69435,-6.61163 -6.827502,-12.73763 -12.162859,-18.027352 -2.168268,-2.149723 -2.421174,-2.471554 -2.175161,-2.767982 0.53527,-0.644951 5.741235,-3.951593 8.17453,-5.192165 8.03817,-4.0981 15.93992,-5.984937 25.06662,-5.985587 5.35743,-4.09e-4 9.55948,0.528154 14.35841,1.806016 l 1.25955,0.335393 0.65761,2.482145 c 3.25972,12.303892 2.1433,24.476582 -3.28736,35.843332 -1.40385,2.93835 -4.65183,8.12821 -6.11417,9.76969 -0.0736,0.0826 -1.09776,-0.82323 -2.27592,-2.01299 z M 76.126506,113.03028 c 1.564268,-3.66694 4.12512,-7.9583 6.809087,-11.41034 1.419528,-1.82577 5.866287,-6.511424 6.832079,-7.199127 l 0.564014,-0.401618 2.275924,2.21418 c 3.690686,3.590565 6.674297,7.396895 9.19565,11.731325 0.82819,1.42374 3.29091,6.59129 3.18955,6.69266 -0.0247,0.0247 -0.63963,-0.0967 -1.36649,-0.26973 -4.954261,-1.17955 -9.271133,-1.59595 -15.034445,-1.45021 -4.696942,0.11877 -7.329792,0.42731 -10.915048,1.27909 -1.16284,0.27626 -2.149432,0.5023 -2.192442,0.5023 -0.04301,0 0.245952,-0.75984 0.642121,-1.68853 z M 89.610114,90.632718 C 86.533236,88.095481 78.977542,83.918126 74.498303,82.277765 64.404033,78.581101 52.859935,77.808341 42.431551,80.131225 c -1.006728,0.224244 -1.918951,0.407718 -2.027148,0.407718 -0.291344,0 1.619531,-4.170002 3.070194,-6.699941 7.950238,-13.86507 21.880523,-23.445384 37.863496,-26.03997 22.765607,-3.695638 45.104297,7.013933 56.123927,26.906821 1.26106,2.276494 2.73223,5.568739 2.56374,5.737235 -0.06,0.05999 -0.92734,-0.07061 -1.92744,-0.290215 -15.09132,-3.313861 -30.76217,-0.47076 -43.571017,7.904922 -1.125685,0.736083 -2.555556,1.72954 -3.177494,2.20768 l -1.130799,0.869347 z"
       id="path826" />
  </g>
</svg>
