<?xml version="1.0" encoding="UTF-8" standalone="no"?>
<!-- Created with Inkscape (http://www.inkscape.org/) -->

<svg
   xmlns:dc="http://purl.org/dc/elements/1.1/"
   xmlns:cc="http://creativecommons.org/ns#"
   xmlns:rdf="http://www.w3.org/1999/02/22-rdf-syntax-ns#"
   xmlns:svg="http://www.w3.org/2000/svg"
   xmlns="http://www.w3.org/2000/svg"
   version="1.2"
   width="128"
   height="128"
   id="svg4158">
  <metadata
     id="metadata9">
    <rdf:RDF>
      <cc:Work
         rdf:about="">
        <dc:format>image/svg+xml</dc:format>
        <dc:type
           rdf:resource="http://purl.org/dc/dcmitype/StillImage" />
        <dc:title></dc:title>
      </cc:Work>
    </rdf:RDF>
  </metadata>
  <defs
     id="defs7" />
  <path
     d="M 78.695835,100.38441 C 69.290216,98.108596 71.488957,91.122255 70.175711,82.419076 68.441986,70.929415 60.085052,71.3862 56.695605,80.836829 54.500457,86.957463 55.161395,98.603736 47.855221,100.56011 15.030909,105.98736 -7.4888804,151.57907 2.3126518,85.689645 4.959427,73.175416 21.450949,45.983443 32.11505,35.63764 47.106632,21.093533 51.092792,22.628615 54.576179,32.341243 c 1.764572,4.920107 1.785761,10.005893 0.08379,20.100672 -1.900588,11.27207 -2.30112,14.09838 0.157274,16.360533 1.620963,1.491633 1.635492,1.991522 4.13719,1.296325 1.187449,-0.32989 0.189927,-15.199915 0.659634,-31.871076 0.919581,-32.6373648 2.437084,-31.2448978 7.328495,-31.1649088 5.026399,0.08206 3.767918,3.4429858 2.980388,30.2185158 -0.786009,26.724649 -1.828217,32.244329 -1.311596,32.981248 0.361627,0.308986 2.525245,1.451897 4.273888,-0.324103 1.066334,-1.083049 1.824104,-4.161938 1.422493,-18.574228 -0.337302,-12.104094 -0.488953,-11.118915 2.777874,-17.410584 3.606014,-6.944799 5.976188,-10.002611 12.220667,-6.339266 8.138459,4.774554 9.811077,7.083786 18.269474,19.149182 12.31107,17.560975 16.53276,28.383948 20.21572,48.958593 2.58687,47.408654 -19.1863,14.970834 -49.095592,4.662174 z"
     id="path3"
     style="fill:#006680;fill-opacity:1" />
</svg>
