<?xml version="1.0" encoding="UTF-8" standalone="no"?>
<!-- Created with Inkscape (http://www.inkscape.org/) -->

<svg
   xmlns:dc="http://purl.org/dc/elements/1.1/"
   xmlns:cc="http://creativecommons.org/ns#"
   xmlns:rdf="http://www.w3.org/1999/02/22-rdf-syntax-ns#"
   xmlns:svg="http://www.w3.org/2000/svg"
   xmlns="http://www.w3.org/2000/svg"
   version="1.1"
   width="128"
   height="128"
   id="svg4158">
  <metadata
     id="metadata7">
    <rdf:RDF>
      <cc:Work
         rdf:about="">
        <dc:format>image/svg+xml</dc:format>
        <dc:type
           rdf:resource="http://purl.org/dc/dcmitype/StillImage" />
        <dc:title></dc:title>
      </cc:Work>
    </rdf:RDF>
  </metadata>
  <defs
     id="defs6" />
  <path
     d="m 78.833596,127.85387 c -5.84577,-1.27825 -6.234073,-3.50165 -3.056362,-17.49908 0.645296,-2.84259 1.196524,-11.720683 1.225022,-19.729447 0.04157,-11.753601 -0.307837,-14.909193 -1.812804,-16.36595 -3.67385,-3.556219 -4.777349,-2.062119 -6.853469,9.280301 -3.187757,17.415116 -12.350775,36.642356 -20.108445,42.195136 -3.058352,2.18902 -3.567572,2.23898 -6.525623,0.63905 -4.857731,-2.62762 -4.776658,-6.89441 0.270937,-14.25543 C 51.720629,97.90307 55.839431,82.631978 55.694869,61.241923 55.640299,53.196434 55.218389,44.333134 54.756894,41.54564 l -0.839229,-5.068075 -9.281346,0.264422 c -6.849311,0.195228 -10.03603,-0.214114 -12.161347,-1.562165 -3.377795,-2.142365 -3.830108,-6.840441 -1.031086,-10.708777 1.746455,-2.41349 15.870192,-12.387664 16.360096,-11.5534 0.641744,1.09268 3.067976,8.295027 2.830213,8.401475 -3.02077,1.351794 -10.399569,6.690124 -9.906719,7.167182 0.369594,0.357728 4.683977,0.02437 9.587536,-0.741742 4.903551,-0.765678 9.91875,-1.083977 11.144897,-0.707274 3.071172,0.943584 8.377923,-1.1859 12.627778,-5.067206 1.957713,-1.787857 6.228961,-5.663505 9.491816,-8.612543 l 5.932385,-5.3618305 -4.152671,0.731819 c -2.283998,0.402553 -5.024726,0.967434 -6.090547,1.25527 -1.271101,0.3432775 -2.765154,-0.833917 -4.3421,-3.421047 l -2.404222,-3.944322 5.164095,-1.258664 c 16.18175,-3.944147 24.503107,0.969173 19.021048,11.2308335 -1.674996,3.135388 -9.220618,10.361931 -12.901312,12.355808 -1.685303,0.912945 -1.533811,2.666858 1.475777,17.085301 9.957381,47.705195 6.874515,88.736175 -6.44836,85.823075 z M 54.6423,22.426336 C 45.630767,15.086382 51.132068,1.2484855 63.061453,1.2484855 c 3.254974,0 5.512121,0.907289 8.337995,3.351329 3.326604,2.877144 3.874716,4.108911 3.874716,8.7078505 0,4.59885 -0.548112,5.830618 -3.874716,8.70785 -5.127975,4.435132 -11.620857,4.594325 -16.757148,0.410821 z"
     id="path5369"
     style="fill:#006680;fill-opacity:1" />
</svg>
