<?xml version="1.0" encoding="UTF-8" standalone="no"?>
<svg
   xmlns:dc="http://purl.org/dc/elements/1.1/"
   xmlns:cc="http://creativecommons.org/ns#"
   xmlns:rdf="http://www.w3.org/1999/02/22-rdf-syntax-ns#"
   xmlns:svg="http://www.w3.org/2000/svg"
   xmlns="http://www.w3.org/2000/svg"
   version="1.1"
   id="svg2"
   viewBox="0 0 453.5433 453.5433"
   height="128mm"
   width="128mm">
  <g
     transform="translate(-94.741614,119.24912)"
     id="layer1">
    <path
       id="path4147"
       d="m 107.03889,229.76536 c -7.03395,-3.71777 -11.372686,-11.02976 -11.33488,-19.10265 0.03723,-7.9944 0.866296,-8.91766 71.38108,-79.50113 45.14256,-45.18658 68.78726,-68.19246 71.3831,-69.454498 2.42083,-1.176946 5.84773,-1.887129 9.10603,-1.887129 10.32509,0 18.22228,10.78163 52.69272,52.031197 24.57225,29.4048 37.67189,46.68488 38.44515,47.73506 1.33661,1.81525 3.84505,-2.37943 69.40994,-66.340093 l 68.00401,-68.249504 -9.54701,-0.520904 c -10.74634,-0.586339 -14.01726,-1.861906 -18.39573,-7.173748 -8.64556,-10.4885775 -5.35412,-25.9975434 6.76223,-31.862968 3.99817,-1.935484 5.4406,-1.995125 48.24931,-1.995125 l 44.12793,0 -0.27443,44.632276 -0.27443,44.632273 -2.6508,4.509454 c -6.26791,10.66275 -21.07409,13.253121 -30.64757,5.361858 -5.65292,-4.659618 -7.27642,-8.877211 -7.27642,-18.902937 0,-4.746687 -0.31616,-8.630344 -0.70259,-8.630344 -0.38641,0 -35.72228,34.953905 -78.52416,77.675342 -72.77136,72.63462 -78.11555,77.75387 -82.35173,78.8856 -5.11493,1.36648 -10.46449,0.79522 -15.63773,-1.66989 -2.61406,-1.24564 -7.19988,-7.64558 -41.19458,-48.44189 -24.93994,-29.92988 -39.99692,-49.10628 -40.46119,-49.61537 -0.51869,-0.56882 -23.56154,21.77292 -59.77812,57.95928 -40.9119,40.87772 -60.01958,59.3347 -62.48366,60.35576 -4.92196,2.0396 -13.75256,1.82899 -18.02647,-0.42992 z"
       style="fill:#000000;" />
  </g>
</svg>
