<?xml version="1.0" encoding="UTF-8" standalone="no"?>
<!-- Created with Inkscape (http://www.inkscape.org/) -->

<svg
   xmlns:dc="http://purl.org/dc/elements/1.1/"
   xmlns:cc="http://creativecommons.org/ns#"
   xmlns:rdf="http://www.w3.org/1999/02/22-rdf-syntax-ns#"
   xmlns:svg="http://www.w3.org/2000/svg"
   xmlns="http://www.w3.org/2000/svg"
   version="1.1"
   width="128"
   height="128"
   id="svg2">
  <metadata
     id="metadata10">
    <rdf:RDF>
      <cc:Work
         rdf:about="">
        <dc:format>image/svg+xml</dc:format>
        <dc:type
           rdf:resource="http://purl.org/dc/dcmitype/StillImage" />
        <dc:title></dc:title>
      </cc:Work>
    </rdf:RDF>
  </metadata>
  <defs
     id="defs8" />
  <path
     d="M 10.399554,96.823885 C 4.6652646,96.823885 0,100.85567 0,105.81094 c 0,4.95564 4.6652646,8.98742 10.399554,8.98742 5.733858,0 10.399123,-4.03178 10.399123,-8.98742 0,-4.95527 -4.664833,-8.987055 -10.399123,-8.987055 z M 128,54.654227 c 0,-12.334989 -11.61242,-22.370583 -25.88594,-22.370583 -2.758294,0 -5.499316,0.383357 -8.103418,1.123942 -1.410248,-5.032169 -4.510196,-9.614909 -8.982392,-13.186065 -5.668207,-4.526749 -13.042532,-7.019876 -20.764991,-7.019876 -14.302896,0 -26.564928,8.656329 -29.784527,20.351146 -2.748796,-0.836144 -5.65611,-1.269147 -8.592364,-1.269147 C 11.612411,32.284017 0,42.319238 0,54.654227 c 0,8.970629 6.2845671,17.045018 15.634102,20.539651 -0.320059,1.461386 -0.481169,2.948901 -0.481169,4.447987 0,13.17076 12.398522,23.885725 27.63784,23.885725 8.337094,0 16.102313,-3.22998 21.29626,-8.657455 5.193513,5.427475 12.960031,8.657455 21.297125,8.657455 15.238882,0 27.636972,-10.714965 27.636972,-23.885725 0,-1.518497 -0.16629,-3.026542 -0.49499,-4.508831 C 121.77979,71.604805 128,63.554307 128,54.654227 z M 94.594617,78.931143 H 74.293946 V 76.560451 L 86.613859,59.520659 H 73.862017 v -4.479342 h 20.7326 v 2.532694 l -12.43913,17.251068 h 12.43913 v 4.106064 z M 33.260692,59.520659 v -4.479342 h 20.300663 v 2.532694 L 41.215097,74.825079 h 12.346258 v 4.106064 H 33.260692 V 76.560451 L 45.673468,59.520659 H 33.260692 z M 53.561355,47.202467 V 43.096403 H 73.862017 V 45.32189 L 61.788739,62.506887 H 74.293946 V 66.98623 H 53.561355 v -2.6779 L 66.247541,47.202467 H 53.561355 z"
     id="path4"
     style="fill:#006680;fill-opacity:1" />
</svg>
