<?xml version="1.0" encoding="UTF-8" standalone="no"?>
<!-- Created with Inkscape (http://www.inkscape.org/) -->

<svg
   xmlns:dc="http://purl.org/dc/elements/1.1/"
   xmlns:cc="http://creativecommons.org/ns#"
   xmlns:rdf="http://www.w3.org/1999/02/22-rdf-syntax-ns#"
   xmlns:svg="http://www.w3.org/2000/svg"
   xmlns="http://www.w3.org/2000/svg"
   xmlns:sodipodi="http://sodipodi.sourceforge.net/DTD/sodipodi-0.dtd"
   xmlns:inkscape="http://www.inkscape.org/namespaces/inkscape"
   width="33.566605mm"
   height="29.382341mm"
   viewBox="0 0 33.566605 29.382341"
   version="1.1"
   id="svg8"
   inkscape:version="0.92.3 (2405546, 2018-03-11)"
   sodipodi:docname="Smoke.svg">
  <defs
     id="defs2" />
  <sodipodi:namedview
     id="base"
     pagecolor="#ffffff"
     bordercolor="#666666"
     borderopacity="1.0"
     inkscape:pageopacity="0.0"
     inkscape:pageshadow="2"
     inkscape:zoom="1.979899"
     inkscape:cx="194.05397"
     inkscape:cy="-15.47074"
     inkscape:document-units="mm"
     inkscape:current-layer="layer1"
     showgrid="false"
     fit-margin-top="0"
     fit-margin-left="0"
     fit-margin-right="0"
     fit-margin-bottom="0"
     showborder="true"
     inkscape:window-width="1853"
     inkscape:window-height="1025"
     inkscape:window-x="67"
     inkscape:window-y="27"
     inkscape:window-maximized="1" />
  <metadata
     id="metadata5">
    <rdf:RDF>
      <cc:Work
         rdf:about="">
        <dc:format>image/svg+xml</dc:format>
        <dc:type
           rdf:resource="http://purl.org/dc/dcmitype/StillImage" />
        <dc:title></dc:title>
      </cc:Work>
    </rdf:RDF>
  </metadata>
  <g
     inkscape:label="Capa 1"
     inkscape:groupmode="layer"
     id="layer1"
     transform="translate(-95.866125,-43.732386)">
    <path
       style="fill:#000000;stroke-width:0.26458332"
       d="m 102.11319,71.422341 c -1.71851,-1.73005 -1.87913,-1.97635 -1.49613,-2.29421 0.37558,-0.311709 0.66526,-0.119888 2.32423,1.539081 1.68916,1.689163 1.85179,1.938541 1.49612,2.294207 -0.35566,0.355666 -0.6083,0.18837 -2.32422,-1.539078 z m 1.67666,-1.76321 c -1.6316,-1.644196 -1.79145,-1.893818 -1.43867,-2.246596 0.35278,-0.352777 0.60082,-0.19135 2.23242,1.452846 1.6316,1.644197 1.79145,1.893819 1.43867,2.246595 -0.35277,0.352777 -0.60082,0.191352 -2.23242,-1.452845 z m 1.60649,-1.568363 -1.8189,-1.832944 11.08534,-11.262719 11.08535,-11.262719 1.8423,1.842304 1.8423,1.842304 -2.22941,2.323673 c -2.43635,2.539369 -19.87026,20.183047 -19.94309,20.183047 -0.0247,0 -0.86349,-0.824825 -1.86389,-1.832946 z m -7.087071,0.0118 c -0.49378,-0.433537 -1.24859,-1.42153 -1.67735,-2.195533 -0.67486,-1.21826 -0.77758,-1.673812 -0.7648,-3.391655 0.0156,-2.094312 0.25519,-2.768748 1.77043,-4.983443 1.63192,-2.385243 1.15007,-4.565622 -1.32841,-6.011108 -0.16458,-0.09599 0.27991,-0.911698 0.4968,-0.911698 0.62025,0 2.3685,1.982765 2.6412,2.995514 0.41238,1.531457 0.16096,2.621474 -1.07738,4.671003 -0.59271,0.980972 -1.19324,2.186604 -1.33451,2.679183 -0.65485,2.283326 0.044,4.646713 1.87348,6.335669 0.88278,0.814976 0.99266,1.024076 0.67619,1.286722 -0.30249,0.251045 -0.55698,0.156351 -1.27565,-0.474649 z m 1.59681,-2.081459 c -1.27864,-1.337592 -1.54019,-1.920846 -1.54019,-3.434596 0,-1.079436 0.19125,-1.577745 1.18786,-3.095117 2.699391,-4.109891 2.296391,-6.857787 -1.4256,-9.720757 -0.61671,-0.474372 -0.84679,-0.828269 -0.73236,-1.126467 0.14902,-0.388336 0.2451,-0.394106 0.8992,-0.054 1.11551,0.580018 2.729281,2.291953 3.274951,3.474166 0.65203,1.41263 0.65435,4.135096 0.005,5.55625 -0.26608,0.582083 -0.85877,1.64719 -1.31711,2.366904 -1.369731,2.150862 -0.998571,4.624394 0.87845,5.854264 0.53232,0.348788 0.61366,0.5231 0.37711,0.808126 -0.43264,0.521297 -0.55248,0.474405 -1.607041,-0.628774 z m 3.690301,-11.76629 c -0.26879,-3.311163 -2.38679,-6.149255 -5.752451,-7.708198 -1.39838,-0.647719 -1.77626,-0.935397 -1.60105,-1.21889 0.55883,-0.904207 4.845221,1.457754 6.344011,3.495784 0.9348,1.271138 1.73831,3.277566 1.99318,4.977113 0.14708,0.980819 0.089,1.266809 -0.33547,1.650916 -0.502,0.454309 -0.51635,0.427829 -0.64822,-1.196725 z"
       id="path3788"
       inkscape:connector-curvature="0" />
  </g>
</svg>
