<?xml version="1.0" encoding="UTF-8" standalone="no"?>
<!-- Created with Inkscape (http://www.inkscape.org/) -->

<svg
   xmlns:dc="http://purl.org/dc/elements/1.1/"
   xmlns:cc="http://creativecommons.org/ns#"
   xmlns:rdf="http://www.w3.org/1999/02/22-rdf-syntax-ns#"
   xmlns:svg="http://www.w3.org/2000/svg"
   xmlns="http://www.w3.org/2000/svg"
   version="1.1"
   width="128"
   height="128"
   id="svg6041">
  <metadata
     id="metadata9">
    <rdf:RDF>
      <cc:Work
         rdf:about="">
        <dc:format>image/svg+xml</dc:format>
        <dc:type
           rdf:resource="http://purl.org/dc/dcmitype/StillImage" />
        <dc:title></dc:title>
      </cc:Work>
    </rdf:RDF>
  </metadata>
  <defs
     id="defs7" />
  <g
     transform="matrix(1.0044018,0,0,1.0044018,-610.38406,-731.85)"
     id="layer1">
    <path
       d="m 676.01141,728.64421 c -34.58823,0.19679 -61.98624,19.01556 -53.81251,54.81249 0,7.4569 -16.50575,19.0244 -12.53125,22.9375 3.9741,3.9132 10.71875,4.0625 10.71875,4.0625 0,0 -4.37795,7.47195 -2.40625,9.53125 1.97,2.0595 7.4375,1.15625 7.4375,1.15625 0,0 -5.09375,3.29515 -5.09375,5.84375 0,2.5515 8.625,5.9375 8.625,5.9375 0,0 -1.6028,14.1034 11.3125,13.125 12.91481,-0.978 15.09376,-4.25 15.09376,-4.25 l 3.84375,14.28125 49.96872,0 -1.74999,-31 c -2e-4,0 30.70029,-29.84175 25.87499,-56.53124 -2.4218,-10.6557 -0.87245,-32.96015 -42.09372,-38.84375 -5.15129,-0.73617 -10.24633,-1.09062 -15.1875,-1.0625 z m 1.34375,11.15625 14.53125,0 c 0.56061,0 1.02247,0.13466 1.40625,0.4375 0.3833,0.30245 0.59375,0.68276 0.59375,1.09375 0,0.1938 -0.0712,0.38316 -0.21875,0.625 l -7.59375,16.8125 17.56248,-3.5625 c 0.23734,-0.0482 0.41181,-0.0625 0.53125,-0.0625 0.56061,8.9e-4 1.05775,0.16868 1.5,0.53125 0.53238,0.48355 0.63748,1.01335 0.3125,1.59375 l -23.93748,41.99999 c -0.38424,0.60505 -0.98748,0.90625 -1.84375,0.90625 -0.11789,0 -0.3298,-0.0146 -0.625,-0.0625 -0.50166,-0.12085 -0.87386,-0.37956 -1.125,-0.71875 -0.25134,-0.33842 -0.3054,-0.67553 -0.1875,-1.0625 l 8.71875,-29.34374 -18,3.6875 c -0.11805,0.0244 -0.29484,0.0312 -0.53125,0.0312 -0.5316,0 -0.99139,-0.1395 -1.375,-0.40625 -0.53166,-0.3632 -0.71033,-0.82624 -0.5625,-1.40625 l 8.90625,-29.9375 c 0.11774,-0.3383 0.36445,-0.6258 0.71875,-0.84375 0.3546,-0.2177 0.7464,-0.3125 1.21875,-0.3125 z"
       id="path3833"
       style="fill:#006680;fill-opacity:1" />
  </g>
</svg>
