<?xml version="1.0" encoding="UTF-8" standalone="no"?>
<!-- Created with Inkscape (http://www.inkscape.org/) -->

<svg
   xmlns:dc="http://purl.org/dc/elements/1.1/"
   xmlns:cc="http://creativecommons.org/ns#"
   xmlns:rdf="http://www.w3.org/1999/02/22-rdf-syntax-ns#"
   xmlns:svg="http://www.w3.org/2000/svg"
   xmlns="http://www.w3.org/2000/svg"
   version="1.2"
   width="128"
   height="128"
   viewBox="0 0 128 127.99999"
   id="svg2">
  <metadata
     id="metadata82">
    <rdf:RDF>
      <cc:Work
         rdf:about="">
        <dc:format>image/svg+xml</dc:format>
        <dc:type
           rdf:resource="http://purl.org/dc/dcmitype/StillImage" />
        <dc:title></dc:title>
      </cc:Work>
    </rdf:RDF>
  </metadata>
  <defs
     id="defs4" />
  <g
     transform="matrix(1.4429688,0,0,1.4429688,-20.951338,-42.786403)"
     id="layer1">
    <g
       transform="matrix(0.81902976,0,0,0.81902976,527.02637,277.30928)"
       id="g6550">
      <path
         d="m -533.764,-256.65303 -2.55359,1.84004 c -1.40321,1.01205 -3.86921,2.76701 -5.48287,3.89888 -1.61365,1.13186 -3.04589,2.23759 -3.18275,2.45917 -0.13699,0.22158 2.24104,2.19622 5.28643,4.38623 3.04551,2.19002 5.60547,3.80916 5.68669,3.598 0.0815,-0.21114 -0.0751,-1.1869 -0.34565,-2.16576 -0.27015,-0.97887 -0.33571,-1.9132 -0.14666,-2.07625 0.18906,-0.16303 3.94674,-0.56555 8.34964,-0.89514 4.40291,-0.3296 8.16301,-0.69246 8.35729,-0.80565 0.19415,-0.11318 0.35303,-0.92326 0.35303,-1.80272 0,-1.44462 -0.14654,-1.62239 -1.52912,-1.82263 -2.71298,-0.3929 -12.41136,-1.23331 -14.23049,-1.23331 -1.66777,0 -1.74695,-0.0661 -1.45452,-1.23084 0.17008,-0.6777 0.43884,-1.89061 0.59925,-2.6929 z m -75.41385,0.69126 c -0.0815,0.21793 0.0713,1.19307 0.34068,2.16826 0.31039,1.12409 0.32324,1.87678 0.0369,2.05387 -0.24863,0.15365 -3.79155,0.54826 -7.8749,0.87774 -4.0833,0.32946 -7.79452,0.70443 -8.24775,0.83299 -0.57264,0.16243 -0.82548,0.7099 -0.82548,1.79776 0,1.93281 -0.18778,1.88258 9.79928,2.66307 l 7.68088,0.59925 -0.28594,1.14131 c -0.15761,0.62756 -0.41808,1.79212 -0.57684,2.58599 l -0.28848,1.44219 3.4911,-2.48653 c 1.91907,-1.36753 4.49061,-3.15481 5.71661,-3.97098 1.22472,-0.81544 2.23315,-1.62979 2.23786,-1.80771 0.014,-0.5327 -11.04429,-8.32691 -11.20432,-7.89721 z"
         id="rect6503-4"
         style="fill:#000000;fill-opacity:1;fill-rule:nonzero;stroke:none" />
      <path
         d="m -571.65448,-301.26417 c -0.92274,0.0223 -1.74835,0.0782 -2.34722,0.17406 l -2.35485,0.37546 -0.2834,2.63572 c -0.15621,1.44952 -0.43769,2.88357 -0.62407,3.18525 -0.56793,0.91897 -5.43347,3.16009 -10.15757,4.67716 -5.7035,1.83153 -7.44816,2.57515 -9.11809,3.88891 -1.3216,1.03971 -1.34274,1.12689 -1.03681,4.39867 0.63655,6.8093 3.31847,14.79452 8.852,26.3572 3.2426,6.77575 3.35425,7.12703 3.3643,10.59508 0.0127,4.19179 -0.51306,5.41055 -5.24912,12.21631 -1.85173,2.66076 -3.41905,5.54014 -3.97348,7.30045 -1.18271,3.75469 -1.60907,13.35373 -0.90505,20.32736 0.61249,6.06674 0.78818,6.30859 5.75633,7.81764 6.26875,1.90404 9.94917,2.26967 21.14546,2.10111 7.75943,-0.11687 11.52921,-0.37327 14.08611,-0.95482 5.64366,-1.28365 8.5061,-2.52039 9.03113,-3.90136 0.90454,-2.37907 1.46139,-13.36725 0.95228,-18.81804 -0.61198,-6.5542 -1.38272,-8.54989 -5.79109,-15.01365 -4.2505,-6.23233 -4.81538,-7.7393 -4.5106,-11.99998 0.19759,-2.76128 0.71281,-4.21701 3.76966,-10.64483 5.56218,-11.69646 7.86357,-18.72063 8.24524,-25.16862 l 0.24126,-4.06299 -2.17332,-1.27311 c -1.19404,-0.69976 -4.77107,-2.12501 -7.94937,-3.16783 -9.54801,-3.13282 -10.72194,-3.97712 -10.72194,-7.71072 0,-1.84782 -0.19249,-2.53122 -0.77583,-2.75507 -1.0568,-0.40552 -4.7036,-0.64602 -7.47196,-0.57936 z"
         id="rect6503-49"
         style="fill:#6db911;fill-opacity:1;fill-rule:nonzero;stroke:none" />
    </g>
  </g>
</svg>
