<?xml version="1.0" encoding="UTF-8" standalone="no"?>
<!-- Created with Inkscape (http://www.inkscape.org/) -->

<svg
   xmlns:dc="http://purl.org/dc/elements/1.1/"
   xmlns:cc="http://creativecommons.org/ns#"
   xmlns:rdf="http://www.w3.org/1999/02/22-rdf-syntax-ns#"
   xmlns:svg="http://www.w3.org/2000/svg"
   xmlns="http://www.w3.org/2000/svg"
   xmlns:sodipodi="http://sodipodi.sourceforge.net/DTD/sodipodi-0.dtd"
   xmlns:inkscape="http://www.inkscape.org/namespaces/inkscape"
   sodipodi:docname="weight-control.svg"
   inkscape:version="0.91 r13725"
   id="svg2"
   viewBox="0 0 128 128.00001"
   height="128.00002"
   width="128"
   version="1.2">
  <sodipodi:namedview
     inkscape:current-layer="svg2"
     inkscape:window-maximized="1"
     inkscape:window-y="24"
     inkscape:window-x="1985"
     inkscape:cy="-59.858373"
     inkscape:cx="133.14676"
     inkscape:zoom="1.4649192"
     showgrid="false"
     id="namedview24"
     inkscape:window-height="1056"
     inkscape:window-width="1855"
     inkscape:pageshadow="2"
     inkscape:pageopacity="0"
     guidetolerance="10"
     gridtolerance="10"
     objecttolerance="10"
     borderopacity="1"
     bordercolor="#666666"
     pagecolor="#ffffff" />
  <metadata
     id="metadata79">
    <rdf:RDF>
      <cc:Work
         rdf:about="">
        <dc:format>image/svg+xml</dc:format>
        <dc:type
           rdf:resource="http://purl.org/dc/dcmitype/StillImage" />
        <dc:title />
      </cc:Work>
    </rdf:RDF>
  </metadata>
  <defs
     id="defs4" />
  <path
     inkscape:connector-curvature="0"
     style="fill:#5f6261;fill-opacity:1;fill-rule:nonzero;stroke:none"
     id="rect5153"
     d="M 6.0752529,6.6179666 C 2.9304232,7.817266 -7.0897234e-6,9.3274866 -7.0897234e-6,12.693257 c 0,0 -2.6981104102766,10.834553 4.3191242897234,18.577669 C 16.088616,53.29719 13.446437,71.581402 2.9578688,85.223279 -2.8603716,90.27227 -7.0897234e-6,114.54267 -7.0897234e-6,114.54267 -0.96901709,117.76594 2.8003073,119.84144 6.0752529,120.61797 c 42.3860381,10.0503 78.9255171,8.5209 115.8494371,0 3.27959,-0.75683 6.0753,-2.70953 6.0753,-6.0753 0,0 3.60695,-16.191288 -4.95787,-26.424468 -12.83125,-17.984446 -14.21067,-28.914768 1.15452,-57.188417 7.41672,-8.030142 3.80335,-18.236528 3.80335,-18.236528 1.29617,-3.1061784 -2.94484,-4.8388897 -6.0753,-6.0752904 -25.999683,-10.2687824 -90.068239,-9.831813 -115.8494371,0 z M 66.174523,9.191407 c 11.86155,0.70853 22.71212,7.10568 29.05549,17.25896 l -5.16148,15.88484 -52.14665,0 -5.15128,-15.85283 c 6.33612,-10.16481 17.18742,-16.57478 29.0548,-17.29029 l 2.17425,8.35611 z"
     sodipodi:nodetypes="ssccssssccssscccccccc" />
  <g
     id="g4261"
     transform="translate(-105.0464,-147.38137)">
    <rect
       style="fill:#000000;fill-opacity:1;fill-rule:nonzero;stroke:none"
       id="rect5359"
       y="167.52585"
       x="167.9162"
       ry="0.78746533"
       height="6.4747148"
       width="2.2412469" />
    <rect
       style="fill:#000000;fill-opacity:1;fill-rule:nonzero;stroke:none"
       id="rect5359-6"
       transform="matrix(0.98931464,-0.14579621,0.14579621,0.98931464,0,0)"
       y="190.05176"
       x="134.77509"
       ry="0.78746533"
       height="6.4747148"
       width="2.2412469" />
    <rect
       style="fill:#000000;fill-opacity:1;fill-rule:nonzero;stroke:none"
       id="rect5359-56"
       transform="matrix(0.92396032,-0.38248832,0.38248832,0.92396032,0,0)"
       y="216.60031"
       x="76.739616"
       ry="0.78746533"
       height="6.4747148"
       width="2.2412469" />
    <rect
       style="fill:#000000;fill-opacity:1;fill-rule:nonzero;stroke:none"
       id="rect5359-9"
       transform="matrix(0.81329081,-0.58185743,0.58185743,0.81329081,0,0)"
       y="227.63509"
       x="17.894175"
       ry="0.78746533"
       height="6.4747148"
       width="2.2412469" />
    <rect
       style="fill:#000000;fill-opacity:1;fill-rule:nonzero;stroke:none"
       id="rect5359-3"
       transform="matrix(0.6830502,-0.73037143,0.73037143,0.6830502,0,0)"
       y="226.07408"
       x="-34.483078"
       ry="0.78746533"
       height="6.4747148"
       width="2.2412469" />
    <rect
       style="fill:#000000;fill-opacity:1;fill-rule:nonzero;stroke:none"
       id="rect5359-6-4"
       transform="matrix(0.98931464,0.14579621,0.14579621,-0.98931464,0,0)"
       y="-147.19917"
       x="197.47537"
       ry="0.78746533"
       height="6.4747148"
       width="2.2412469" />
    <rect
       style="fill:#000000;fill-opacity:1;fill-rule:nonzero;stroke:none"
       id="rect5359-56-7"
       transform="matrix(0.92396032,0.38248832,0.38248832,-0.92396032,0,0)"
       y="-93.722023"
       x="233.4062"
       ry="0.78746533"
       height="6.4747148"
       width="2.2412469" />
    <rect
       style="fill:#000000;fill-opacity:1;fill-rule:nonzero;stroke:none"
       id="rect5359-9-4"
       transform="matrix(0.81329081,0.58185743,0.58185743,-0.81329081,0,0)"
       y="-37.351898"
       x="254.82677"
       ry="0.78746533"
       height="6.4747148"
       width="2.2412469" />
    <rect
       style="fill:#000000;fill-opacity:1;fill-rule:nonzero;stroke:none"
       id="rect5359-3-4"
       transform="matrix(0.6830502,0.73037143,0.73037143,-0.6830502,0,0)"
       y="14.418738"
       x="263.16354"
       ry="0.78746533"
       height="6.4747148"
       width="2.2412469" />
  </g>
  <path
     d="m 59.271944,123.49477 c 0.79355,-0.45639 1.74404,-1.07168 2.11211,-1.36728 1.1464,-0.92061 2.28921,-3.12458 2.52616,-4.8718 0.19694,-1.45262 0.0957,-2.12427 -0.76403,-5.06396 -0.93947,-3.21165 -1.06533,-3.47181 -2.40517,-4.9668 -0.79039,-0.88179 -2.89458,-2.55801 -4.77095,-3.80052 -4.49238,-2.97494 -5.51671,-4.152296 -6.49087,-7.461126 -0.678,-2.3029 -0.7144,-2.75086 -0.38076,-4.68118 0.26494,-1.53276 0.81096,-2.90246 1.93662,-4.85813 4.55867,-7.91998 4.84497,-8.81723 3.99608,-12.52408 -1.33633,-5.83537 -5.38955,-7.38796 -12.48265,-4.78148 -9.50587,3.49308 -15.42876,9.65362 -15.78733,16.4207 -0.0935,1.76407 0.0479,2.66856 0.8394,5.36891 1.43455,4.89344 3.19295,7.70138 8.14249,12.999136 4.57355,4.89533 6.30832,7.61038 8.41926,13.1767 1.0214,2.69337 1.45687,3.49594 2.59612,4.78438 1.63137,1.84502 3.59841,2.98631 5.60216,3.25038 1.82022,0.23987 4.94901,-0.49524 6.91136,-1.62385 z M 26.618424,75.520624 c 0.52879,-1.09677 -0.18115,-3.35592 -1.23504,-3.93044 -0.57784,-0.31497 -0.96809,-0.32449 -1.45872,-0.0355 -0.86694,0.51054 -1.06483,1.53673 -0.59053,3.06221 0.64272,2.06676 2.47981,2.57239 3.28429,0.90378 z m 2.95452,-4.55151 c 0.47691,-0.99045 -0.24172,-3.46232 -1.25759,-4.32567 -1.59389,-1.3547 -3.42985,-0.66686 -3.49397,1.30903 -0.10223,3.14914 3.56623,5.4782 4.75151,3.01666 z m 4.03937,-3.05733 c 1.66871,-1.51276 0.17953,-6.84328 -2.04093,-7.30515 -1.49714,-0.31137 -2.81759,0.85003 -2.95235,2.59668 -0.15465,2.0045 1.30506,4.70703 2.81737,5.21605 0.90086,0.30326 1.41323,0.18374 2.17591,-0.50758 z m 17.36519,-5.41007 c 0.89074,-0.9017 1.44779,-2.06333 1.76991,-3.69077 0.28028,-1.41607 0.22066,-1.97911 -0.45675,-4.31342 -0.67044,-2.31066 -0.91868,-2.81851 -1.78075,-3.6445 -3.28079,-3.14349 -7.48385,-0.0847 -7.13423,5.19201 0.13535,2.04273 1.18969,4.86518 2.25875,6.0466 1.42164,1.57102 4.00076,1.76896 5.34307,0.41008 z m -10.39066,2.21582 c 0.6802,-0.56666 1.31995,-1.93214 1.40032,-2.98865 0.11001,-1.44758 -0.85547,-4.27428 -1.78022,-5.2123 -1.15396,-1.17043 -2.72801,-1.27426 -3.86816,-0.25517 -2.12771,1.90181 -1.45408,6.93039 1.14834,8.57156 0.91616,0.57778 2.33079,0.52509 3.09972,-0.11544 z"
     id="path5572-3"
     style="fill:#ecc49c;fill-opacity:1"
     inkscape:connector-curvature="0" />
  <path
     d="m 72.45755,119.06449 c -0.831215,-0.38353 -1.832962,-0.91127 -2.226012,-1.17274 -1.224199,-0.81431 -2.559691,-2.90714 -2.952077,-4.62614 -0.326168,-1.42916 -0.285451,-2.10718 0.307709,-5.11202 0.648237,-3.28285 0.750306,-3.55323 1.950957,-5.16214 0.708292,-0.949 2.654005,-2.80684 4.411631,-4.212306 4.208074,-3.365088 5.122912,-4.629406 5.797002,-8.012148 0.469155,-2.354342 0.465314,-2.803762 -0.03976,-4.696472 -0.401068,-1.502894 -1.067493,-2.818224 -2.363679,-4.665291 -5.249259,-7.480163 -5.61472,-8.348186 -5.101022,-12.116139 0.808665,-5.931558 4.70665,-7.840704 12.004576,-5.879561 9.780368,2.628227 16.230895,8.233906 17.193715,14.941731 0.25102,1.74862 0.19115,2.662136 -0.35548,5.422492 -0.9908,5.0022 -2.490815,7.956257 -6.946306,13.675758 -4.117032,5.285056 -5.601825,8.144476 -7.206073,13.877396 -0.776228,2.77398 -1.138115,3.61231 -2.157469,4.99755 -1.459682,1.98363 -3.316674,3.2964 -5.288746,3.73876 -1.791444,0.40183 -4.973473,-0.0503 -7.028964,-0.99873 z m 28.22848,-50.70428 c -0.62484,-1.045038 -0.11996,-3.358664 0.87828,-4.025208 0.54733,-0.365426 0.93516,-0.409838 1.44969,-0.165922 0.90915,0.430895 1.1981,1.435253 0.86224,2.997063 -0.45515,2.115992 -2.23961,2.784023 -3.19021,1.194117 z m -3.350051,-4.268794 c -0.563647,-0.943789 -0.06915,-3.470059 0.865364,-4.42087 1.46624,-1.491926 3.356397,-0.971176 3.597117,0.991044 0.38368,3.12735 -3.061587,5.775412 -4.462429,3.429841 z m -4.296804,-2.683511 c -1.797413,-1.357329 -0.791324,-6.799744 1.378883,-7.458505 1.463259,-0.444123 2.882361,0.594427 3.172915,2.322005 0.33345,1.982612 -0.878513,4.804948 -2.33919,5.447285 -0.8701,0.382676 -1.391111,0.309496 -2.212608,-0.310785 z M 75.25945,57.573839 c -0.967872,-0.818354 -1.626659,-1.925462 -2.093152,-3.517538 -0.405902,-1.3853 -0.396917,-1.951416 0.06884,-4.336989 0.460931,-2.361395 0.662718,-2.889425 1.447397,-3.78926 2.986261,-3.424524 7.446231,-0.75421 7.570312,4.532613 0.04803,2.046646 -0.749452,4.952137 -1.708477,6.224503 -1.275318,1.69196 -3.826369,2.119952 -5.28492,0.886671 z m 10.547284,1.276899 c -0.728189,-0.503503 -1.48759,-1.806241 -1.662201,-2.851317 -0.239136,-1.431923 0.469462,-4.333694 1.306542,-5.35072 1.044568,-1.269018 2.603006,-1.513319 3.829795,-0.600369 2.289393,1.703734 2.068556,6.772424 -0.376524,8.639939 -0.860768,0.657463 -2.274436,0.731603 -3.097612,0.162467 z"
     id="path5572-3-1"
     style="fill:#ecc49c;fill-opacity:1"
     inkscape:connector-curvature="0" />
  <g
     id="g4833"
     transform="matrix(0.97072014,0.24021327,-0.24021327,0.97072014,41.756615,-99.38886)">
    <path
       sodipodi:nodetypes="ccccc"
       inkscape:connector-curvature="0"
       id="path4274"
       d="m 9.6620829,162.26616 c 21.3199011,3.86231 93.4255371,3.8809 112.5882071,-1.17969 1.58045,-1.05639 -6.23601,-7.58991 -7.5262,-7.16005 -15.174727,2.84186 -87.308238,0.95367 -108.8184028,-2.4873 2.2106735,3.59365 3.5065378,7.11822 3.7563957,10.82704 z"
       style="fill:#ffdd55;fill-opacity:1;fill-rule:evenodd;stroke:#000000;stroke-width:1.02454901px;stroke-linecap:butt;stroke-linejoin:miter;stroke-opacity:1" />
    <path
       inkscape:connector-curvature="0"
       id="path4376-0"
       d="m 13.609139,152.05427 -0.233241,6.25307"
       style="fill:none;fill-rule:evenodd;stroke:#000000;stroke-width:1.02454901px;stroke-linecap:butt;stroke-linejoin:miter;stroke-opacity:1" />
    <path
       inkscape:connector-curvature="0"
       id="path4378-63"
       d="m 16.929579,152.75998 0.05213,3.06082"
       style="fill:none;fill-rule:evenodd;stroke:#000000;stroke-width:1.02454901px;stroke-linecap:butt;stroke-linejoin:miter;stroke-opacity:1" />
    <path
       inkscape:connector-curvature="0"
       id="path4380-20"
       d="m 20.259359,153.28775 0.04618,2.95177"
       style="fill:none;fill-rule:evenodd;stroke:#000000;stroke-width:1.02454901px;stroke-linecap:butt;stroke-linejoin:miter;stroke-opacity:1" />
    <path
       inkscape:connector-curvature="0"
       id="path4376-5-6"
       d="m 23.65794,153.32729 -0.233241,6.25308"
       style="fill:none;fill-rule:evenodd;stroke:#000000;stroke-width:1.02454901px;stroke-linecap:butt;stroke-linejoin:miter;stroke-opacity:1" />
    <path
       inkscape:connector-curvature="0"
       id="path4378-9-1"
       d="m 26.901134,153.41503 0.05214,3.06082"
       style="fill:none;fill-rule:evenodd;stroke:#000000;stroke-width:1.02454901px;stroke-linecap:butt;stroke-linejoin:miter;stroke-opacity:1" />
    <path
       inkscape:connector-curvature="0"
       id="path4380-2-5"
       d="m 30.30816,153.86556 0.04618,2.95178"
       style="fill:none;fill-rule:evenodd;stroke:#000000;stroke-width:1.02454901px;stroke-linecap:butt;stroke-linejoin:miter;stroke-opacity:1" />
    <path
       inkscape:connector-curvature="0"
       id="path4376-2-5"
       d="m 33.706742,154.0596 -0.233241,6.25308"
       style="fill:none;fill-rule:evenodd;stroke:#000000;stroke-width:1.02454901px;stroke-linecap:butt;stroke-linejoin:miter;stroke-opacity:1" />
    <path
       inkscape:connector-curvature="0"
       id="path4378-8-4"
       d="m 36.949935,154.14737 0.05217,3.06081"
       style="fill:none;fill-rule:evenodd;stroke:#000000;stroke-width:1.02454901px;stroke-linecap:butt;stroke-linejoin:miter;stroke-opacity:1" />
    <path
       inkscape:connector-curvature="0"
       id="path4380-9-7"
       d="m 40.356988,154.44339 0.04621,2.95176"
       style="fill:none;fill-rule:evenodd;stroke:#000000;stroke-width:1.02454901px;stroke-linecap:butt;stroke-linejoin:miter;stroke-opacity:1" />
    <path
       inkscape:connector-curvature="0"
       id="path4376-7-6"
       d="m 43.755602,154.32844 -0.233136,6.25308"
       style="fill:none;fill-rule:evenodd;stroke:#000000;stroke-width:1.02454901px;stroke-linecap:butt;stroke-linejoin:miter;stroke-opacity:1" />
    <path
       inkscape:connector-curvature="0"
       id="path4378-3-5"
       d="m 46.9989,154.64793 0.05217,3.06081"
       style="fill:none;fill-rule:evenodd;stroke:#000000;stroke-width:1.02454901px;stroke-linecap:butt;stroke-linejoin:miter;stroke-opacity:1" />
    <path
       inkscape:connector-curvature="0"
       id="path4380-6-6"
       d="m 50.405961,155.02121 0.04622,2.95178"
       style="fill:none;fill-rule:evenodd;stroke:#000000;stroke-width:1.02454901px;stroke-linecap:butt;stroke-linejoin:miter;stroke-opacity:1" />
    <path
       inkscape:connector-curvature="0"
       id="path4376-1-9"
       d="m 53.804583,154.9835 -0.233136,6.25309"
       style="fill:none;fill-rule:evenodd;stroke:#000000;stroke-width:1.02454901px;stroke-linecap:butt;stroke-linejoin:miter;stroke-opacity:1" />
    <path
       inkscape:connector-curvature="0"
       id="path4378-2-3"
       d="m 57.047882,154.91677 0.05217,3.06082"
       style="fill:none;fill-rule:evenodd;stroke:#000000;stroke-width:1.02454901px;stroke-linecap:butt;stroke-linejoin:miter;stroke-opacity:1" />
    <path
       inkscape:connector-curvature="0"
       id="path4380-93-7"
       d="m 60.454943,154.82656 0.04621,2.95178"
       style="fill:none;fill-rule:evenodd;stroke:#000000;stroke-width:1.02454901px;stroke-linecap:butt;stroke-linejoin:miter;stroke-opacity:1" />
    <path
       inkscape:connector-curvature="0"
       id="path4376-19-4"
       d="m 63.853564,155.02061 -0.233136,6.25307"
       style="fill:none;fill-rule:evenodd;stroke:#000000;stroke-width:1.02454901px;stroke-linecap:butt;stroke-linejoin:miter;stroke-opacity:1" />
    <path
       inkscape:connector-curvature="0"
       id="path4378-4-5"
       d="m 67.096862,155.03111 0.05217,3.06082"
       style="fill:none;fill-rule:evenodd;stroke:#000000;stroke-width:1.02454901px;stroke-linecap:butt;stroke-linejoin:miter;stroke-opacity:1" />
    <path
       inkscape:connector-curvature="0"
       id="path4380-7-2"
       d="m 70.503923,155.01816 0.04622,2.95176"
       style="fill:none;fill-rule:evenodd;stroke:#000000;stroke-width:1.02454901px;stroke-linecap:butt;stroke-linejoin:miter;stroke-opacity:1" />
    <path
       inkscape:connector-curvature="0"
       id="path4376-8-5"
       d="m 73.902545,155.13493 -0.233241,6.25308"
       style="fill:none;fill-rule:evenodd;stroke:#000000;stroke-width:1.02454901px;stroke-linecap:butt;stroke-linejoin:miter;stroke-opacity:1" />
    <path
       inkscape:connector-curvature="0"
       id="path4378-45-4"
       d="m 77.145739,155.37718 0.05217,3.06083"
       style="fill:none;fill-rule:evenodd;stroke:#000000;stroke-width:1.02454901px;stroke-linecap:butt;stroke-linejoin:miter;stroke-opacity:1" />
    <path
       inkscape:connector-curvature="0"
       id="path4380-0-7"
       d="m 80.552801,155.28699 0.04622,2.95177"
       style="fill:none;fill-rule:evenodd;stroke:#000000;stroke-width:1.02454901px;stroke-linecap:butt;stroke-linejoin:miter;stroke-opacity:1" />
    <path
       inkscape:connector-curvature="0"
       id="path4376-3-4"
       d="m 83.951423,155.24926 -0.233241,6.25308"
       style="fill:none;fill-rule:evenodd;stroke:#000000;stroke-width:1.02454901px;stroke-linecap:butt;stroke-linejoin:miter;stroke-opacity:1" />
    <path
       inkscape:connector-curvature="0"
       id="path4378-6-4"
       d="m 87.194617,155.18253 0.05216,3.06081"
       style="fill:none;fill-rule:evenodd;stroke:#000000;stroke-width:1.02454901px;stroke-linecap:butt;stroke-linejoin:miter;stroke-opacity:1" />
    <path
       inkscape:connector-curvature="0"
       id="path4380-1-3"
       d="m 90.601678,155.24683 0.04621,2.95176"
       style="fill:none;fill-rule:evenodd;stroke:#000000;stroke-width:1.02454901px;stroke-linecap:butt;stroke-linejoin:miter;stroke-opacity:1" />
    <path
       inkscape:connector-curvature="0"
       id="path4376-3-4-1"
       d="m 94.000297,154.97739 -0.233188,6.25308"
       style="fill:none;fill-rule:evenodd;stroke:#000000;stroke-width:1.02454901px;stroke-linecap:butt;stroke-linejoin:miter;stroke-opacity:1" />
    <path
       inkscape:connector-curvature="0"
       id="path4378-6-4-0"
       d="m 97.243481,155.21962 0.05216,3.06081"
       style="fill:none;fill-rule:evenodd;stroke:#000000;stroke-width:1.02454901px;stroke-linecap:butt;stroke-linejoin:miter;stroke-opacity:1" />
    <path
       inkscape:connector-curvature="0"
       id="path4380-1-3-6"
       d="m 100.65054,155.05219 0.0462,2.95175"
       style="fill:none;fill-rule:evenodd;stroke:#000000;stroke-width:1.02454901px;stroke-linecap:butt;stroke-linejoin:miter;stroke-opacity:1" />
    <path
       inkscape:connector-curvature="0"
       id="path4376-3-4-15"
       d="m 104.04917,154.78274 -0.23319,6.25308"
       style="fill:none;fill-rule:evenodd;stroke:#000000;stroke-width:1.02454901px;stroke-linecap:butt;stroke-linejoin:miter;stroke-opacity:1" />
    <path
       inkscape:connector-curvature="0"
       id="path4378-6-4-9"
       d="m 107.29237,154.71599 0.0521,3.06082"
       style="fill:none;fill-rule:evenodd;stroke:#000000;stroke-width:1.02454901px;stroke-linecap:butt;stroke-linejoin:miter;stroke-opacity:1" />
    <path
       inkscape:connector-curvature="0"
       id="path4380-1-3-4"
       d="m 110.69942,154.31682 0.0462,2.95177"
       style="fill:none;fill-rule:evenodd;stroke:#000000;stroke-width:1.02454901px;stroke-linecap:butt;stroke-linejoin:miter;stroke-opacity:1" />
  </g>
  <g
     id="g4775"
     transform="matrix(0.9810722,-0.19364228,0.19364228,0.9810722,-49.497582,-74.531709)">
    <path
       sodipodi:nodetypes="cssscc"
       inkscape:connector-curvature="0"
       id="path4272"
       d="m 136.3471,158.76483 c -0.30036,1.93242 -1.53642,1.58592 -2.63173,5.22168 -0.85804,2.84821 -0.70149,6.56147 -2.49242,6.33322 -23.89267,-3.04512 -54.588501,-5.27378 -82.615018,1.00732 -2.412031,0.54057 1.461039,-11.83912 1.461039,-11.83912 26.595164,-4.0947 56.787659,-2.69705 86.278129,-0.7231 z"
       style="fill:#ffdd55;fill-opacity:1;fill-rule:evenodd;stroke:#000000;stroke-width:1.00123298px;stroke-linecap:butt;stroke-linejoin:miter;stroke-opacity:1" />
    <path
       inkscape:connector-curvature="0"
       id="path4376"
       d="m 52.30115,159.04189 -0.55307,6.22604"
       style="fill:none;fill-rule:evenodd;stroke:#000000;stroke-width:1.00123298px;stroke-linecap:butt;stroke-linejoin:miter;stroke-opacity:1" />
    <path
       inkscape:connector-curvature="0"
       id="path4378"
       d="m 55.614138,158.3605 -0.112224,3.05869"
       style="fill:none;fill-rule:evenodd;stroke:#000000;stroke-width:1.00123298px;stroke-linecap:butt;stroke-linejoin:miter;stroke-opacity:1" />
    <path
       inkscape:connector-curvature="0"
       id="path4380"
       d="m 58.819436,158.36117 -0.112126,2.94945"
       style="fill:none;fill-rule:evenodd;stroke:#000000;stroke-width:1.00123298px;stroke-linecap:butt;stroke-linejoin:miter;stroke-opacity:1" />
    <path
       inkscape:connector-curvature="0"
       id="path4376-5"
       d="m 62.46115,158.38644 -0.55307,6.22604"
       style="fill:none;fill-rule:evenodd;stroke:#000000;stroke-width:1.00123298px;stroke-linecap:butt;stroke-linejoin:miter;stroke-opacity:1" />
    <path
       inkscape:connector-curvature="0"
       id="path4378-9"
       d="m 65.664897,157.5958 -0.112224,3.05869"
       style="fill:none;fill-rule:evenodd;stroke:#000000;stroke-width:1.00123298px;stroke-linecap:butt;stroke-linejoin:miter;stroke-opacity:1" />
    <path
       inkscape:connector-curvature="0"
       id="path4380-2"
       d="m 68.870194,157.34435 -0.112126,2.94945"
       style="fill:none;fill-rule:evenodd;stroke:#000000;stroke-width:1.00123298px;stroke-linecap:butt;stroke-linejoin:miter;stroke-opacity:1" />
    <path
       inkscape:connector-curvature="0"
       id="path4376-2"
       d="m 72.511908,157.26038 -0.55307,6.22604"
       style="fill:none;fill-rule:evenodd;stroke:#000000;stroke-width:1.00123298px;stroke-linecap:butt;stroke-linejoin:miter;stroke-opacity:1" />
    <path
       inkscape:connector-curvature="0"
       id="path4378-8"
       d="m 75.715655,157.01595 -0.112224,3.05869"
       style="fill:none;fill-rule:evenodd;stroke:#000000;stroke-width:1.00123298px;stroke-linecap:butt;stroke-linejoin:miter;stroke-opacity:1" />
    <path
       inkscape:connector-curvature="0"
       id="path4380-9"
       d="m 78.920954,156.6889 -0.112127,2.94945"
       style="fill:none;fill-rule:evenodd;stroke:#000000;stroke-width:1.00123298px;stroke-linecap:butt;stroke-linejoin:miter;stroke-opacity:1" />
    <path
       inkscape:connector-curvature="0"
       id="path4376-7"
       d="m 82.562667,156.93265 -0.553069,6.22604"
       style="fill:none;fill-rule:evenodd;stroke:#000000;stroke-width:1.00123298px;stroke-linecap:butt;stroke-linejoin:miter;stroke-opacity:1" />
    <path
       inkscape:connector-curvature="0"
       id="path4378-3"
       d="m 85.766418,156.68823 -0.112224,3.05869"
       style="fill:none;fill-rule:evenodd;stroke:#000000;stroke-width:1.00123298px;stroke-linecap:butt;stroke-linejoin:miter;stroke-opacity:1" />
    <path
       inkscape:connector-curvature="0"
       id="path4380-6"
       d="m 88.971716,156.90738 -0.112127,2.94944"
       style="fill:none;fill-rule:evenodd;stroke:#000000;stroke-width:1.00123298px;stroke-linecap:butt;stroke-linejoin:miter;stroke-opacity:1" />
    <path
       inkscape:connector-curvature="0"
       id="path4376-1"
       d="m 92.61343,156.82341 -0.553069,6.22604"
       style="fill:none;fill-rule:evenodd;stroke:#000000;stroke-width:1.00123298px;stroke-linecap:butt;stroke-linejoin:miter;stroke-opacity:1" />
    <path
       inkscape:connector-curvature="0"
       id="path4378-2"
       d="m 95.81718,157.01595 -0.112223,3.05869"
       style="fill:none;fill-rule:evenodd;stroke:#000000;stroke-width:1.00123298px;stroke-linecap:butt;stroke-linejoin:miter;stroke-opacity:1" />
    <path
       inkscape:connector-curvature="0"
       id="path4380-93"
       d="m 99.022479,157.01662 -0.112127,2.94944"
       style="fill:none;fill-rule:evenodd;stroke:#000000;stroke-width:1.00123298px;stroke-linecap:butt;stroke-linejoin:miter;stroke-opacity:1" />
    <path
       inkscape:connector-curvature="0"
       id="path4376-19"
       d="m 102.66419,156.82341 -0.55307,6.22604"
       style="fill:none;fill-rule:evenodd;stroke:#000000;stroke-width:1.00123298px;stroke-linecap:butt;stroke-linejoin:miter;stroke-opacity:1" />
    <path
       inkscape:connector-curvature="0"
       id="path4378-4"
       d="m 105.86794,157.01595 -0.11222,3.05869"
       style="fill:none;fill-rule:evenodd;stroke:#000000;stroke-width:1.00123298px;stroke-linecap:butt;stroke-linejoin:miter;stroke-opacity:1" />
    <path
       inkscape:connector-curvature="0"
       id="path4380-7"
       d="m 109.07324,157.01662 -0.11213,2.94944"
       style="fill:none;fill-rule:evenodd;stroke:#000000;stroke-width:1.00123298px;stroke-linecap:butt;stroke-linejoin:miter;stroke-opacity:1" />
    <path
       inkscape:connector-curvature="0"
       id="path4376-8"
       d="m 112.71496,157.15115 -0.55307,6.22603"
       style="fill:none;fill-rule:evenodd;stroke:#000000;stroke-width:1.00123298px;stroke-linecap:butt;stroke-linejoin:miter;stroke-opacity:1" />
    <path
       inkscape:connector-curvature="0"
       id="path4378-45"
       d="m 115.91872,157.56218 -0.11223,3.05869"
       style="fill:none;fill-rule:evenodd;stroke:#000000;stroke-width:1.00123298px;stroke-linecap:butt;stroke-linejoin:miter;stroke-opacity:1" />
    <path
       inkscape:connector-curvature="0"
       id="path4380-0"
       d="m 119.12401,157.78132 -0.11212,2.94944"
       style="fill:none;fill-rule:evenodd;stroke:#000000;stroke-width:1.00123298px;stroke-linecap:butt;stroke-linejoin:miter;stroke-opacity:1" />
    <path
       inkscape:connector-curvature="0"
       id="path4376-3"
       d="m 122.76573,157.8066 -0.55307,6.22603"
       style="fill:none;fill-rule:evenodd;stroke:#000000;stroke-width:1.00123298px;stroke-linecap:butt;stroke-linejoin:miter;stroke-opacity:1" />
    <path
       inkscape:connector-curvature="0"
       id="path4378-6"
       d="m 125.96949,158.21762 -0.11222,3.05869"
       style="fill:none;fill-rule:evenodd;stroke:#000000;stroke-width:1.00123298px;stroke-linecap:butt;stroke-linejoin:miter;stroke-opacity:1" />
    <path
       inkscape:connector-curvature="0"
       id="path4380-1"
       d="m 129.17479,158.10905 -0.11213,2.94944"
       style="fill:none;fill-rule:evenodd;stroke:#000000;stroke-width:1.00123298px;stroke-linecap:butt;stroke-linejoin:miter;stroke-opacity:1" />
  </g>
  <path
     inkscape:connector-curvature="0"
     id="path4376-3-4-15-9"
     d="m 115.45946,77.909568 -1.72843,6.013975"
     style="fill:none;fill-rule:evenodd;stroke:#000000;stroke-width:1.02454901px;stroke-linecap:butt;stroke-linejoin:miter;stroke-opacity:1" />
</svg>
