<svg
   xmlns:dc="http://purl.org/dc/elements/1.1/"
   xmlns:cc="http://creativecommons.org/ns#"
   xmlns:rdf="http://www.w3.org/1999/02/22-rdf-syntax-ns#"
   xmlns:svg="http://www.w3.org/2000/svg"
   xmlns="http://www.w3.org/2000/svg"
   version="1.1"
   width="215.75662"
   height="215.77419">
  <path
     d="m 88.378578,214.48041 c -44.0652,-8.09615 -78.8724004,-43.09656 -87.0500004,-87.53339 -1.75769997,-9.55129 -1.77399997,-28.30712 -0.033,-38 7.9537,-44.28376 42.5911004,-79.0186 87.3335004,-87.57926 9.5315,-1.82368 28.967702,-1.82368 38.499202,0 44.8091,8.57341 79.0899,42.96366 87.3004,87.57926 1.7706,9.62148 1.7706,28.37852 0,38 -8.2171,44.65125 -43.1637,79.6111 -87.55,87.58318 -9.3515,1.67959 -29.227302,1.65389 -38.500002,-0.0498 z m 41.806602,-12.48393 c 35.8534,-9.16975 62.04,-35.35364 71.8817,-71.87403 1.6432,-6.09763 2.0684,-10.65613 2.0684,-22.17543 0,-11.5193 -0.4252,-16.0778 -2.0684,-22.17543 -9.8526,-36.56083 -35.4521,-62.1604 -72.0129,-72.01294 -10.9409,-2.9484 -33.409902,-2.9484 -44.350902,0 -36.5607,9.85254 -62.1603,35.45211 -72.0128,72.01294 -2.9484,10.94093 -2.9484,33.40993 0,44.35086 10.6887,39.66358 42.2701,68.35166 81.2488,73.80526 9.139702,1.27875 26.391102,0.3335 35.246102,-1.93123 z M 69.764278,155.94851 c -5.635,-2.97794 -6.4885,-6.04739 -8.3426,-30.00149 -2.9569,-38.2019 -3.0083,-40.19963 -1.1284,-43.83498 2.1232,-4.10573 7.0542,-7.15534 11.5854,-7.16503 3.1896,-0.007 3.6592,-0.39505 5.2975,-4.37937 2.7994,-6.80841 8.0398,-12.16913 15.4733,-15.82862 5.9256,-2.91719 7.600202,-3.28603 14.708002,-3.23953 10.7077,0.07 16.6896,2.70207 23.9402,10.53358 2.9691,3.20692 5.9056,7.36778 6.5255,9.24636 1.0155,3.07672 1.5688,3.46535 5.5769,3.91713 5.5806,0.62902 9.1053,2.90012 11.1476,7.18288 1.4705,3.08376 1.4061,5.71338 -0.857,34.9681 -2.7003,34.90563 -2.782,35.2269 -9.8832,38.84793 -3.0679,1.56433 -6.9567,1.74396 -36.9289,1.70581 -30.998602,-0.0395 -33.769802,-0.18527 -37.114302,-1.95277 z m 45.364302,-49.57103 c 5.7093,-1.94535 13.1406,-9.57309 14.6609,-15.04838 2.3901,-8.60808 0.684,-16.28858 -5.0706,-22.82614 -14.0611,-15.97424 -40.761402,-5.8695 -40.808602,15.44406 -0.037,16.65115 15.4733,27.79532 31.218302,22.43046 z m -10.9701,-16.45055 c -2.6862,-1.08086 -3.9224,-5.30896 -2.5936,-8.87034 0.7469,-2.00173 0.5338,-3.50045 -0.9147,-6.43427 -2.678702,-5.4251 -1.699802,-6.67626 1.4727,-1.88231 1.7895,2.70417 3.6663,4.24812 5.7095,4.69687 5.9874,1.31505 7.9432,7.87273 3.4113,11.43756 -2.8765,2.26262 -3.7539,2.39296 -7.0852,1.05249 z"
     style="fill:#8dd35f" />
</svg>
