<?xml version="1.0" encoding="UTF-8" standalone="no"?>
<!-- Created with Inkscape (http://www.inkscape.org/) -->

<svg
   xmlns:dc="http://purl.org/dc/elements/1.1/"
   xmlns:cc="http://creativecommons.org/ns#"
   xmlns:rdf="http://www.w3.org/1999/02/22-rdf-syntax-ns#"
   xmlns:svg="http://www.w3.org/2000/svg"
   xmlns="http://www.w3.org/2000/svg"
   xmlns:sodipodi="http://sodipodi.sourceforge.net/DTD/sodipodi-0.dtd"
   xmlns:inkscape="http://www.inkscape.org/namespaces/inkscape"
   width="240pt"
   height="240pt"
   viewBox="0 0 300 300"
   id="svg2"
   version="1.1"
   inkscape:version="0.91 r13725"
   sodipodi:docname="body-health.svg"
   inkscape:export-filename="/home/jhortelano/body-health-128.png"
   inkscape:export-xdpi="38.400002"
   inkscape:export-ydpi="38.400002">
  <defs
     id="defs4" />
  <sodipodi:namedview
     id="base"
     pagecolor="#ffffff"
     bordercolor="#666666"
     borderopacity="1.0"
     inkscape:pageopacity="0.0"
     inkscape:pageshadow="2"
     inkscape:zoom="1.979899"
     inkscape:cx="151.55883"
     inkscape:cy="121.7176"
     inkscape:document-units="px"
     inkscape:current-layer="layer1"
     showgrid="false"
     fit-margin-top="0"
     fit-margin-left="0"
     fit-margin-right="0"
     fit-margin-bottom="0"
     inkscape:window-width="1855"
     inkscape:window-height="1056"
     inkscape:window-x="1985"
     inkscape:window-y="24"
     inkscape:window-maximized="1"
     units="pt" />
  <metadata
     id="metadata7">
    <rdf:RDF>
      <cc:Work
         rdf:about="">
        <dc:format>image/svg+xml</dc:format>
        <dc:type
           rdf:resource="http://purl.org/dc/dcmitype/StillImage" />
        <dc:title></dc:title>
      </cc:Work>
    </rdf:RDF>
  </metadata>
  <g
     inkscape:label="Capa 1"
     inkscape:groupmode="layer"
     id="layer1"
     transform="translate(-71.626543,-296.58078)">
    <path
       style="fill:none;stroke:#000000;stroke-width:7;stroke-miterlimit:4;stroke-dasharray:none;stroke-opacity:1"
       d="m 207.28443,590.48544 c -4.28271,-4.48894 -5.6639,-9.51862 -10.37908,-37.79619 -3.26616,-19.58755 -5.37559,-59.08159 -5.39844,-101.07289 l -0.0174,-32.07289 -5.80636,-7.92711 c -16.37178,-22.35153 -28.19364,-42.65844 -28.19364,-48.42944 0,-1.88664 1.36312,-5.76057 3.13757,-8.91681 6.05585,-10.77167 31.00369,-46.99771 34.44958,-50.02324 8.57039,-7.52489 18.08671,-0.0628 12.84548,10.07266 -0.86205,1.66702 -7.38705,12.52651 -14.5,24.1322 -9.37539,15.29714 -12.93263,21.96786 -12.93263,24.25189 0,3.5314 14.90099,28.7675 20.06727,33.98563 l 2.97019,3 16.65461,0.35635 c 21.61531,0.4625 22.62183,0.15383 27.9519,-8.57216 5.0281,-8.2316 8.21909,-14.62149 11.72659,-23.48219 l 2.6514,-6.698 -2.40617,-6.3926 c -1.32339,-3.51593 -6.75008,-15.10504 -12.0593,-25.75357 -10.52003,-21.09966 -11.13412,-23.71597 -6.39354,-27.23922 3.2261,-2.39767 6.97222,-1.75483 10.22461,1.75457 2.46259,2.65717 12.39248,20.2819 24.12534,42.82045 7.15627,13.74702 7.65487,15.10191 7.04767,19.15104 -0.79064,5.27236 -10.69721,25.49946 -20.84222,42.55533 l -7.43512,12.5 -0.68966,20.12288 -0.68965,20.12288 3.61354,2.13204 c 12.45891,7.35094 34.64965,27.4051 35.86364,32.41061 1.24698,5.14148 -1.74983,8.97001 -15.21737,19.4407 -27.36982,21.2794 -35.293,26.20611 -42.21373,26.24893 -4.42659,0.0274 -5.95,-1.43911 -5.95,-5.7277 0,-5.37656 2.07938,-8.13791 16.63184,-22.08656 12.16706,-11.66223 13.59358,-13.36693 12.28263,-14.67788 -1.42431,-1.42431 -34.98326,-16.75044 -35.51449,-16.21922 -0.14236,0.14236 -1.46778,8.5781 -2.94538,18.74608 -2.90688,20.00345 -2.90745,22.80207 -0.0105,51.48724 2.0846,20.64144 2.02341,32.05794 -0.19565,36.5 -1.50843,3.01954 -2.30011,3.54066 -5.7671,3.79619 -3.31189,0.24411 -4.48783,-0.19557 -6.68638,-2.5 z m 6.20503,-198.89049 c -17.80682,-7.71301 -18.23596,-33.80046 -0.6904,-41.96955 20.36152,-9.48018 40.99413,11.49833 30.80067,31.31705 -2.47251,4.8072 -6.62877,8.73071 -11.32815,10.69375 -4.69223,1.96006 -14.21,1.93915 -18.78212,-0.0413 z"
       id="path4147"
       inkscape:connector-curvature="0"
       inkscape:transform-center-x="-203.04066"
       inkscape:transform-center-y="-2.5253814" />
  </g>
</svg>
