<?xml version="1.0" encoding="UTF-8" standalone="no"?>
<svg
   xmlns:dc="http://purl.org/dc/elements/1.1/"
   xmlns:cc="http://creativecommons.org/ns#"
   xmlns:rdf="http://www.w3.org/1999/02/22-rdf-syntax-ns#"
   xmlns:svg="http://www.w3.org/2000/svg"
   xmlns="http://www.w3.org/2000/svg"
   xmlns:sodipodi="http://sodipodi.sourceforge.net/DTD/sodipodi-0.dtd"
   xmlns:inkscape="http://www.inkscape.org/namespaces/inkscape"
   version="1.1"
   id="svg2"
   viewBox="0 0 312.85743 504.28516"
   height="142.32048mm"
   width="88.295319mm"
   inkscape:version="0.91 r13725"
   sodipodi:docname="energy.svg">
  <sodipodi:namedview
     pagecolor="#ffffff"
     bordercolor="#666666"
     borderopacity="1"
     objecttolerance="10"
     gridtolerance="10"
     guidetolerance="10"
     inkscape:pageopacity="0"
     inkscape:pageshadow="2"
     inkscape:window-width="717"
     inkscape:window-height="480"
     id="namedview11"
     showgrid="false"
     inkscape:zoom="0.66183664"
     inkscape:cx="156.18789"
     inkscape:cy="284.58744"
     inkscape:window-x="571"
     inkscape:window-y="227"
     inkscape:window-maximized="0"
     inkscape:current-layer="layer1" />
  <defs
     id="defs4" />
  <metadata
     id="metadata7">
    <rdf:RDF>
      <cc:Work
         rdf:about="">
        <dc:format>image/svg+xml</dc:format>
        <dc:type
           rdf:resource="http://purl.org/dc/dcmitype/StillImage" />
        <dc:title />
      </cc:Work>
    </rdf:RDF>
  </metadata>
  <g
     transform="translate(-192.14258,-198.79102)"
     id="layer1">
    <path
       id="rect4171"
       style="opacity:1;fill:none;fill-opacity:1;fill-rule:nonzero;stroke:#000000;stroke-width:8.76072407;stroke-miterlimit:4;stroke-dasharray:none;stroke-opacity:1"
       d="m 219.0689,246.24255 265.8622,0 c 0.30231,0 0.54568,0.24337 0.54568,0.54568 0,0.3023 -0.24337,0.54567 -0.54568,0.54567 l -265.8622,0 c -0.30231,0 -0.54568,-0.24337 -0.54568,-0.54567 0,-0.30231 0.24337,-0.54568 0.54568,-0.54568 z m 7.99936,212.26249 243.00606,0 c 4.88821,0 8.82349,3.93527 8.82349,8.82349 l 0,44.35301 c 0,4.88822 -3.93528,8.8235 -8.82349,8.8235 l -243.00606,0 c -4.88822,0 -8.82349,-3.93528 -8.82349,-8.8235 l 0,-44.35301 c 0,-4.88822 3.93527,-8.82349 8.82349,-8.82349 z m 0,82.14291 243.00606,0 c 4.88821,0 8.82349,3.93528 8.82349,8.82349 l 0,44.35301 c 0,4.88822 -3.93528,8.8235 -8.82349,8.8235 l -243.00606,0 c -4.88822,0 -8.82349,-3.93528 -8.82349,-8.8235 l 0,-44.35301 c 0,-4.88821 3.93527,-8.82349 8.82349,-8.82349 z m 0,82.14282 243.00606,0 c 4.88821,0 8.82349,3.93528 8.82349,8.8235 l 0,44.35301 c 0,4.88821 -3.93528,8.82349 -8.82349,8.82349 l -243.00606,0 c -4.88822,0 -8.82349,-3.93528 -8.82349,-8.82349 l 0,-44.35301 c 0,-4.88822 3.93527,-8.8235 8.82349,-8.8235 z m 82.89463,-418.99975 c -5.51895,0 -9.96289,4.44198 -9.96289,9.96093 l 0,32.89649 -92.89453,0 c -5.51896,0 -9.96289,4.44198 -9.96289,9.96094 l 0,431.50585 c 0,5.51896 4.44393,9.96094 9.96289,9.96094 l 282.93164,0 c 5.51895,0 9.96289,-4.44198 9.96289,-9.96094 l 0,-431.50585 c 0,-5.51896 -4.44394,-9.96094 -9.96289,-9.96094 l -92.89453,0 0,-32.89649 c 0,-5.51895 -4.44199,-9.96093 -9.96094,-9.96093 l -77.21875,0 z" />
  </g>
</svg>
