<?xml version="1.0" encoding="UTF-8" standalone="no"?>
<!-- Created with Inkscape (http://www.inkscape.org/) -->

<svg
   xmlns:dc="http://purl.org/dc/elements/1.1/"
   xmlns:cc="http://creativecommons.org/ns#"
   xmlns:rdf="http://www.w3.org/1999/02/22-rdf-syntax-ns#"
   xmlns:svg="http://www.w3.org/2000/svg"
   xmlns="http://www.w3.org/2000/svg"
   xmlns:sodipodi="http://sodipodi.sourceforge.net/DTD/sodipodi-0.dtd"
   xmlns:inkscape="http://www.inkscape.org/namespaces/inkscape"
   width="78.825821mm"
   height="78.904594mm"
   viewBox="0 0 279.30409 279.58321"
   id="svg2"
   version="1.1"
   inkscape:version="0.91 r13725"
   sodipodi:docname="food style.svg">
  <defs
     id="defs4" />
  <sodipodi:namedview
     id="base"
     pagecolor="#ffffff"
     bordercolor="#666666"
     borderopacity="1.0"
     inkscape:pageopacity="0.0"
     inkscape:pageshadow="2"
     inkscape:zoom="0.35"
     inkscape:cx="-390.2376"
     inkscape:cy="-204.20227"
     inkscape:document-units="px"
     inkscape:current-layer="layer1"
     showgrid="false"
     fit-margin-top="0"
     fit-margin-left="0"
     fit-margin-right="0"
     fit-margin-bottom="0"
     inkscape:window-width="1855"
     inkscape:window-height="1056"
     inkscape:window-x="1985"
     inkscape:window-y="24"
     inkscape:window-maximized="1" />
  <metadata
     id="metadata7">
    <rdf:RDF>
      <cc:Work
         rdf:about="">
        <dc:format>image/svg+xml</dc:format>
        <dc:type
           rdf:resource="http://purl.org/dc/dcmitype/StillImage" />
        <dc:title></dc:title>
      </cc:Work>
    </rdf:RDF>
  </metadata>
  <g
     inkscape:label="Capa 1"
     inkscape:groupmode="layer"
     id="layer1"
     transform="translate(-109.52331,-48.576723)">
    <path
       style="fill:#000000"
       d="m 194.42857,327.96023 c -22.08214,-3.34657 -38.8921,-10.73797 -53.8438,-23.67531 -13.0525,-11.29402 -24.32522,-29.37718 -28.80551,-46.20842 -3.18453,-11.96345 -2.97403,-31.48452 0.48229,-44.72383 6.09342,-23.34072 20.15323,-40.03209 40.53367,-48.12036 3.98203,-1.58032 4.57658,-1.59541 6.75,-0.17133 2.33286,1.52854 3.10695,4.91794 1.61804,7.08467 -0.40408,0.58804 -4.33469,2.83006 -8.73469,4.98227 -15.06304,7.36791 -25.98564,21.41538 -29.91713,38.47621 -6.46738,28.06537 0.27496,54.06354 19.23244,74.15947 17.90237,18.97746 41.61353,28.743 66.68469,27.46438 34.39663,-1.75421 62.51612,-21.44515 73.88851,-51.74114 7.86227,-20.94505 7.66172,-52.13058 -0.43733,-68.00604 -3.31065,-6.4894 -11.49057,-14.51803 -18.21536,-17.87845 -7.80721,-3.90131 -8.73582,-4.7462 -8.73582,-7.94829 0,-5.84355 4.20513,-6.51359 13.38447,-2.1327 12.54725,5.98825 22.17216,17.82367 27.28802,33.55514 2.16308,6.65152 2.68076,10.44412 3.07121,22.5 0.53896,16.64139 -1.04621,28.33609 -5.65529,41.72231 -12.25169,35.58281 -45.16324,59.23003 -84.48147,60.70065 -6.10882,0.22848 -12.45694,0.21083 -14.10694,-0.0392 z m 90.38507,-6.74151 c -4.58336,-1.6656 -9.5805,-5.2046 -10.9425,-7.74954 -1.47214,-2.75072 -0.24031,-5.82898 2.79429,-6.98273 2.11995,-0.80601 3.27783,-0.49201 6.66443,1.80728 l 4.09871,2.78277 38.70196,0.28349 c 43.2288,0.31665 43.34333,0.30163 48.41622,-6.3499 l 2.88182,-3.77862 0,-70.07748 0,-70.07749 -3.34899,-12.96626 c -5.78478,-22.39688 -14.46014,-45.10459 -21.3119,-55.783744 l -3.0476,-4.75 -22.34486,0 -22.34487,0 -2.44181,3.25 c -6.48444,8.63065 -15.45189,31.240964 -21.18424,53.413434 -1.95812,7.57391 -4.10371,14.11617 -4.76798,14.53835 -0.66426,0.42218 -2.4549,0.77449 -3.97919,0.78291 -4.46895,0.0247 -5.31035,-3.25198 -3.24732,-12.64601 2.73931,-12.47343 11.0331,-36.64496 16.50197,-48.093554 l 5.02727,-10.52412 -3.75524,-3.24387 -3.75524,-3.24388 -0.33129,-12.00909 c -0.26293,-9.53084 -0.001,-12.64688 1.26692,-15.0997 3.11554,-6.02478 3.82287,-6.12485 43.26471,-6.12073 46.12278,0.005 44.29966,-0.83582 44.29966,20.4265 0,10.01793 -0.24182,11.60747 -2.13132,14.00958 -1.17223,1.49025 -3.17835,3.10762 -4.45805,3.59416 l -2.32672,0.88462 4.86692,10.2907 c 5.79214,12.247004 12.98451,32.703704 17.33011,49.290704 l 3.14386,12 0.33246,69.33977 c 0.3751,78.23143 0.54593,76.12603 -6.85965,84.53921 -2.27765,2.58755 -5.99888,5.69832 -8.2694,6.91283 -4.04054,2.16129 -4.98832,2.21303 -44.62821,2.43614 -31.41131,0.17679 -41.31123,-0.0669 -44.11493,-1.08573 z m 76.11493,-253.142224 0,-8.5 -33.5,0 -33.5,0 0,8.5 0,8.5 33.5,0 33.5,0 0,-8.5 z M 209.07401,208.59723 c -9.87306,-7.80421 -12.62681,-17.19588 -8.78236,-29.95223 2.15311,-7.14428 2.11327,-7.21119 -1.19122,-2.00054 -3.78284,5.96491 -11.15361,12.31039 -15.9787,13.75602 -5.50588,1.6496 -12.89152,1.46324 -19.26166,-0.48602 -5.23885,-1.60309 -5.32509,-1.68566 -2.4315,-2.32806 4.69818,-1.04304 6.72731,-2.74024 11.52858,-9.6427 5.1958,-7.46967 8.89767,-10.12122 15.36866,-11.00817 2.56126,-0.35106 4.48515,-0.80997 4.27532,-1.01981 -0.20984,-0.20983 -4.08244,-1.0322 -8.6058,-1.82748 -13.03023,-2.29094 -18.46667,-7.03478 -19.63321,-17.13194 -0.44105,-3.81759 -0.3211,-4.49887 0.55105,-3.12978 1.89148,2.96924 6.1734,4.44634 14.71292,5.07541 10.13205,0.74638 14.5547,2.53179 19.47586,7.86238 l 3.82662,4.14497 0.0119,-2.91639 c 0.017,-4.17061 2.2673,-12.06007 5.48507,-19.23023 l 2.77616,-6.18616 4.29833,0 c 2.36409,0 5.49492,0.45494 6.9574,1.01097 l 2.65906,1.01097 -2.89114,3.29283 c -4.60848,5.24877 -7.11018,9.87123 -8.75036,16.16832 -0.84066,3.2275 -1.34599,6.05067 -1.12296,6.27371 0.22304,0.22303 2.9062,-1.63132 5.9626,-4.12079 4.84484,-3.94618 10.56912,-6.61221 14.2363,-6.63043 0.61729,-0.003 4.64714,1.14503 8.95521,2.55132 4.35166,1.42053 8.85274,2.30093 10.12764,1.98095 2.92873,-0.73506 2.93582,0.77233 0.0278,5.90642 -3.45001,6.09093 -7.40126,7.88517 -17.0904,7.76065 l -8.14259,-0.10465 5.9336,2.41285 c 3.83544,1.55965 7.90192,4.33176 11.5,7.83952 3.06152,2.98467 6.9164,6.11684 8.5664,6.96038 l 3,1.53372 -4.5,2.05467 c -11.45652,5.23096 -23.82793,0.68978 -33.74691,-12.38752 -3.00937,-3.96758 -4.33044,-5.16323 -3.88248,-3.51389 0.37345,1.375 1.35683,4.975 2.18528,8 2.25421,8.23097 2.91946,19.85004 1.48005,25.85017 -0.68029,2.8358 -1.60015,5.3805 -2.04412,5.65489 -0.44398,0.27439 -3.07485,-1.29356 -5.84638,-3.48433 z"
       id="path4147"
       inkscape:connector-curvature="0" />
  </g>
</svg>
