<?xml version="1.0" encoding="UTF-8" standalone="no"?>
<!-- Created with Inkscape (http://www.inkscape.org/) -->

<svg
   xmlns:dc="http://purl.org/dc/elements/1.1/"
   xmlns:cc="http://creativecommons.org/ns#"
   xmlns:rdf="http://www.w3.org/1999/02/22-rdf-syntax-ns#"
   xmlns:svg="http://www.w3.org/2000/svg"
   xmlns="http://www.w3.org/2000/svg"
   xmlns:sodipodi="http://sodipodi.sourceforge.net/DTD/sodipodi-0.dtd"
   xmlns:inkscape="http://www.inkscape.org/namespaces/inkscape"
   width="235pt"
   height="235pt"
   viewBox="0 0 293.75 293.75001"
   id="svg4134"
   version="1.1"
   inkscape:version="0.91 r13725"
   sodipodi:docname="mental health.svg">
  <defs
     id="defs4136" />
  <sodipodi:namedview
     id="base"
     pagecolor="#ffffff"
     bordercolor="#666666"
     borderopacity="1.0"
     inkscape:pageopacity="0.0"
     inkscape:pageshadow="2"
     inkscape:zoom="1.979899"
     inkscape:cx="181.09038"
     inkscape:cy="79.832133"
     inkscape:document-units="px"
     inkscape:current-layer="layer1"
     showgrid="false"
     fit-margin-top="0"
     fit-margin-left="0"
     fit-margin-right="0"
     fit-margin-bottom="0"
     units="pt"
     inkscape:window-width="1855"
     inkscape:window-height="1056"
     inkscape:window-x="1985"
     inkscape:window-y="24"
     inkscape:window-maximized="1" />
  <metadata
     id="metadata4139">
    <rdf:RDF>
      <cc:Work
         rdf:about="">
        <dc:format>image/svg+xml</dc:format>
        <dc:type
           rdf:resource="http://purl.org/dc/dcmitype/StillImage" />
        <dc:title />
      </cc:Work>
    </rdf:RDF>
  </metadata>
  <g
     inkscape:label="Capa 1"
     inkscape:groupmode="layer"
     id="layer1"
     transform="translate(-19.675519,-14.112178)">
    <path
       style="fill:none;stroke:#000000;stroke-width:6.42401838;stroke-miterlimit:4;stroke-dasharray:none;stroke-opacity:1"
       d="m 86.672437,274.21234 c 0,-35.64036 -3.434803,-49.85388 -17.40707,-72.03191 -16.587898,-26.32979 -22.266575,-47.69647 -20.16392,-75.86906 3.598506,-48.214828 28.397639,-82.991691 68.525673,-96.096404 15.63422,-5.1057 22.51172,-6.025628 44.75697,-5.986625 22.70954,0.03983 31.28707,1.341032 47.84027,7.257378 33.98777,12.147699 56.04434,40.962165 63.18626,82.545841 1.35557,7.89277 1.86208,8.97159 14.22903,30.30587 7.05289,12.16698 13.08703,23.43979 13.40922,25.05068 1.72825,8.64127 -2.13425,13.54895 -16.05321,20.39715 l -10.19125,5.01415 0,15.6711 c 0,17.60966 -0.97071,23.00119 -5.76435,32.01626 -5.35922,10.07871 -16.14889,18.66764 -27.27346,21.71055 -2.37833,0.65054 -8.89743,1.07551 -15.37176,1.00204 l -11.24203,-0.12756 0,13.76552 0,13.76553 -64.24018,0 -64.240193,0 z"
       id="path4693"
       inkscape:connector-curvature="0"
       sodipodi:nodetypes="sssssssssscsssscccccs" />
    <path
       style="fill:#000000"
       d="m 161.47629,204.16476 0,-4.41496 4.56572,-0.15076 4.56571,-0.15076 0,-11.47952 0,-11.47951 -3.25132,-0.35864 c -8.79789,-0.97046 -15.01953,-3.72743 -20.27764,-8.98554 -6.30591,-6.3059 -8.4097,-12.31045 -10.15471,-28.98305 -0.58714,-5.6099 -1.31519,-11.13773 -1.61789,-12.28406 -1.39335,-5.27668 -3.78096,-7.74513 -8.12096,-8.39596 l -2.23463,-0.3351 0,-4.44787 0,-4.44786 2.7484,0.32302 c 8.63097,1.01441 13.90091,5.92166 16.27025,15.15054 0.43316,1.68722 1.2706,7.55743 1.86096,13.04491 1.50906,14.02679 2.96235,18.95673 6.95126,23.58054 3.11404,3.60969 10.99788,6.97544 16.39641,6.99992 l 1.70089,0.007 -0.13551,-24.91576 -0.13551,-24.91577 -2.21763,-0.16044 -2.21764,-0.16046 0,-4.40527 0,-4.40526 8.87055,0 8.87053,0 0,4.43526 0,4.43527 -2.08719,0 -2.08719,0 0,25.04621 0,25.04622 1.71667,0 c 5.08944,0 12.23693,-3.06713 15.64962,-6.71558 4.56392,-4.8792 6.04136,-9.58365 7.65828,-24.38546 1.46328,-13.39521 2.63277,-17.46961 6.38207,-22.2344 1.93719,-2.4619 7.03778,-4.98257 10.9893,-5.43084 l 3.00033,-0.34036 0,4.38363 0,4.38362 -2.70219,0.64189 c -5.88592,1.39816 -7.02889,4.01161 -8.78836,20.09511 -1.75632,16.05468 -3.99774,22.79549 -9.57867,28.80672 -4.71829,5.08207 -12.69411,8.7349 -20.6963,9.47862 l -3.63075,0.33744 0,11.66549 0,11.66548 4.43528,0 4.43526,0 0,4.43526 0,4.43527 -13.56669,0 -13.56671,0 0,-4.41495 z"
       id="path4743"
       inkscape:connector-curvature="0" />
  </g>
</svg>
